<svg width="326" height="303" viewBox="0 0 326 303" fill="none" xmlns="http://www.w3.org/2000/svg">
<g clip-path="url(#clip0_194_8)">
<rect x="222.13" y="14.6884" width="57.9565" height="57.9565" rx="28.9783" transform="rotate(9.37596 222.13 14.6884)" fill="#328454"/>
<rect x="222.13" y="14.6884" width="57.9565" height="57.9565" rx="28.9783" transform="rotate(9.37596 222.13 14.6884)" stroke="#328454" stroke-width="4.04348"/>
<path d="M212.173 295.914C224.612 294.858 233.841 283.917 232.785 271.477L211.769 150.62C210.713 138.18 199.771 128.951 187.332 130.007C174.892 131.063 165.663 142.004 166.719 154.444L187.736 275.302C188.792 287.742 199.733 296.97 212.173 295.914Z" fill="#CFCFCF" stroke="#262525" stroke-width="1.4" stroke-linecap="round" stroke-linejoin="round"/>
<path d="M215.126 149.211L236.743 267.283C239.224 280.834 230.853 294.011 217.533 297.524C202.689 301.44 187.652 291.894 184.878 276.794L163.193 158.733C160.538 144.28 170.212 130.447 184.698 127.979L184.766 127.968C198.995 125.545 212.527 135.013 215.126 149.211V149.211Z" fill="white" stroke="#262525" stroke-width="1.4" stroke-linecap="round" stroke-linejoin="round"/>
<path d="M300.572 154.804C290.647 147.23 276.462 149.136 268.888 159.061L192.107 259.674C184.533 269.6 186.439 283.785 196.364 291.359C206.289 298.933 220.474 297.027 228.048 287.102L304.829 186.489C312.403 176.563 310.497 162.378 300.572 154.804Z" fill="#CFCFCF" stroke="#262525" stroke-width="1.4" stroke-linecap="round" stroke-linejoin="round"/>
<path d="M189.505 257.175L234.435 193.998C235.722 192.19 237.738 191.038 239.949 190.848L240.98 190.76L240.657 188.23C240.533 187.258 240.785 186.275 241.362 185.483L244.348 181.386C245.756 179.455 248.261 178.672 250.518 179.457L252.67 180.206L253.367 181.991C258.5 195.155 271.204 203.805 285.334 203.755L291.589 203.733L292.562 204.978C294.295 207.195 294.488 210.248 293.046 212.665L292.57 213.463C291.872 214.633 290.768 215.505 289.467 215.912L287.366 216.571L231.428 288.387C222.687 299.609 206.578 301.781 195.178 293.276C183.793 284.783 181.275 268.752 189.506 257.177L189.505 257.175Z" fill="white"/>
<path d="M195.559 248.663L234.435 193.998C235.722 192.19 237.738 191.038 239.949 190.848L240.98 190.76L240.657 188.23C240.533 187.258 240.786 186.275 241.362 185.483L244.348 181.386C245.756 179.455 248.261 178.672 250.518 179.457L252.67 180.206L253.367 181.991C258.5 195.155 271.205 203.805 285.334 203.755L291.589 203.733L292.562 204.978C294.296 207.195 294.488 210.248 293.046 212.665L292.57 213.463C291.872 214.633 290.768 215.505 289.467 215.912L287.366 216.571L231.428 288.387C222.687 299.609 206.578 301.781 195.178 293.276C190.581 289.846 187.429 285.188 185.848 280.09C185.848 280.09 184.875 276.772 184.491 274.687C184.108 272.602 183.868 271.293 183.868 271.293" stroke="#262525" stroke-width="1.4" stroke-linecap="round" stroke-linejoin="round"/>
<path d="M240.98 190.76C240.98 190.76 248.121 205.405 260.122 211.728" stroke="#262525" stroke-width="1.4" stroke-linecap="round" stroke-linejoin="round"/>
<path d="M287.365 216.569C287.365 216.569 280.232 217.601 273.144 214.117" stroke="#262525" stroke-width="1.4" stroke-linecap="round" stroke-linejoin="round"/>
<path d="M125.056 125.833L137.256 128.276C142.77 129.38 148.134 125.805 149.237 120.292L158.075 76.1481C159.18 70.6347 155.605 65.2707 150.092 64.1675L137.892 61.7246C132.378 60.6205 127.014 64.1954 125.911 69.7079L117.072 113.852C115.968 119.365 119.543 124.73 125.056 125.833Z" fill="#CFCFCF" stroke="#262525" stroke-width="1.4" stroke-linecap="round" stroke-linejoin="round"/>
<path d="M131.353 77.1279L134.456 61.6273C135.569 61.4685 136.726 61.4912 137.892 61.7242L150.092 64.1671C155.605 65.2712 159.179 70.6353 158.075 76.1477L150.91 111.936C136.195 108.99 128.118 93.283 131.353 77.1279Z" fill="#262525" stroke="#262525" stroke-width="1.4" stroke-linecap="round" stroke-linejoin="round"/>
<path d="M154.216 106.516C166.231 109.708 178.56 102.557 181.752 90.5411L192.878 48.6705C197.049 32.9727 187.705 16.8656 172.008 12.6937C156.31 8.52271 140.203 17.8667 136.031 33.5645L128.449 62.0973C123.299 81.4782 134.835 101.364 154.216 106.515V106.516Z" fill="#CFCFCF" stroke="#262525" stroke-width="1.4" stroke-linecap="round" stroke-linejoin="round"/>
<path d="M189.354 61.9322C189.354 61.9322 195.422 52.1056 198.941 44.1127C202.46 36.1198 200.402 26.3657 196.19 25.2459C196.19 25.2459 191.667 9.53589 165.374 5.06029C139.082 0.584682 132.458 24.772 132.458 24.772C132.458 24.772 125.881 25.396 121.382 33.9658C116.883 42.5356 119.987 56.6956 121.927 58.8435C121.927 58.8435 116.611 71.1331 124.205 78.2235L127.536 67.4211L136.422 54.8732C136.422 54.8732 139.826 41.2439 144.045 37.8252C149.779 33.176 150.153 26.1257 150.153 26.1257C150.153 26.1257 157.398 22.7498 164.061 28.7056C170.535 34.4921 171.511 51.4013 191.805 52.714L189.355 61.9331L189.354 61.9322Z" fill="#262525" stroke="#262525" stroke-width="1.4" stroke-linecap="round" stroke-linejoin="round"/>
<path d="M162.372 62.1652C162.372 62.1652 160.237 54.3416 148.464 56.3629" stroke="#262525" stroke-width="1.4" stroke-linecap="round" stroke-linejoin="round"/>
<path d="M155.21 59.0973C154.745 60.8481 155.728 61.2897 156.996 61.6266C158.264 61.9635 159.337 62.0683 159.802 60.3175C160.425 57.9732 159.397 57.7 158.129 57.3631C156.861 57.0262 155.826 56.7818 155.21 59.0973Z" fill="#262525"/>
<path d="M174.069 65.2734C174.069 65.2734 179.806 59.541 189.023 67.1403" stroke="#262525" stroke-width="1.4" stroke-linecap="round" stroke-linejoin="round"/>
<path d="M184.19 66.7263C183.725 68.4771 182.653 68.3724 181.384 68.0355C180.116 67.6986 179.134 67.2569 179.599 65.5062C180.222 63.1619 181.249 63.4351 182.517 63.7719C183.785 64.1088 184.806 64.4108 184.19 66.7263Z" fill="#262525"/>
<path d="M170.727 59.7949C170.727 59.7949 170.925 71.8995 170.177 79.058C170.083 79.9639 169.25 80.6115 168.349 80.4763C166.697 80.2293 161.802 78.6984 161.802 78.6984" stroke="#262525" stroke-width="1.4" stroke-linecap="round" stroke-linejoin="round"/>
<path d="M157.415 86.7313C148.655 84.5494 147.213 76.5635 147.213 76.5635" stroke="#262525" stroke-width="1.4" stroke-linecap="round" stroke-linejoin="round"/>
<path d="M154.679 51.577L160.97 53.2493C161.829 53.4771 162.71 52.9665 162.939 52.1077C163.166 51.2489 162.656 50.3682 161.797 50.1396L155.505 48.4673C154.646 48.2395 153.766 48.7501 153.537 49.6089C153.308 50.4677 153.82 51.3484 154.679 51.577Z" fill="#262525" stroke="#262525" stroke-width="1.4" stroke-linecap="round" stroke-linejoin="round"/>
<path d="M179.069 58.0585L185.361 59.7307C186.22 59.9585 187.1 59.4479 187.329 58.5891C187.558 57.7303 187.046 56.8497 186.187 56.621L179.895 54.9488C179.037 54.721 178.156 55.2315 177.927 56.0904C177.7 56.9492 178.21 57.8298 179.069 58.0585Z" fill="#262525" stroke="#262525" stroke-width="1.4" stroke-linecap="round" stroke-linejoin="round"/>
<path d="M121.136 62.1439L126.446 66.6448C130.769 70.3087 137.435 68.2176 138.89 62.7409C139.656 59.8625 138.695 56.7999 136.422 54.8745L131.111 50.3736C126.788 46.7097 120.123 48.8009 118.667 54.2776C117.903 57.156 118.863 60.2186 121.136 62.1439Z" fill="#CFCFCF"/>
<path d="M137.747 56.325C137.374 55.7943 136.931 55.3056 136.421 54.8736L131.11 50.3726C126.788 46.7087 120.122 48.7999 118.666 54.2766C117.902 57.155 118.862 60.2176 121.135 62.1429L126.445 66.6438C126.99 67.1055 127.573 67.4765 128.177 67.7601" stroke="#262525" stroke-width="1.4" stroke-linecap="round" stroke-linejoin="round"/>
<path d="M131.344 63.5506C132.31 62.8436 133.049 61.8129 133.381 60.5657C134.15 57.6672 132.426 54.6936 129.527 53.9238C127.618 53.4159 125.675 53.9928 124.352 55.274" stroke="#262525" stroke-width="1.4" stroke-linecap="round" stroke-linejoin="round"/>
<path d="M133.438 59.6565C132.845 59.1564 132.308 58.8221 131.508 58.61C129.697 58.1291 127.857 58.6222 126.542 59.7673" stroke="#262525" stroke-width="1.4" stroke-linecap="round" stroke-linejoin="round"/>
<path d="M171.17 298.88H29.3458L55.4576 120.245C56.8663 111.324 64.819 104.933 73.8339 105.477L118.168 108.152L150.377 114.601L195.516 130.894C203.94 133.935 208.718 142.835 206.599 151.537L171.171 298.881L171.17 298.88Z" fill="#CFCFCF"/>
<path d="M150.377 114.601L195.516 130.895C203.94 133.935 208.718 142.835 206.599 151.537L171.171 298.881H29.3458L55.4576 120.246C56.8663 111.325 64.819 104.934 73.8339 105.478L118.211 108.16" stroke="#262525" stroke-width="1.4" stroke-linecap="round" stroke-linejoin="round"/>
<path d="M104.109 366.928L103.154 337.098C102.55 318.195 117.711 302.541 136.624 302.541C155.537 302.541 170.698 318.195 170.093 337.098L169.138 366.928H104.108H104.109Z" fill="#CFCFCF" stroke="#262525" stroke-width="1.4" stroke-linecap="round" stroke-linejoin="round"/>
<path d="M97.1541 369.491H172.239L172.97 336.186C173.418 315.716 156.948 298.88 136.473 298.88C115.997 298.88 94.9451 316.16 95.804 336.896L97.1541 369.491Z" fill="#262525" stroke="#262525" stroke-width="1.4" stroke-linecap="round" stroke-linejoin="round"/>
<path d="M29.346 298.88L30.498 349.472H170.019L171.17 298.88H29.346Z" fill="#CFCFCF" stroke="#262525" stroke-width="1.4" stroke-linecap="round" stroke-linejoin="round"/>
<path d="M172.628 351.811L175.379 272.234L27.2421 266.877L24.8664 291.934L25.2731 351.811H172.628Z" fill="#262525" stroke="#262525" stroke-width="1.4" stroke-linecap="round" stroke-linejoin="round"/>
<path d="M28.8778 366.928L27.923 337.098C27.3181 318.195 42.4792 302.541 61.3923 302.541C80.3054 302.541 95.4664 318.195 94.8607 337.098L93.9067 366.928H28.8778Z" fill="#CFCFCF" stroke="#262525" stroke-width="1.4" stroke-linecap="round" stroke-linejoin="round"/>
<path d="M96.4888 369.491H25.7702L24.88 337.871C24.3074 317.519 40.6493 300.71 61.0095 300.71C81.3697 300.71 97.5641 317.35 97.146 337.6L96.4879 369.49L96.4888 369.491Z" fill="#262525" stroke="#262525" stroke-width="1.4" stroke-linecap="round" stroke-linejoin="round"/>
<path d="M53.3171 119.588L27.3581 259.695C24.8393 273.29 23.16 287.027 22.3309 300.828L20.135 337.374H38.3734L43.8126 302.528C44.9943 294.955 47.5498 287.661 51.3525 281.006L55.2355 274.21L53.2971 287.929C52.865 290.987 52.6591 294.071 52.6791 297.159L52.9497 337.373H178.482L179.297 287.454L209.386 152.574C211.741 142.015 205.717 131.388 195.448 127.985L155.13 114.626C154.259 114.337 153.317 114.714 152.885 115.523C151.396 118.312 147.452 124.249 140.87 124.249C128.685 124.249 118.695 112.705 115.18 108.076C114.264 106.871 112.88 106.132 111.368 106.041L73.5569 103.758C63.7817 103.168 55.1011 109.957 53.3171 119.585V119.588Z" fill="white"/>
<path d="M204.347 175.163L179.297 287.455L178.483 337.374H52.9506L52.68 297.16C52.659 294.072 52.8659 290.988 53.2979 287.931L55.2364 274.211L51.3534 281.008C47.5507 287.663 44.9952 294.956 43.8134 302.53L38.3743 337.375H20.135L22.3309 300.829C23.16 287.028 24.8393 273.291 27.3581 259.696L53.3171 119.589C55.1011 109.961 63.7826 103.172 73.5569 103.762L111.368 106.045C112.879 106.135 114.264 106.875 115.18 108.08C118.695 112.709 128.685 124.253 140.87 124.253C147.452 124.253 151.396 118.316 152.885 115.527C153.317 114.718 154.259 114.341 155.13 114.63L195.448 127.989C196.364 128.293 197.245 128.653 198.09 129.066C198.09 129.066 203.747 131.375 206.371 133.965" stroke="#262525" stroke-width="1.4" stroke-linecap="round" stroke-linejoin="round"/>
<path d="M182.934 271.155L27.3293 259.87C27.3398 259.811 27.3476 259.752 27.359 259.696L37.3462 205.791L192.647 227.616L182.934 271.156V271.155Z" fill="#262525" stroke="#262525" stroke-width="1.4" stroke-linecap="round" stroke-linejoin="round"/>
<path d="M37.3457 205.79L192.647 227.615L190.253 238.345L34.5179 221.052L37.3457 205.79Z" fill="white" stroke="#262525" stroke-width="1.4" stroke-linecap="round" stroke-linejoin="round"/>
<path d="M182.934 271.155L27.3293 259.87C27.3398 259.811 27.3476 259.752 27.359 259.696L30.7541 241.376L186.129 256.84L182.935 271.156L182.934 271.155Z" fill="white" stroke="#262525" stroke-width="1.4" stroke-linecap="round" stroke-linejoin="round"/>
<path d="M29.9506 268.052C41.7139 272.235 54.6406 266.091 58.8247 254.328L89.6748 135.599C93.858 123.836 87.7137 110.909 75.9513 106.725C64.188 102.542 51.2612 108.686 47.0771 120.449L16.2271 239.179C12.0438 250.942 18.1882 263.869 29.9506 268.053V268.052Z" fill="#CFCFCF" stroke="#262525" stroke-width="1.4" stroke-linecap="round" stroke-linejoin="round"/>
<path d="M94.4716 136.584L63.8711 252.617C60.3582 265.938 47.1818 274.308 33.6302 271.828C18.5294 269.064 8.97424 254.032 12.8808 239.185L43.4149 123.133C47.1592 108.904 61.8131 100.481 75.9931 104.41C89.9209 108.268 98.1573 122.608 94.4716 136.583V136.584Z" fill="white"/>
<path d="M89.783 154.361L63.8711 252.617C60.3582 265.938 47.1818 274.308 33.6302 271.828C18.5294 269.064 8.97424 254.032 12.8808 239.185L43.4149 123.133C46.8886 109.932 59.7533 101.729 72.9175 103.749L79.184 104.099" stroke="#262525" stroke-width="1.4" stroke-linecap="round" stroke-linejoin="round"/>
<path d="M172.523 183.448C167.185 172.161 153.709 167.339 142.422 172.677L28.0081 226.785C16.7222 232.123 11.8992 245.599 17.2371 256.886C22.5751 268.173 36.0507 272.995 47.3375 267.657L161.752 213.548C173.038 208.21 177.861 194.734 172.523 183.448Z" fill="#CFCFCF" stroke="#262525" stroke-width="1.4" stroke-linecap="round" stroke-linejoin="round"/>
<path d="M26.9232 222.164L91.864 190.913C92.9428 190.394 94.1542 190.218 95.3351 190.408L97.5205 190.761L97.6523 189.777C97.8111 188.587 98.5696 187.561 99.6614 187.061L104.573 184.811C106.69 183.842 109.185 184.871 110.002 187.051L110.307 187.864L110.426 191.751C110.865 206.059 120.132 218.595 133.683 223.211L138.12 224.723L138.932 226.349C139.796 228.078 139.353 230.175 137.864 231.408L136.878 232.224C135.533 233.339 133.839 233.949 132.091 233.949H130.643L48.9722 269.987C35.5602 275.905 19.8965 269.731 14.1292 256.252C8.58616 243.297 14.2234 228.273 26.9215 222.163L26.9232 222.164Z" fill="white"/>
<path d="M97.521 190.761C97.521 190.761 97.521 210.505 107.328 220.167" stroke="#262525" stroke-width="1.4" stroke-linecap="round" stroke-linejoin="round"/>
<path d="M130.645 233.949C130.645 233.949 123.804 232.4 118.728 227.496" stroke="#262525" stroke-width="1.4" stroke-linecap="round" stroke-linejoin="round"/>
<path d="M36.1797 217.709L91.8647 190.912C92.9435 190.393 94.1549 190.217 95.3358 190.407L97.5212 190.76L97.653 189.776C97.8118 188.586 98.5703 187.56 99.6621 187.06L104.574 184.81C106.691 183.841 109.186 184.87 110.003 187.05L110.307 187.863L110.427 191.75C110.866 206.058 120.133 218.594 133.684 223.21L138.121 224.722L138.933 226.348C139.797 228.077 139.353 230.174 137.864 231.407L136.879 232.223C135.533 233.338 133.84 233.948 132.092 233.948H130.644L48.9729 269.986C35.5609 275.904 19.8972 269.73 14.1299 256.252C11.5325 250.18 11.3902 243.656 13.2789 237.806L16.1285 226.838" stroke="#262525" stroke-width="1.4" stroke-linecap="round" stroke-linejoin="round"/>
<path d="M167.307 211.67L150.409 211.728C136.86 211.774 125.84 200.829 125.793 187.28L125.709 162.521L178.478 162.341L178.485 164.261C178.506 170.042 183.208 174.712 188.988 174.692L191.713 174.683L191.756 187.054C191.802 200.603 180.857 211.623 167.308 211.669L167.307 211.67Z" fill="#CFCFCF"/>
<path d="M136.073 207.167C129.872 202.734 125.82 195.485 125.792 187.28L125.707 162.521L178.477 162.341L178.484 164.261C178.504 170.042 183.207 174.712 188.987 174.692L191.712 174.683L191.755 187.054C191.801 200.603 180.856 211.623 167.307 211.669L164.916 211.728C164.916 211.728 163.129 212.889 162.083 213.387" stroke="#262525" stroke-width="1.4" stroke-linecap="round" stroke-linejoin="round"/>
<path d="M178.484 164.155L165.291 164.201L165.168 135.067C165.156 131.424 168.099 128.461 171.741 128.448C175.384 128.436 178.348 131.379 178.361 135.022L178.484 164.155Z" fill="#CFCFCF"/>
<path d="M165.292 164.201L165.169 135.067C165.156 131.424 168.099 128.461 171.742 128.448C175.385 128.436 178.349 131.379 178.362 135.022L178.485 164.155" fill="#CFCFCF"/>
<path d="M165.292 164.201L165.169 135.067C165.156 131.424 168.099 128.461 171.742 128.448C175.385 128.436 178.349 131.379 178.362 135.022L178.485 164.155" stroke="#262525" stroke-width="1.4" stroke-linecap="round" stroke-linejoin="round"/>
<path d="M167.037 139.617C164.507 137.017 164.551 132.861 167.136 130.316L175.262 122.351C177.872 119.811 182.049 119.868 184.589 122.478C187.13 125.088 187.073 129.265 184.463 131.805L176.392 139.715C173.785 142.281 169.589 142.237 167.038 139.615L167.037 139.617Z" fill="#CFCFCF"/>
<path d="M178.38 139.515L178.373 137.775L184.463 131.805C187.073 129.265 187.13 125.088 184.589 122.478C182.049 119.868 177.873 119.811 175.262 122.351L167.137 130.316C165.813 131.619 165.155 133.345 165.168 135.068V139.426" fill="#CFCFCF"/>
<path d="M178.38 139.515L178.373 137.775L184.463 131.805C187.073 129.265 187.13 125.088 184.589 122.478C182.049 119.868 177.873 119.811 175.262 122.351L167.137 130.316C165.813 131.619 165.155 133.345 165.168 135.068V139.426" stroke="#262525" stroke-width="1.4" stroke-linecap="round" stroke-linejoin="round"/>
<path d="M178.373 137.776L173.738 136.649" stroke="#262525" stroke-width="1.4" stroke-linecap="round" stroke-linejoin="round"/>
<path d="M165.291 164.201L152.098 164.247L151.958 151.097C151.946 147.454 154.889 144.491 158.532 144.478C162.175 144.465 165.138 147.408 165.151 151.051L165.291 164.201Z" fill="#CFCFCF"/>
<path d="M152.098 164.246L151.958 151.096C151.946 147.453 154.889 144.49 158.532 144.477C162.175 144.464 165.138 147.407 165.151 151.05L165.291 164.201" fill="#CFCFCF"/>
<path d="M152.098 164.246L151.958 151.096C151.946 147.453 154.889 144.49 158.532 144.477C162.175 144.464 165.138 147.407 165.151 151.05L165.291 164.201" stroke="#262525" stroke-width="1.4" stroke-linecap="round" stroke-linejoin="round"/>
<path d="M168.341 160.916C165.758 163.475 161.592 163.463 159.025 160.889L153.871 155.718C151.306 153.131 151.324 148.955 153.91 146.39C156.497 143.825 160.674 143.842 163.239 146.429L168.368 151.575C170.944 154.16 170.932 158.346 168.341 160.916Z" fill="#CFCFCF"/>
<path d="M154.406 156.255L159.025 160.889C161.592 163.464 165.759 163.476 168.341 160.916C170.933 158.346 170.945 154.159 168.368 151.575L163.239 146.429C160.673 143.842 156.497 143.825 153.91 146.39C152.604 147.685 151.953 149.391 151.959 151.097L152.003 155.248" fill="#CFCFCF"/>
<path d="M154.406 156.255L159.025 160.889C161.592 163.464 165.759 163.476 168.341 160.916C170.933 158.346 170.945 154.159 168.368 151.575L163.239 146.429C160.673 143.842 156.497 143.825 153.91 146.39C152.604 147.685 151.953 149.391 151.959 151.097L152.003 155.248" stroke="#262525" stroke-width="1.4" stroke-linecap="round" stroke-linejoin="round"/>
<path d="M163.801 175.164C160.173 175.176 157.216 172.257 157.183 168.629L157.104 156.242C157.092 152.599 160.035 149.636 163.677 149.623C167.32 149.611 170.284 152.554 170.297 156.197L170.376 168.507C170.41 172.164 167.461 175.151 163.803 175.163L163.801 175.164Z" fill="#CFCFCF"/>
<path d="M157.111 157.598L157.182 168.628C157.215 172.256 160.172 175.176 163.8 175.164C167.458 175.151 170.407 172.165 170.373 168.507L170.294 156.197C170.287 154.183 169.378 152.383 167.951 151.178L165.525 148.725" fill="#CFCFCF"/>
<path d="M157.111 157.598L157.182 168.628C157.215 172.256 160.172 175.176 163.8 175.164C167.458 175.151 170.407 172.165 170.373 168.507L170.294 156.197C170.287 154.183 169.378 152.383 167.951 151.178L165.525 148.725" stroke="#262525" stroke-width="1.4" stroke-linecap="round" stroke-linejoin="round"/>
<path d="M152.098 164.246L138.905 164.291L138.782 151.096C138.77 147.453 141.713 144.49 145.356 144.477C148.999 144.464 151.962 147.407 151.975 151.05L152.098 164.246Z" fill="#CFCFCF"/>
<path d="M138.906 164.291L138.783 151.096C138.771 147.453 141.714 144.49 145.357 144.477C149 144.464 151.963 147.407 151.976 151.05L152.099 164.246" fill="#CFCFCF"/>
<path d="M138.906 164.291L138.783 151.096C138.771 147.453 141.714 144.49 145.357 144.477C149 144.464 151.963 147.407 151.976 151.05L152.099 164.246" stroke="#262525" stroke-width="1.4" stroke-linecap="round" stroke-linejoin="round"/>
<path d="M155.165 160.916C152.584 163.475 148.416 163.463 145.849 160.889L140.696 155.718C138.131 153.131 138.148 148.955 140.735 146.39C143.322 143.825 147.498 143.842 150.063 146.429L155.192 151.575C157.769 154.16 157.757 158.346 155.165 160.916Z" fill="#CFCFCF"/>
<path d="M141.698 156.725L145.849 160.889C148.416 163.464 152.584 163.476 155.165 160.916C157.757 158.346 157.77 154.159 155.192 151.575L150.063 146.429C147.498 143.842 143.322 143.825 140.735 146.39C139.428 147.685 138.777 149.391 138.783 151.097L138.823 155.349" fill="#CFCFCF"/>
<path d="M141.698 156.725L145.849 160.889C148.416 163.464 152.584 163.476 155.165 160.916C157.757 158.346 157.77 154.159 155.192 151.575L150.063 146.429C147.498 143.842 143.322 143.825 140.735 146.39C139.428 147.685 138.777 149.391 138.783 151.097L138.823 155.349" stroke="#262525" stroke-width="1.4" stroke-linecap="round" stroke-linejoin="round"/>
<path d="M150.544 172.841C146.915 172.854 143.958 169.934 143.925 166.306L143.846 156.241C143.834 152.598 146.777 149.635 150.42 149.622C154.063 149.61 157.026 152.553 157.039 156.196L157.118 166.184C157.152 169.842 154.203 172.828 150.545 172.841L150.544 172.841Z" fill="#CFCFCF"/>
<path d="M143.846 157.334L143.925 166.307C143.958 169.935 146.915 172.854 150.543 172.842C154.201 172.83 157.15 169.843 157.116 166.185L157.037 156.197C157.031 154.387 156.296 152.75 155.112 151.562L152.554 148.929" fill="#CFCFCF"/>
<path d="M143.846 157.334L143.925 166.307C143.958 169.935 146.915 172.854 150.543 172.842C154.201 172.83 157.15 169.843 157.116 166.185L157.037 156.197C157.031 154.387 156.296 152.75 155.112 151.562L152.554 148.929" stroke="#262525" stroke-width="1.4" stroke-linecap="round" stroke-linejoin="round"/>
<path d="M138.907 166.14L125.714 166.185L125.63 152.944C125.618 149.301 128.561 146.338 132.204 146.325C135.847 146.313 138.81 149.256 138.823 152.899L138.907 166.14Z" fill="#CFCFCF"/>
<path d="M125.714 166.185L125.63 152.944C125.618 149.301 128.561 146.338 132.204 146.325C135.847 146.313 138.81 149.256 138.823 152.899L138.907 166.14" fill="#CFCFCF"/>
<path d="M125.714 166.185L125.63 152.944C125.618 149.301 128.561 146.338 132.204 146.325C135.847 146.313 138.81 149.256 138.823 152.899L138.907 166.14" stroke="#262525" stroke-width="1.4" stroke-linecap="round" stroke-linejoin="round"/>
<path d="M142.012 162.764C139.431 165.324 135.263 165.312 132.696 162.737L127.543 157.567C124.977 154.98 124.995 150.804 127.582 148.239C130.169 145.674 134.345 145.691 136.91 148.278L142.039 153.424C144.616 156.009 144.604 160.195 142.012 162.764Z" fill="#CFCFCF"/>
<path d="M128.037 158.063L132.696 162.737C135.263 165.313 139.43 165.325 142.012 162.764C144.604 160.195 144.616 156.008 142.039 153.424L136.91 148.278C134.345 145.691 130.168 145.674 127.582 148.239C126.195 149.614 125.546 151.452 125.639 153.261V157.291" fill="#CFCFCF"/>
<path d="M128.037 158.063L132.696 162.737C135.263 165.313 139.43 165.325 142.012 162.764C144.604 160.195 144.616 156.008 142.039 153.424L136.91 148.278C134.345 145.691 130.168 145.674 127.582 148.239C126.195 149.614 125.546 151.452 125.639 153.261V157.291" stroke="#262525" stroke-width="1.4" stroke-linecap="round" stroke-linejoin="round"/>
<path d="M137.424 171.834C133.795 171.847 130.838 168.927 130.805 165.299L130.726 158.09C130.714 154.447 133.657 151.484 137.3 151.471C140.943 151.459 143.906 154.402 143.919 158.045L143.998 165.178C144.032 168.836 141.083 171.822 137.425 171.834H137.424Z" fill="#CFCFCF"/>
<path d="M130.726 158.09L130.805 165.299C130.838 168.927 133.795 171.847 137.423 171.835C141.081 171.823 144.03 168.836 143.996 165.178L143.917 158.045C143.91 156.103 143.065 154.36 141.725 153.157L139.325 150.702" fill="#CFCFCF"/>
<path d="M130.726 158.09L130.805 165.299C130.838 168.927 133.795 171.847 137.423 171.835C141.081 171.823 144.03 168.836 143.996 165.178L143.917 158.045C143.91 156.103 143.065 154.36 141.725 153.157L139.325 150.702" stroke="#262525" stroke-width="1.4" stroke-linecap="round" stroke-linejoin="round"/>
<path d="M189.02 191.495L176.35 187.818L184.857 158.508C185.872 155.009 189.531 152.996 193.03 154.011C196.529 155.026 198.542 158.686 197.527 162.185L189.021 191.495H189.02Z" fill="#CFCFCF"/>
<path d="M191.744 184.152L191.737 182.131L197.525 162.185C198.54 158.686 196.528 155.027 193.029 154.011C189.53 152.995 185.87 155.009 184.855 158.508L180.366 173.976L170.914 180.981C165.775 184.789 162.744 190.807 162.744 197.203V199.778" fill="#CFCFCF"/>
<path d="M191.744 184.152L191.737 182.131L197.525 162.185C198.54 158.686 196.528 155.027 193.029 154.011C189.53 152.995 185.87 155.009 184.855 158.508L180.366 173.976L170.914 180.981C165.775 184.789 162.744 190.807 162.744 197.203V199.778" stroke="#262525" stroke-width="1.4" stroke-linecap="round" stroke-linejoin="round"/>
<path d="M197.537 162.189C196.525 165.673 192.89 167.686 189.4 166.696L179.722 163.934C176.223 162.919 174.21 159.259 175.225 155.761C176.24 152.262 179.9 150.249 183.399 151.264L193.004 154.004C196.523 155.004 198.556 158.676 197.537 162.189Z" fill="#CFCFCF"/>
<path d="M186.08 165.748L179.722 163.933C176.223 162.918 174.21 159.259 175.225 155.76C176.24 152.261 179.9 150.248 183.399 151.263L193.004 154.004C196.523 155.003 198.556 158.675 197.537 162.188L196.183 166.812" fill="#CFCFCF"/>
<path d="M186.08 165.748L179.722 163.933C176.223 162.918 174.21 159.259 175.225 155.76C176.24 152.261 179.9 150.248 183.399 151.263L193.004 154.004C196.523 155.003 198.556 158.675 197.537 162.188L196.183 166.812" stroke="#262525" stroke-width="1.4" stroke-linecap="round" stroke-linejoin="round"/>
<path d="M309.06 136.77L299.496 147.174L275.429 125.049C272.556 122.408 272.368 117.938 275.009 115.065C277.65 112.192 282.12 112.004 284.993 114.645L309.06 136.77Z" fill="#CFCFCF" stroke="#262525" stroke-width="1.4" stroke-linecap="round" stroke-linejoin="round"/>
<path d="M219.943 204.381H269.232C271.74 204.381 273.859 202.52 274.181 200.032L287.323 98.6993C287.71 95.7127 285.384 93.0664 282.373 93.0664H233.084C230.576 93.0664 228.457 94.928 228.135 97.4155L214.993 198.748C214.606 201.735 216.932 204.381 219.943 204.381Z" fill="white" stroke="#262525" stroke-width="1.4" stroke-linecap="round" stroke-linejoin="round"/>
<path d="M223.356 204.381H272.645C275.153 204.381 277.272 202.52 277.594 200.032L290.736 98.6993C291.123 95.7127 288.797 93.0664 285.786 93.0664H236.497C233.989 93.0664 231.87 94.928 231.547 97.4155L218.406 198.748C218.019 201.735 220.345 204.381 223.356 204.381Z" fill="#262525" stroke="#262525" stroke-width="1.4" stroke-linecap="round" stroke-linejoin="round"/>
<path d="M236.184 119.053H243.631C244.716 119.053 245.634 118.251 245.78 117.175L247.621 103.575C247.797 102.272 246.785 101.114 245.471 101.114H238.025C236.939 101.114 236.021 101.916 235.875 102.992L234.034 116.593C233.858 117.895 234.871 119.053 236.184 119.053Z" fill="white" stroke="#262525" stroke-width="1.4" stroke-linecap="round" stroke-linejoin="round"/>
<path d="M313.69 152.205L309.808 174.87C307.358 189.175 293.775 198.784 279.471 196.334L267.825 194.339L277.368 138.625L279.261 138.949C284.79 139.896 290.305 137.199 292.953 132.254L295.55 127.402L296.224 127.518C307.864 129.512 315.683 140.564 313.69 152.204V152.205Z" fill="#CFCFCF"/>
<path d="M296.826 125.525L300.316 128.642C309.632 132.227 315.44 141.989 313.69 152.204L309.808 174.87C309.117 178.904 307.54 182.566 305.311 185.689C305.311 185.689 304.142 187.791 302.608 189.669C301.073 191.548 298.564 194.698 298.564 194.698" stroke="#262525" stroke-width="1.4" stroke-linecap="round" stroke-linejoin="round"/>
<path d="M292.006 133.767C289.122 137.738 284.197 139.797 279.261 138.951L277.368 138.627L267.825 194.341L279.471 196.336C283.929 197.1 288.317 196.692 292.319 195.336" stroke="#262525" stroke-width="1.4" stroke-linecap="round" stroke-linejoin="round"/>
<path d="M272.309 180.77L269.923 194.699L244.035 190.264C240.189 189.605 237.605 185.954 238.263 182.107C238.922 178.261 242.574 175.678 246.42 176.336L272.308 180.77H272.309Z" fill="#CFCFCF"/>
<path d="M269.923 194.699L244.035 190.264C240.189 189.605 237.606 185.954 238.264 182.107C238.923 178.261 242.574 175.678 246.421 176.336L272.308 180.77" stroke="#262525" stroke-width="1.4" stroke-linecap="round" stroke-linejoin="round"/>
<path d="M274.695 166.842L272.309 180.77L234.484 174.292C230.637 173.633 228.054 169.981 228.712 166.135C229.371 162.288 233.023 159.705 236.869 160.363L274.694 166.842H274.695Z" fill="#CFCFCF"/>
<path d="M272.309 180.77L234.484 174.292C230.637 173.633 228.054 169.981 228.712 166.135C229.371 162.288 233.023 159.705 236.869 160.363L274.694 166.842" stroke="#262525" stroke-width="1.4" stroke-linecap="round" stroke-linejoin="round"/>
<path d="M277.08 152.914L274.694 166.843L231.543 159.451C227.697 158.792 225.113 155.14 225.772 151.294C226.43 147.448 230.082 144.864 233.928 145.522L277.079 152.914H277.08Z" fill="#CFCFCF"/>
<path d="M274.695 166.842L231.544 159.45C227.698 158.791 225.115 155.139 225.773 151.293C226.432 147.447 230.083 144.863 233.93 145.521L277.081 152.913" stroke="#262525" stroke-width="1.4" stroke-linecap="round" stroke-linejoin="round"/>
<path d="M279.466 138.985L277.08 152.914L239.255 146.435C235.409 145.776 232.825 142.125 233.483 138.278C234.141 134.432 237.794 131.849 241.64 132.507L279.465 138.985H279.466Z" fill="#CFCFCF"/>
<path d="M277.08 152.914L239.255 146.435C235.409 145.776 232.825 142.125 233.483 138.278C234.141 134.432 237.794 131.849 241.64 132.507L279.465 138.985" stroke="#262525" stroke-width="1.4" stroke-linecap="round" stroke-linejoin="round"/>
<path d="M247.9 74.2945L230.607 69L235.646 83.4286L247.9 74.2945Z" fill="#328454" stroke="#328454"/>
<g clip-path="url(#clip1_194_8)">
<path d="M253.096 57.195L256.394 61.0425L264.089 54.4464M262.852 47.1635L263.127 43.5907C263.175 42.9641 263.056 42.336 262.785 41.7695C262.513 41.2029 262.097 40.7178 261.578 40.3629L249.623 32.2557C249.104 31.9003 248.501 31.6879 247.873 31.6397C247.246 31.5914 246.617 31.7091 246.05 31.9809L232.996 38.1649C232.429 38.4365 231.944 38.8523 231.589 39.3706C231.233 39.8889 231.021 40.4915 230.972 41.118L229.873 55.4092C229.825 56.0357 229.944 56.6638 230.215 57.2303C230.487 57.7969 230.903 58.282 231.422 58.637L243.377 66.7441C243.896 67.0995 244.499 67.312 245.127 67.3602C245.754 67.4084 246.383 67.2907 246.95 67.0189L250.679 65.2571M239.523 35.0729L254.893 45.5092M231.627 39.3715L246.5 49.4999M246.5 49.4999L262.746 41.7645M246.5 49.4999L245.126 67.3638" stroke="#010000" stroke-width="3" stroke-linecap="round" stroke-linejoin="round"/>
</g>
</g>
<defs>
<clipPath id="clip0_194_8">
<rect width="326" height="303" fill="white"/>
</clipPath>
<clipPath id="clip1_194_8">
<rect width="43" height="43" fill="white" transform="translate(226.712 26.415) rotate(4.39729)"/>
</clipPath>
</defs>
</svg>
