<?xml version="1.0" encoding="UTF-8"?>
<svg version="1.1" xmlns="http://www.w3.org/2000/svg" width="2000" height="1500">
<path d="M0 0 C1.3135731 0.79224773 2.61931093 1.59759534 3.91796875 2.4140625 C4.64097168 2.85322998 5.36397461 3.29239746 6.10888672 3.74487305 C7.65431395 4.68435701 9.19657205 5.62907123 10.73583984 6.57861328 C14.71652226 9.03198668 18.72336889 11.44165934 22.73046875 13.8515625 C23.55119873 14.3465625 24.37192871 14.8415625 25.2175293 15.3515625 C32.75387521 19.87582889 40.39344772 24.2089137 48.06494141 28.49926758 C52.52107712 30.99456042 56.94023265 33.52674289 61.3046875 36.1796875 C65.37832466 38.64104391 69.50993063 40.84386266 73.79296875 42.9140625 C79.01941281 45.48011891 84.17920689 48.13071098 89.29296875 50.9140625 C96.07728674 54.58692675 103.00891872 57.91628014 109.99487305 61.18701172 C114.59424456 63.34530017 119.15694865 65.56035933 123.69017029 67.85366821 C132.67281431 72.3936567 141.77526861 76.59676593 150.98046875 80.6640625 C151.74472168 81.00300537 152.50897461 81.34194824 153.29638672 81.69116211 C168.90900403 88.60881694 184.65995525 95.17060823 200.48925781 101.57470703 C203.65355262 102.85606271 206.81383596 104.14663461 209.97265625 105.44140625 C219.39989365 109.28596404 228.90351881 112.80192536 238.53442383 116.10180664 C243.24531233 117.72771295 247.92703297 119.42567274 252.60667419 121.1390686 C266.47029728 126.20072891 280.45161542 130.7821192 294.54296875 135.1640625 C295.65211639 135.5107901 296.76126404 135.8575177 297.90402222 136.2147522 C313.06817763 140.95228048 328.23602626 145.49246524 343.63720703 149.39941406 C346.75253496 150.20674929 349.84315293 151.08963185 352.93579102 151.97924805 C365.2052899 155.49842805 377.65062707 158.26326136 390.10546875 161.0390625 C390.75201416 161.1831958 391.39855957 161.3273291 392.06469727 161.47583008 C408.70617744 165.18224058 425.35401728 168.85976408 442.10546875 172.0390625 C442.75151062 172.16216797 443.39755249 172.28527344 444.06317139 172.41210938 C465.01509109 176.402383 485.96000289 180.20762707 507.10546875 183.0390625 C508.8834082 183.28003662 508.8834082 183.28003662 510.69726562 183.52587891 C551.37696955 188.9856353 592.11405937 192.08657789 633.10546875 194.0390625 C633.91089111 194.07773438 634.71631348 194.11640625 635.54614258 194.15625 C644.73031168 194.59229364 653.91188781 194.89317124 663.10546875 195.0390625 C664.118974 195.05549805 664.118974 195.05549805 665.1529541 195.07226562 C706.54561782 195.71302623 747.85587178 193.30898581 789.10546875 190.0390625 C790.17326569 189.9552533 790.17326569 189.9552533 791.26263428 189.86975098 C829.71493353 186.83208238 868.11641702 180.74993146 906.00830078 173.62060547 C908.20915955 173.20735893 910.41073573 172.79792519 912.61279297 172.39111328 C929.34823001 169.29406296 945.893727 165.78144964 962.41796875 161.6796875 C967.30305311 160.46807618 972.19738432 159.34256772 977.11669922 158.2800293 C1001.75183827 152.93573645 1026.07772761 145.61911543 1050.10546875 138.0390625 C1051.07887207 137.73291016 1052.05227539 137.42675781 1053.05517578 137.11132812 C1079.72062854 128.70456988 1106.31749352 120.1032866 1132.2331543 109.57958984 C1135.90100145 108.10577527 1139.60429392 106.74158384 1143.31640625 105.3828125 C1153.02838449 101.77793727 1162.52717281 97.69033172 1172.04296875 93.6015625 C1177.91967177 91.08345417 1183.79922945 88.57221784 1189.68356323 86.07199097 C1191.29824334 85.38333939 1192.91130954 84.69089134 1194.5227356 83.99465942 C1196.8174816 83.00323216 1199.1170909 82.02397012 1201.41796875 81.046875 C1202.09226425 80.75176529 1202.76655975 80.45665558 1203.46128845 80.15260315 C1210.4565123 77.21124264 1217.16288773 76.63621772 1224.47265625 78.7109375 C1230.55120928 81.3258622 1234.66092422 86.0186512 1237.48046875 91.9140625 C1238.90746743 99.04905591 1238.73545498 105.60238589 1235.10546875 112.0390625 C1229.51595207 120.23086105 1221.25715188 125.73477704 1213.3203125 131.44335938 C1211.10353516 133.04045557 1208.90028602 134.65477652 1206.69921875 136.2734375 C1167.23926671 165.18533257 1124.57773489 190.44483551 1080.2421875 211.09375 C1076.86500048 212.66931392 1073.54223942 214.32946015 1070.23046875 216.0390625 C1057.06552022 222.66693314 1043.23613909 228.02214876 1029.60546875 233.6015625 C1028.57607178 234.02397217 1027.5466748 234.44638184 1026.48608398 234.8815918 C1009.02989723 241.98348725 991.42614779 248.41149692 973.48046875 254.1640625 C971.66520767 254.75081684 969.85010328 255.33805621 968.03515625 255.92578125 C963.58653023 257.36445333 959.13439321 258.79185117 954.68060303 260.21444702 C952.16320742 261.02057329 949.6481346 261.83362762 947.13330078 262.64770508 C936.91019512 265.94023548 926.64583744 268.85942805 916.23046875 271.4765625 C914.70267737 271.86369022 913.17492761 272.2509822 911.6472168 272.63842773 C907.83953441 273.60187688 904.02975088 274.55672631 900.21929932 275.50915527 C898.25515943 276.00153718 896.29231809 276.49909115 894.32958984 276.99707031 C879.12656781 280.85100165 863.854458 284.20129823 848.48046875 287.2890625 C847.65310211 287.45600616 846.82573547 287.62294983 845.97329712 287.79495239 C834.80163095 290.03969198 823.60886408 291.9978874 812.34204102 293.7008667 C810.21954662 294.0218126 808.09797411 294.3482537 805.9765625 294.67626953 C715.52174706 308.58511523 623.3895463 308.69332746 491.05908203 289.60888672 C487.62804688 288.94695615 484.19304244 288.30776551 480.7578125 287.66796875 C464.41465804 284.60587209 448.2294101 281.116381 432.10546875 277.0390625 C431.04473145 276.77512695 429.98399414 276.51119141 428.89111328 276.23925781 C388.96827949 266.29567445 350.01151667 253.47588242 311.73046875 238.45947266 C308.6717493 237.26095233 305.60878987 236.07471126 302.54296875 234.89453125 C271.4424849 222.82000552 240.88782937 208.22787888 211.55029297 192.359375 C208.73121766 190.83695047 205.90460257 189.32894767 203.078125 187.8203125 C193.59815945 182.74337798 184.17001509 177.66387441 175.078125 171.9140625 C172.35679574 170.19758675 169.61079961 168.5387353 166.84472656 166.89624023 C138.6993626 150.18078377 111.0198904 132.05180564 85.10546875 112.0390625 C84.06777344 111.24371094 83.03007812 110.44835938 81.9609375 109.62890625 C79.77044636 107.94915984 77.58320114 106.26531329 75.3984375 104.578125 C73.19759786 102.87893291 70.99175134 101.18660279 68.78125 99.5 C58.69325419 91.79554629 48.91262469 83.77272129 39.30151367 75.4831543 C35.7417987 72.4189415 32.13881469 69.42327054 28.48046875 66.4765625 C23.43171026 62.37955819 18.66060531 58.03050397 13.89453125 53.61328125 C9.75946132 49.79673912 5.53136754 46.09447884 1.23828125 42.45703125 C0.63757813 41.94785156 0.036875 41.43867187 -0.58203125 40.9140625 C-1.10152344 40.47835938 -1.62101562 40.04265625 -2.15625 39.59375 C-4.49714812 37.50009281 -6.68195907 35.26778484 -8.89453125 33.0390625 C-9.89578054 32.05851044 -10.89843187 31.07938836 -11.90234375 30.1015625 C-12.94145216 29.0807759 -13.9805142 28.05994209 -15.01953125 27.0390625 C-15.54417969 26.53117187 -16.06882812 26.02328125 -16.609375 25.5 C-20.38595282 21.77122696 -23.52454257 18.5456525 -24.328125 13.1015625 C-24.3385742 4.90938669 -24.3385742 4.90938669 -22.33203125 0.9765625 C-14.76707491 -5.03660792 -8.16911876 -4.51548224 0 0 Z " fill="#010206" transform="translate(335.89453125,1141.9609375)"/>
<path d="M0 0 C4.65575548 4.44268629 8.74427396 9.2957516 12.4375 14.5625 C16.27888516 13.16626417 19.45717618 11.35562857 22.875 9.125 C56.54749998 -12.03447338 98.09139771 -24.44616007 137.8125 -15.875 C152.6079515 -12.32261846 163.95442507 -5.31741057 174.4375 5.5625 C175.02789063 6.12195313 175.61828125 6.68140625 176.2265625 7.2578125 C179.84567306 10.95433719 182.1764388 15.44972213 184.5625 20 C184.88766602 20.60158936 185.21283203 21.20317871 185.54785156 21.82299805 C192.61559674 35.98185581 193.02215715 50.67673314 192.95507812 66.12768555 C192.96051022 68.2499896 192.96763894 70.37228987 192.97631836 72.49458313 C192.994413 78.20876088 192.98754516 83.92264688 192.97480202 89.63682914 C192.96461665 95.6322273 192.97408163 101.62760187 192.98034668 107.6230011 C192.98760084 117.67538915 192.97808764 127.72765919 192.95898438 137.7800293 C192.93715477 149.40126492 192.94432012 161.02222047 192.96629 172.64344949 C192.98443 182.63954558 192.98701111 192.63555734 192.97653532 202.63166457 C192.97030109 208.59468135 192.96946428 214.55756627 192.98268127 220.52057457 C192.99422096 226.11616504 192.98624835 231.71139269 192.96310425 237.30694389 C192.95780992 239.36086168 192.95934325 241.41480995 192.96815491 243.46871567 C192.97906358 246.26912396 192.96540414 249.06836453 192.94543457 251.86869812 C192.9588189 253.09114818 192.9588189 253.09114818 192.97247362 254.33829421 C192.92030353 258.1018945 192.59319321 260.31763446 190.55391026 263.52490425 C186.53801543 267.39124831 182.79447589 267.81343653 177.36547852 267.8371582 C176.16395645 267.84669022 174.96243439 267.85622223 173.72450256 267.86604309 C172.43483078 267.86513168 171.145159 267.86422028 169.81640625 267.86328125 C168.4702898 267.86717207 167.12417457 267.87150754 165.77806091 267.87626648 C162.96129368 267.88371321 160.14465183 267.88344867 157.32788086 267.87817383 C153.72887545 267.87238046 150.1303849 267.88931386 146.53146458 267.9125185 C143.75267059 267.92729266 140.97399957 267.92812259 138.19517326 267.92500877 C136.22657376 267.92576769 134.25799326 267.93960976 132.28944397 267.95368958 C131.08476974 267.94746078 129.88009552 267.94123199 128.63891602 267.93481445 C127.05603539 267.93575859 127.05603539 267.93575859 125.44117737 267.9367218 C121.1350996 267.40023669 117.88187208 266.00040744 114.78658485 262.91897392 C112.93862301 259.69110142 113.02015198 256.75056742 113.05223083 253.13218689 C113.04699514 252.38107323 113.04175944 251.62995957 113.03636509 250.85608488 C113.02238867 248.33740585 113.02970888 245.81923816 113.03686523 243.30053711 C113.0311233 241.49515325 113.02404077 239.68977322 113.01571655 237.88439941 C113.00059105 233.99441408 112.9948303 230.1045661 112.99624443 226.21455193 C112.99827745 220.05722807 112.97871317 213.9000887 112.95606995 207.74281311 C112.91505983 195.77360344 112.89649193 183.80440815 112.87989807 171.83514404 C112.85756062 156.62535495 112.82387728 141.41560858 112.77269894 126.20588881 C112.75283553 120.09230639 112.74320107 113.97882002 112.74174678 107.8652066 C112.73898394 104.04937224 112.72812575 100.23359029 112.71523666 96.41777802 C112.71097962 94.6566498 112.71008157 92.89550952 112.71291161 91.13437843 C112.8468543 69.82148681 112.8468543 69.82148681 102.75 51.6875 C88.65012717 42.64229856 72.69034024 44.23690865 56.8125 47.625 C47.57797569 49.72425362 38.77377261 52.71622704 29.98046875 56.20703125 C26.4375 57.5625 26.4375 57.5625 24.4375 57.5625 C24.44026538 58.5877157 24.44303076 59.6129314 24.44587994 60.66921425 C24.51245753 85.60676085 24.56176728 110.54429593 24.59293652 135.48191261 C24.60841008 147.54152204 24.62950903 159.60107277 24.66381836 171.66064453 C24.69370564 182.17088941 24.71307144 192.6810918 24.71976548 203.191378 C24.72367886 208.75728387 24.73288616 214.32306816 24.75469017 219.88893509 C24.77504462 225.12719045 24.78133586 230.36527406 24.77682304 235.60356522 C24.77764871 237.52644789 24.7836205 239.44933627 24.79511642 241.37218475 C24.8100442 243.99773407 24.80645257 246.62263511 24.79826355 249.24819946 C24.80700207 250.00891207 24.8157406 250.76962468 24.82474393 251.55338919 C24.78474961 256.29812322 23.93157039 259.52574053 21.4375 263.5625 C17.41207922 267.21053758 13.89877142 267.68941706 8.5925293 267.72363281 C7.39085617 267.73324036 6.18918304 267.7428479 4.95109558 267.75274658 C3.00110405 267.7591214 3.00110405 267.7591214 1.01171875 267.765625 C-0.33725485 267.77137993 -1.68622845 267.77713762 -3.03520203 267.78289795 C-5.86388529 267.79339881 -8.69254022 267.79924722 -11.52124023 267.80273438 C-15.13596261 267.80821246 -18.75030704 267.83222915 -22.36491108 267.86070633 C-25.1522682 267.87938379 -27.93953529 267.88454104 -30.72694969 267.88607025 C-32.70442954 267.89054834 -34.68186109 267.90917094 -36.65925598 267.92803955 C-37.87038559 267.92503845 -39.0815152 267.92203735 -40.3293457 267.91894531 C-41.39063187 267.92259094 -42.45191803 267.92623657 -43.54536438 267.92999268 C-47.10557951 267.49635192 -49.49456723 266.3941745 -52.5625 264.5625 C-56.67170065 259.17803018 -56.71054665 253.55358711 -56.70053101 247.00520325 C-56.70335229 246.25252959 -56.70617357 245.49985594 -56.70908034 244.724374 C-56.71740173 242.20661969 -56.71876249 239.6889095 -56.72021484 237.17114258 C-56.72488493 235.36399207 -56.73002882 233.55684274 -56.73561096 231.74969482 C-56.74688092 227.85921654 -56.75532047 223.96874588 -56.76173019 220.07825661 C-56.7724246 213.921176 -56.79267386 207.76415007 -56.81484985 201.60710144 C-56.87672393 184.09901437 -56.93075837 166.59093053 -56.96386719 149.08276367 C-56.9822349 139.41216609 -57.01119776 129.74166016 -57.0518719 120.07112998 C-57.07290543 114.95680338 -57.088394 109.84259211 -57.09067917 104.72821999 C-57.09283271 99.91416787 -57.10877402 95.10035586 -57.13506889 90.28637695 C-57.14223641 88.52483636 -57.14437528 86.76326659 -57.14096642 85.00171471 C-57.1223303 73.53536589 -57.13718993 62.66347914 -64.68359375 53.3203125 C-73.16191575 45.38841042 -83.85314827 45.0413193 -94.8046875 45.2265625 C-100.66126331 45.46833857 -106.27076724 46.35152278 -112 47.5625 C-112.84216064 47.73346191 -113.68432129 47.90442383 -114.55200195 48.08056641 C-121.42227399 49.66508225 -127.8978335 52.14717049 -134.46118164 54.6796875 C-135.43400337 55.05279053 -136.4068251 55.42589355 -137.40912628 55.81030273 C-139.79444167 56.72549654 -142.17886062 57.64295182 -144.5625 58.5625 C-144.56488835 59.58256197 -144.56727671 60.60262394 -144.56973743 61.65359688 C-144.62851397 86.4660531 -144.70438538 111.27841208 -144.79821491 136.09076118 C-144.84319367 148.0897954 -144.88260357 160.0887998 -144.90893555 172.08789062 C-144.93189873 182.5454537 -144.96527802 193.00292257 -145.01120156 203.46041095 C-145.03515635 208.9983319 -145.05387037 214.53615942 -145.06011391 220.07413101 C-145.0661545 225.28618542 -145.08611742 230.49800071 -145.11677551 235.70996666 C-145.12557216 237.62314762 -145.12927496 239.5363598 -145.12750816 241.44956017 C-145.12585728 244.06203813 -145.14253877 246.67378555 -145.16377258 249.28616333 C-145.15892501 250.04298499 -145.15407743 250.79980665 -145.14908296 251.57956231 C-145.2124765 256.3066028 -146.08217536 259.53835749 -148.5625 263.5625 C-152.55381967 267.17963345 -156.03634612 267.68901353 -161.29980469 267.72363281 C-162.47822937 267.73324036 -163.65665405 267.7428479 -164.87078857 267.75274658 C-166.78326385 267.7591214 -166.78326385 267.7591214 -168.734375 267.765625 C-170.04529114 267.77132507 -171.35620728 267.77702515 -172.70684814 267.78289795 C-175.48425687 267.79339958 -178.26163672 267.79924721 -181.0390625 267.80273438 C-184.58418781 267.80820681 -188.12892666 267.832211 -191.67393112 267.86070633 C-195.06907118 267.88390715 -198.46415983 267.8857877 -201.859375 267.890625 C-203.1262616 267.9029718 -204.39314819 267.9153186 -205.69842529 267.92803955 C-212.05459146 267.91202364 -217.02118782 267.83005126 -222.5625 264.5625 C-227.27563847 258.5925246 -226.70787747 251.6814346 -226.69621277 244.44143677 C-226.69847833 243.41304841 -226.70074388 242.38466005 -226.70307809 241.32510841 C-226.70941513 237.87444241 -226.70858891 234.42381571 -226.70776367 230.97314453 C-226.71075533 228.50103708 -226.71415788 226.0289301 -226.71794128 223.55682373 C-226.72586563 217.53594704 -226.72899589 211.51508584 -226.72955366 205.49420537 C-226.73002904 200.5997414 -226.73208487 195.70528066 -226.73525429 190.81081772 C-226.74405928 176.93075931 -226.74867388 163.05070862 -226.74792381 149.1706474 C-226.74788386 148.42259059 -226.7478439 147.67453379 -226.74780273 146.90380859 C-226.74774141 145.78035173 -226.74774141 145.78035173 -226.74767885 144.63419877 C-226.74727237 132.49509559 -226.75684287 120.35602342 -226.7709411 108.21692921 C-226.78530651 95.74930809 -226.7922112 83.2817021 -226.79134732 70.81407249 C-226.79101542 63.81575388 -226.79375951 56.8174678 -226.80452538 49.81915665 C-226.81458463 43.23807149 -226.81429333 36.65704329 -226.80700874 30.07595062 C-226.80596151 27.66004969 -226.80833399 25.2441445 -226.8143692 22.82825089 C-226.8220723 19.53126288 -226.81745529 16.23451329 -226.80973816 12.93753052 C-226.81488172 11.98081204 -226.82002529 11.02409355 -226.82532471 10.0383836 C-226.79107051 3.41911439 -226.53604122 -2.04494405 -222.171875 -7.33569336 C-217.61721131 -10.69048268 -212.23689906 -10.13252867 -206.8125 -10.06640625 C-205.68102539 -10.06881821 -204.54955078 -10.07123016 -203.38378906 -10.07371521 C-200.99670906 -10.07273774 -198.60960611 -10.05936836 -196.22265625 -10.03442383 C-192.57473524 -10.00011507 -188.92923743 -10.01377277 -185.28125 -10.03320312 C-182.95832305 -10.02630443 -180.63540234 -10.01663185 -178.3125 -10.00390625 C-177.22485352 -10.00886612 -176.13720703 -10.01382599 -175.01660156 -10.01893616 C-168.90400989 -9.92415024 -165.18033834 -9.58182219 -160.5625 -5.4375 C-156.27766631 0.56126717 -153.5625 8.14169061 -153.5625 15.5625 C-151.92045311 14.58112042 -150.27853099 13.59953154 -148.63720703 12.61694336 C-147.24285927 11.78227084 -145.84799387 10.9484625 -144.45263672 10.11547852 C-143.42033936 9.49757446 -143.42033936 9.49757446 -142.3671875 8.8671875 C-141.73280762 8.48804199 -141.09842773 8.10889648 -140.44482422 7.71826172 C-138.49542861 6.52131765 -136.59095582 5.26845783 -134.6875 4 C-97.97050018 -18.99768887 -35.22887838 -32.20958033 0 0 Z " fill="#010206" transform="translate(1211.5625,189.4375)"/>
<path d="M0 0 C0.65594147 -0.00525696 1.31188293 -0.01051392 1.98770142 -0.01593018 C4.14439077 -0.0290763 6.30033508 -0.02041196 8.45703125 -0.01025391 C9.96248516 -0.01227621 11.46793811 -0.01518895 12.97338867 -0.01895142 C16.12395583 -0.02336744 19.27426731 -0.0169672 22.42480469 -0.00292969 C26.45662286 0.01416205 30.48784186 0.00431696 34.51963806 -0.01364708 C37.62695809 -0.02450458 40.73413683 -0.02102962 43.84146118 -0.0132637 C45.32776969 -0.01126712 46.81409116 -0.01370191 48.30038452 -0.02070236 C50.38028787 -0.0283496 52.45923043 -0.01666854 54.5390625 0 C56.31180542 0.00358017 56.31180542 0.00358017 58.12036133 0.00723267 C61.67792285 0.43758619 63.46482955 1.17564852 66.26953125 3.38818359 C69.25526766 7.41082677 69.64507794 10.33614005 69.64705467 15.29608059 C69.65141499 15.9821552 69.65577532 16.66822981 69.66026777 17.37509456 C69.67123528 19.67909136 69.66079541 21.98249112 69.65048218 24.28648376 C69.65393816 25.95294535 69.65870233 27.61940466 69.66466391 29.28585917 C69.67721184 33.86927658 69.67098629 38.4525071 69.66170526 43.03592527 C69.65493056 47.97738829 69.66538817 52.91881868 69.67364502 57.86027527 C69.68700174 67.5424925 69.6840959 77.22464006 69.6754071 86.90686005 C69.66863819 94.77473567 69.66771039 102.64259174 69.67097855 110.51046944 C69.67143825 111.62930559 69.67189794 112.74814174 69.67237157 113.90088202 C69.67333073 116.17362797 69.67430337 118.44637392 69.67528935 120.71911985 C69.68384902 142.04313253 69.67400026 163.36710655 69.65788825 184.69111288 C69.64448638 202.99502236 69.64681097 221.29887476 69.66064453 239.6027832 C69.6766933 260.84776184 69.68302306 282.09270656 69.67380774 303.33769041 C69.67285207 305.6024876 69.67190896 307.86728479 69.67097855 310.13208199 C69.67051572 311.24646332 69.67005289 312.36084466 69.66957604 313.50899513 C69.66698391 321.36849726 69.671362 329.22797792 69.67841721 337.08747673 C69.68682467 346.66412423 69.68456799 356.24069794 69.66857497 365.81733697 C69.66068185 370.70512448 69.65761839 375.59278891 69.66752243 380.48057556 C69.67644836 384.95324852 69.6715712 389.42568405 69.65558977 393.8983354 C69.65223303 395.51806426 69.65395606 397.13781308 69.66121714 398.75752913 C69.67032149 400.95678763 69.66100216 403.15522974 69.64705467 405.35444546 C69.64632409 407.18784659 69.64632409 407.18784659 69.64557874 409.05828613 C69.22291055 412.80100954 68.24725802 415.1968706 66.26953125 418.38818359 C60.20304754 422.23997582 53.84720382 421.83980323 46.8359375 421.82177734 C45.64403305 421.8270192 44.4521286 421.83226105 43.22410583 421.83766174 C40.71020281 421.8440687 38.19626975 421.84276221 35.68237305 421.83422852 C31.84824957 421.82571959 28.0156171 421.85449999 24.18164062 421.88623047 C21.73307336 421.88784273 19.28450347 421.88726447 16.8359375 421.88427734 C15.6961293 421.89551132 14.55632111 421.9067453 13.38197327 421.9183197 C6.9887237 421.86268156 1.46095276 421.44697827 -3.73046875 417.38818359 C-8.02937984 411.62523652 -9.21461265 404.2784386 -10.73046875 397.38818359 C-11.22933594 397.87287109 -11.72820312 398.35755859 -12.2421875 398.85693359 C-36.6803226 421.67170963 -67.74097445 428.60526966 -100.10546875 427.77099609 C-129.66842466 426.61551183 -155.16939843 413.12950671 -175.48828125 392.00146484 C-202.14021544 363.12192996 -211.48014154 321.5231634 -212.73046875 283.38818359 C-212.77171875 282.37755859 -212.81296875 281.36693359 -212.85546875 280.32568359 C-213.82186581 234.90502164 -202.25790428 187.53061368 -170.8515625 153.47021484 C-166.74443144 149.43872156 -162.29711048 145.88221046 -157.73046875 142.38818359 C-156.92738281 141.76943359 -156.12429688 141.15068359 -155.296875 140.51318359 C-130.71780072 122.43202551 -99.74250457 118.28036783 -70.01977539 122.21044922 C-57.32888629 124.18133784 -45.51252851 127.90818134 -33.85546875 133.26318359 C-33.19015137 133.56635498 -32.52483398 133.86952637 -31.83935547 134.18188477 C-27.78113978 136.12976813 -24.14691724 138.42620757 -20.47216797 141.02929688 C-19.58133514 141.65861115 -18.69050232 142.28792542 -17.77267456 142.93630981 C-17.09874664 143.41542816 -16.42481873 143.89454651 -15.73046875 144.38818359 C-15.72688622 143.36196223 -15.72688622 143.36196223 -15.72323132 142.31500912 C-15.66405255 125.65542426 -15.58848413 108.99600215 -15.49475384 92.33657742 C-15.44981999 84.28014371 -15.41039979 76.22375396 -15.3840332 68.16723633 C-15.36103356 61.14381389 -15.32761364 54.12053087 -15.28176719 47.09721905 C-15.25786136 43.37964099 -15.23911535 39.66220078 -15.23285484 35.94454765 C-15.22566432 31.7907131 -15.19520662 27.6373573 -15.1628418 23.48364258 C-15.16427689 22.25581055 -15.16571198 21.02797852 -15.16719055 19.76293945 C-15.09933515 13.6089446 -15.02891353 8.6883646 -11.73046875 3.38818359 C-7.96874114 0.21325106 -4.82788241 0.00975022 0 0 Z M-107.73046875 201.38818359 C-108.19026123 201.88036377 -108.65005371 202.37254395 -109.1237793 202.87963867 C-112.97496122 207.1425703 -115.57251353 211.3803271 -117.85546875 216.63818359 C-118.19457275 217.41323242 -118.53367676 218.18828125 -118.88305664 218.98681641 C-131.70525395 249.70582916 -130.83242522 292.88504527 -120.73046875 324.38818359 C-120.44429687 325.28794922 -120.158125 326.18771484 -119.86328125 327.11474609 C-117.33854751 334.15272068 -113.37203657 340.54101375 -108.73046875 346.38818359 C-108.07046875 346.38818359 -107.41046875 346.38818359 -106.73046875 346.38818359 C-106.73046875 347.04818359 -106.73046875 347.70818359 -106.73046875 348.38818359 C-92.59160523 360.59781901 -76.23184309 364.7162982 -57.73046875 363.38818359 C-41.59741644 361.74869204 -29.00430858 356.17391441 -14.73046875 348.38818359 C-14.73046875 299.21818359 -14.73046875 250.04818359 -14.73046875 199.38818359 C-41.93197383 185.78743105 -84.01835927 175.11260282 -107.73046875 201.38818359 Z " fill="#010206" transform="translate(984.73046875,588.61181640625)"/>
<path d="M0 0 C28.08923764 24.13254642 42.20396618 59.47705142 45.18359375 95.91796875 C48.14817306 142.97116346 43.06543599 193.31949135 11.1796875 230.51953125 C-7.82342921 251.9372354 -30.40623611 266.22524348 -59.5 268.8125 C-82.93676697 270.03838665 -104.1565058 266.26718352 -125.4375 256.4375 C-126.20634521 256.08671387 -126.97519043 255.73592773 -127.76733398 255.37451172 C-131.97732082 253.35251739 -135.61466813 251.06256174 -139.27954102 248.15771484 C-140.07449478 247.53037445 -140.86944855 246.90303406 -141.68849182 246.25668335 C-142.28628952 245.78010284 -142.88408722 245.30352234 -143.5 244.8125 C-143.50238835 245.41934159 -143.50477671 246.02618319 -143.50723743 246.65141392 C-143.56643434 261.4333321 -143.64201438 276.21509875 -143.73571491 290.99683475 C-143.78063533 298.14525437 -143.82005856 305.29362459 -143.84643555 312.44213867 C-143.86944615 318.67450583 -143.90287814 324.90671617 -143.94870156 331.13895887 C-143.97259287 334.4373657 -143.98979368 337.73558506 -143.99761391 341.03407478 C-144.00723986 344.72094917 -144.03528296 348.40725873 -144.06762695 352.09399414 C-144.06547432 353.72535057 -144.06547432 353.72535057 -144.0632782 355.3896637 C-144.13629661 361.27688314 -144.54290261 365.66115977 -147.5 370.8125 C-151.08958079 373.20555386 -152.73488471 373.08061148 -157.00341797 373.11889648 C-157.65906738 373.12722 -158.3147168 373.13554352 -158.99023438 373.14411926 C-161.15761251 373.16821355 -163.32468964 373.17699055 -165.4921875 373.18359375 C-167.00049937 373.19256074 -168.50881032 373.2016826 -170.01712036 373.21095276 C-173.17956707 373.22744387 -176.3419079 373.23514303 -179.50439453 373.23803711 C-183.55218388 373.24342035 -187.59897497 373.28109575 -191.64648247 373.32678127 C-194.76237601 373.35655928 -197.87802942 373.36376081 -200.99405289 373.36476326 C-202.48598934 373.36896438 -203.97792658 373.38139461 -205.46972275 373.40228081 C-207.55982074 373.42921344 -209.64760867 373.42436764 -211.73779297 373.41186523 C-213.5195845 373.41947121 -213.5195845 373.41947121 -215.33737183 373.42723083 C-219.41889163 372.6338919 -220.88948183 370.96916111 -223.5 367.8125 C-224.87808611 365.05632779 -224.63064333 362.84432648 -224.63701439 359.75788498 C-224.64208893 358.45829653 -224.64716347 357.15870807 -224.65239179 355.81973815 C-224.65299352 354.36377322 -224.65349258 352.90780825 -224.65390015 351.45184326 C-224.65791316 349.91584164 -224.66235111 348.37984107 -224.6671797 346.84384179 C-224.67916895 342.6071579 -224.68479908 338.37048541 -224.68936086 334.13378787 C-224.69530803 329.57060416 -224.70692004 325.00743414 -224.71765137 320.44425964 C-224.74219516 309.41642411 -224.75680514 298.38858403 -224.76971143 287.36072958 C-224.77342183 284.24751943 -224.77739519 281.13430974 -224.7814641 278.02110004 C-224.80669835 258.70061372 -224.82875784 239.38012671 -224.84119225 220.05962753 C-224.84412208 215.58255765 -224.84708373 211.10548779 -224.85009766 206.62841797 C-224.85121673 204.9592263 -224.85121673 204.9592263 -224.85235842 203.25631359 C-224.86501716 185.22207041 -224.89824605 167.1879257 -224.93989949 149.15372857 C-224.98228625 130.65081257 -225.00588349 112.14794702 -225.01111281 93.64498258 C-225.01453056 83.25119753 -225.0263286 72.85756639 -225.05921555 62.46382904 C-225.08717243 53.61355437 -225.09823459 44.76346515 -225.08702008 35.91314974 C-225.08182228 31.39589994 -225.08479262 26.87903874 -225.10948563 22.36184502 C-225.13189734 18.22754659 -225.13130178 14.09391774 -225.11228175 9.95960823 C-225.10947034 8.46292676 -225.1151435 6.96620066 -225.13009469 5.46959123 C-225.24814163 -7.11499754 -225.24814163 -7.11499754 -222.08699989 -11.05428696 C-218.60701512 -13.92384599 -217.01124657 -14.31626027 -212.59472656 -14.36450195 C-211.57316467 -14.37733719 -210.55160278 -14.39017242 -209.49908447 -14.40339661 C-207.83664703 -14.41447701 -207.83664703 -14.41447701 -206.140625 -14.42578125 C-205.0034906 -14.433853 -203.8663562 -14.44192474 -202.69476318 -14.45024109 C-200.28382903 -14.46409098 -197.87287519 -14.47480907 -195.46191406 -14.48266602 C-191.7789172 -14.49986496 -188.09682097 -14.5437429 -184.4140625 -14.58789062 C-182.07292328 -14.59801853 -179.73177641 -14.60653433 -177.390625 -14.61328125 C-175.74033295 -14.63954338 -175.74033295 -14.63954338 -174.05670166 -14.66633606 C-167.88670671 -14.64888175 -164.16941068 -14.36582497 -159.5 -10.1875 C-156.63801444 -6.41225163 -155.54317882 -2.41578047 -154.3125 2.125 C-153.96832031 3.37925781 -153.62414062 4.63351563 -153.26953125 5.92578125 C-153.01558594 6.87839844 -152.76164062 7.83101562 -152.5 8.8125 C-151.489375 8.02875 -150.47875 7.245 -149.4375 6.4375 C-134.05717477 -4.9832669 -118.13332044 -14.12569248 -99.5 -19.1875 C-98.45585937 -19.48527344 -97.41171875 -19.78304687 -96.3359375 -20.08984375 C-63.30323763 -27.89822705 -26.3141329 -21.90309328 0 0 Z M-144.5 52.8125 C-144.5 99.3425 -144.5 145.8725 -144.5 193.8125 C-133.24715389 199.62945247 -133.24715389 199.62945247 -121.625 203.6875 C-120.944375 203.88601563 -120.26375 204.08453125 -119.5625 204.2890625 C-111.11234364 206.66667304 -102.85439422 206.99428705 -94.125 207 C-93.14789063 207.01224609 -92.17078125 207.02449219 -91.1640625 207.03710938 C-77.29181406 207.06478008 -64.62088303 203.6209669 -54.3046875 193.83984375 C-40.06020414 177.83792413 -35.96851127 154.58995624 -35.5 133.8125 C-35.4693042 132.64944336 -35.4693042 132.64944336 -35.43798828 131.46289062 C-34.79331256 104.07749207 -35.8749306 73.6842004 -54.8125 52.1875 C-80.81745417 29.20637771 -116.70375595 38.91437797 -144.5 52.8125 Z " fill="#010206" transform="translate(531.5,194.1875)"/>
<path d="M0 0 C1.48432909 1.32576369 2.95537052 2.6663609 4.42553711 4.0078125 C5.1512793 4.65105469 5.87702148 5.29429687 6.62475586 5.95703125 C35.27051518 32.74343094 46.31827115 74.12233561 47.68881226 112.02581787 C48.39677302 136.32053545 47.31729339 161.83127918 39.42553711 185.0078125 C38.88993164 186.59722656 38.88993164 186.59722656 38.34350586 188.21875 C28.57141109 215.21457035 11.77128188 240.22166676 -12.57446289 256.0078125 C-13.44844727 256.58789062 -14.32243164 257.16796875 -15.22290039 257.765625 C-43.45194796 275.39889561 -79.14199847 280.46481524 -111.82446289 277.1953125 C-113.17290283 277.06274048 -113.17290283 277.06274048 -114.54858398 276.92749023 C-149.33808406 273.30165534 -182.51934683 260.22442071 -205.37133789 232.73828125 C-207.89469367 229.57704591 -210.24782648 226.31625648 -212.57446289 223.0078125 C-213.19836914 222.13898438 -213.82227539 221.27015625 -214.46508789 220.375 C-241.02068152 181.25932831 -244.15636115 125.88944458 -235.77758789 80.62109375 C-234.18849593 72.90618255 -232.17008613 65.44219017 -229.57446289 58.0078125 C-229.21868164 56.9353125 -228.86290039 55.8628125 -228.49633789 54.7578125 C-219.0111232 28.03889788 -201.14526912 3.63683017 -176.57446289 -10.9921875 C-175.93669922 -11.37213867 -175.29893555 -11.75208984 -174.6418457 -12.14355469 C-123.53875849 -41.98854496 -45.55762149 -39.7890278 0 0 Z M-119.57446289 39.0078125 C-120.46004883 39.45511719 -121.34563477 39.90242187 -122.25805664 40.36328125 C-136.82818531 48.43855316 -143.79170766 61.45944586 -148.57446289 77.0078125 C-148.87223633 77.92691406 -149.17000977 78.84601563 -149.47680664 79.79296875 C-157.91896532 108.98351743 -156.17051778 146.37148415 -146.57446289 175.0078125 C-146.25477539 175.99265625 -145.93508789 176.9775 -145.60571289 177.9921875 C-141.34022614 189.83259037 -132.92881338 200.44833815 -121.76196289 206.3203125 C-106.94332866 213.09296351 -91.3834187 214.50389543 -75.75415039 209.32421875 C-60.54586333 203.02791317 -51.82959696 191.93520817 -45.57446289 177.0078125 C-43.97655701 172.72275301 -42.73021489 168.43002254 -41.57446289 164.0078125 C-41.30657959 163.00500244 -41.03869629 162.00219238 -40.76269531 160.96899414 C-38.15015445 149.77274533 -38.08410272 138.69865286 -38.12841797 127.24023438 C-38.13689492 123.9095197 -38.10812847 120.58054504 -38.07641602 117.25 C-38.00233229 94.79264324 -40.40871737 71.38194926 -54.57446289 53.0078125 C-54.98825195 52.40839844 -55.40204102 51.80898438 -55.82836914 51.19140625 C-62.33755077 42.50602061 -73.11899121 37.17855689 -83.57446289 35.0078125 C-87.54383234 34.59444964 -91.46090134 34.53035712 -95.44946289 34.5703125 C-96.50794434 34.57788574 -97.56642578 34.58545898 -98.65698242 34.59326172 C-106.22024109 34.7529914 -112.75779323 35.51845545 -119.57446289 39.0078125 Z " fill="#010206" transform="translate(1644.574462890625,740.9921875)"/>
<path d="M0 0 C0.71285156 0.31582031 1.42570312 0.63164063 2.16015625 0.95703125 C22.06286007 10.25551117 38.34447729 26.45377559 46.30517578 47.02636719 C54.3082586 69.75894677 55.14427729 96.31116517 45.2421875 118.6484375 C37.30011779 133.68342481 26.42869094 143.55803864 12 152 C11.20335937 152.48210937 10.40671875 152.96421875 9.5859375 153.4609375 C-27.32948534 173.94051837 -84.08772714 172.45398842 -124 163 C-122.25187905 181.39440696 -117.22656856 200.20547877 -103 213 C-78.85322035 231.59772861 -43.78097762 230.28892786 -15.07592773 226.56640625 C-5.62553173 225.15729675 3.63897098 222.829518 12.85571289 220.33764648 C20.02148189 218.45589529 27.59137011 216.51641686 35 218 C38.69577823 220.76285938 39.94007751 223.56655349 41 228 C41.25878906 231.49169922 41.25878906 231.49169922 41.265625 235.3046875 C41.26753845 235.98749786 41.2694519 236.67030823 41.27142334 237.37380981 C41.27277724 238.81089651 41.26913662 240.24799577 41.26074219 241.68505859 C41.25006407 243.86193939 41.26064694 246.03798884 41.2734375 248.21484375 C41.29351245 266.50849973 41.29351245 266.50849973 35.61328125 272.69140625 C32.45673731 275.25179903 28.75587993 276.54859529 25 278 C23.46085937 278.70576172 23.46085937 278.70576172 21.890625 279.42578125 C17.12096276 281.47659524 12.1442556 282.71356612 7.125 284 C6.10921875 284.26200195 5.0934375 284.52400391 4.046875 284.79394531 C-4.58367818 286.97604047 -13.2020759 288.66966874 -22 290 C-23.7325 290.29003906 -23.7325 290.29003906 -25.5 290.5859375 C-45.28402329 293.63303037 -65.17775404 293.49980546 -85 291 C-86.23169922 290.8450708 -86.23169922 290.8450708 -87.48828125 290.68701172 C-114.5874261 287.10003408 -139.86302997 276.64030334 -160 258 C-160.80953125 257.27167969 -161.6190625 256.54335938 -162.453125 255.79296875 C-187.22377974 232.45139025 -198.68486865 195.19288373 -200 162 C-201.36090511 112.04528771 -194.65463576 64.73343962 -159 27 C-158.35289063 26.30003906 -157.70578125 25.60007812 -157.0390625 24.87890625 C-139.42884015 6.44208163 -115.49494477 -3.04336114 -91 -8 C-89.42798828 -8.32291016 -89.42798828 -8.32291016 -87.82421875 -8.65234375 C-59.59504081 -13.88562843 -26.22595899 -12.31515391 0 0 Z M-106.3125 64.9765625 C-113.11490046 73.13314453 -116.8647464 81.92814136 -120 92 C-120.32097656 92.99644531 -120.64195313 93.99289062 -120.97265625 95.01953125 C-122.73165915 100.86923857 -123.30012827 105.89739184 -123 112 C-115.16028403 113.82605559 -107.39731249 114.59662978 -99.375 115.125 C-97.51222412 115.2502002 -97.51222412 115.2502002 -95.61181641 115.37792969 C-62.22342303 117.80672717 -62.22342303 117.80672717 -32.4375 104.875 C-25.48630809 98.00292734 -23.82340151 91.03287792 -23.5625 81.4375 C-23.89986629 71.3471811 -25.55972525 64.36404572 -32.69921875 56.9765625 C-53.08354492 39.46473051 -89.05207255 46.67731303 -106.3125 64.9765625 Z " fill="#010206" transform="translate(1311,723)"/>
<path d="M0 0 C0.74507812 0.60328125 1.49015625 1.2065625 2.2578125 1.828125 C16.83611902 13.9849501 27.0035276 33.07163932 29 52 C30.46223673 73.55820002 29.54446232 95.20803885 15.72265625 112.91796875 C13.55241713 115.36264743 11.31759592 117.69564749 9 120 C8.195625 120.886875 7.39125 121.77375 6.5625 122.6875 C-6.0066283 134.03037188 -20.89599332 139.83166996 -37 144 C-38.08925781 144.29777344 -39.17851563 144.59554687 -40.30078125 144.90234375 C-56.58907147 149.06237721 -73.47112441 149.37534352 -90.1875 149.3125 C-91.12178833 149.31167419 -92.05607666 149.31084839 -93.01867676 149.30999756 C-109.81396336 149.27591476 -126.82813548 149.02639032 -143 144 C-139.88251786 161.63395592 -139.88251786 161.63395592 -133 178 C-132.49855469 178.92683594 -131.99710938 179.85367188 -131.48046875 180.80859375 C-124.00555796 193.71025476 -112.65089201 200.00152221 -98.7265625 204.05078125 C-65.74421258 212.45194585 -28.07785446 207.69261815 4 197 C12.03187546 196.5618977 12.03187546 196.5618977 15 199 C17.63227527 204.11631039 18.43837891 208.32473835 18.36328125 214.09375 C18.36402901 215.21928284 18.36402901 215.21928284 18.36479187 216.36755371 C18.36246543 217.94411892 18.35282207 219.52068886 18.33618164 221.09716797 C18.312564 223.49350634 18.31563481 225.88873069 18.32226562 228.28515625 C18.3166882 229.82552738 18.30957791 231.36589389 18.30078125 232.90625 C18.30169266 233.6137439 18.30260406 234.32123779 18.30354309 235.0501709 C18.22696136 240.49414866 17.68910585 245.72620366 14.375 250.1875 C0.15603779 261.03881327 -24.52925206 265.70473592 -42 268 C-42.6703125 268.08878418 -43.340625 268.17756836 -44.03125 268.26904297 C-85.61821937 273.54752602 -130.86059746 270.90158679 -166 246 C-166.80695313 245.43667969 -167.61390625 244.87335938 -168.4453125 244.29296875 C-193.5217973 225.82265467 -206.67277446 198.22622926 -213.1875 168.4375 C-213.35475586 167.68218994 -213.52201172 166.92687988 -213.69433594 166.14868164 C-216.14529205 154.36261486 -216.18645757 142.46184444 -216.18530273 130.47583008 C-216.18747521 127.9661322 -216.20565863 125.45688545 -216.22460938 122.94726562 C-216.27802153 107.95854959 -215.46657762 92.89280408 -211.75 78.3125 C-211.53239014 77.43932129 -211.31478027 76.56614258 -211.09057617 75.66650391 C-205.97399688 55.81366806 -197.26777394 36.75263194 -184 21 C-183.20851563 20.05769531 -182.41703125 19.11539063 -181.6015625 18.14453125 C-158.32512789 -8.47284271 -126.01496594 -20.90875697 -91.37475586 -23.61181641 C-60.04579984 -25.59107627 -24.46568561 -21.51457178 0 0 Z M-125 50 C-134.97587888 61.69449564 -142 79.43548512 -142 95 C-97.4100753 102.73509858 -97.4100753 102.73509858 -55.61328125 90.31640625 C-49.90168632 85.74529082 -46.42716248 81.24047097 -45 74 C-44.10727886 63.69218496 -44.88780035 55.10469931 -49.625 45.8125 C-56.54527995 37.61743164 -66.50914094 33.88905585 -77 33 C-95.69890547 31.82053058 -111.87181061 36.18551403 -125 50 Z " fill="#010206" transform="translate(1664,195)"/>
<path d="M0 0 C1.3346405 0.00051989 2.66928176 -0.00000278 4.00392151 -0.00151062 C6.79024816 -0.00142134 9.57628284 0.00891556 12.36254883 0.02709961 C15.91065188 0.04976308 19.45832853 0.05033006 23.00648403 0.04358196 C25.75966594 0.0402189 28.512753 0.04691608 31.26591682 0.0567112 C33.20277751 0.06236222 35.1396544 0.06113612 37.07652283 0.05973816 C52.69186195 0.1843197 52.69186195 0.1843197 59.50390625 4.42578125 C65.36546926 10.83260593 67.24566013 19.45550591 69.44140625 27.67578125 C70.05516815 29.9194957 70.6697819 32.16297726 71.28515625 34.40625 C71.5996875 35.55915527 71.91421875 36.71206055 72.23828125 37.89990234 C73.76336322 43.44160646 75.3531536 48.96441421 76.94140625 54.48828125 C79.29777967 62.698715 81.63080553 70.9150292 83.93359375 79.140625 C84.41566126 80.85987137 84.89775774 82.57910962 85.37988281 84.29833984 C86.08678588 86.81941313 86.79272652 89.34072975 87.49499512 91.86309814 C90.18944822 101.54030002 93.03185377 111.14975476 96.08892822 120.71890259 C98.05269131 126.87714468 99.86293973 133.06523582 101.56640625 139.30078125 C102.15816586 141.43899269 102.75064158 143.57700605 103.34375 145.71484375 C103.79596924 147.34728027 103.79596924 147.34728027 104.25732422 149.01269531 C105.85437641 154.74137913 107.49184176 160.45842729 109.12890625 166.17578125 C109.45681152 167.32353027 109.7847168 168.4712793 110.12255859 169.65380859 C111.70660668 175.1945048 113.29675706 180.73333876 114.90126038 186.2681427 C115.46871584 188.22682201 116.03454671 190.18596325 116.59985352 192.14526367 C117.31448522 194.62034127 118.03229965 197.09450266 118.75366211 199.56762695 C119.23331421 201.23184692 119.23331421 201.23184692 119.72265625 202.9296875 C120.14901367 204.3983728 120.14901367 204.3983728 120.58398438 205.89672852 C121.19140625 208.36328125 121.19140625 208.36328125 121.19140625 211.36328125 C121.85140625 211.36328125 122.51140625 211.36328125 123.19140625 211.36328125 C123.30589111 210.38609131 123.42037598 209.40890137 123.53833008 208.40209961 C124.16424918 204.04968339 125.36635053 199.94320351 126.640625 195.7421875 C126.8894342 194.90684479 127.13824341 194.07150208 127.39459229 193.21084595 C127.93457271 191.3997195 128.47677763 189.5892551 129.02096558 187.77938843 C130.50945442 182.82850713 131.98171131 177.87278674 133.45703125 172.91796875 C133.765233 171.88469955 134.07343475 170.85143036 134.39097595 169.78684998 C137.39307865 159.71345277 140.33209098 149.62207265 143.26403809 139.52807617 C148.60787964 121.13198649 154.04021098 102.76402932 159.53076172 84.41122437 C163.10047888 72.47283381 166.60344695 60.52523021 169.91479492 48.51220703 C171.83115429 41.57969513 173.85469187 34.68393035 175.94140625 27.80078125 C176.22363037 26.86556641 176.50585449 25.93035156 176.79663086 24.96679688 C182.65783193 5.80443665 182.65783193 5.80443665 189.62890625 2.05078125 C194.48385195 0.74823484 199.15876335 0.23688956 204.17749023 0.21801758 C205.91475624 0.2084478 205.91475624 0.2084478 207.68711853 0.19868469 C209.54355736 0.19701546 209.54355736 0.19701546 211.4375 0.1953125 C212.72197525 0.1919841 214.0064505 0.1886557 215.32984924 0.18522644 C218.04225505 0.17925795 220.75462911 0.17738425 223.46704102 0.17797852 C226.92792035 0.17808014 230.38859457 0.16441702 233.84942532 0.14720631 C237.17045305 0.13336055 240.49144381 0.13399637 243.8125 0.1328125 C245.04810165 0.12562698 246.28370331 0.11844147 247.55674744 0.11103821 C261.93700261 0.14913482 261.93700261 0.14913482 266.09179688 4.22973633 C268.44310275 8.79191707 268.02769562 13.37456707 266.66113281 18.25836182 C264.90679693 23.65259043 262.78937732 28.90830535 260.69140625 34.17578125 C260.04052948 35.84572153 259.39128708 37.51629972 258.74365234 39.1875 C257.47369748 42.45852327 256.19562494 45.72615027 254.90917969 48.99072266 C252.83275958 54.26445595 250.81981643 59.56145905 248.81640625 64.86328125 C248.20507802 66.46769609 247.59311418 68.07186892 246.98046875 69.67578125 C245.04830079 74.73733701 243.11977191 79.80027588 241.19140625 84.86328125 C240.5247531 86.6132864 239.85808647 88.36328641 239.19140625 90.11328125 C238.86140625 90.97953125 238.53140625 91.84578125 238.19140625 92.73828125 C221.19140625 137.36328125 204.19140625 181.98828125 187.19140625 226.61328125 C186.86140625 227.47961182 186.53140625 228.34594238 186.19140625 229.23852539 C185.52495618 230.98779412 184.85828964 232.7369804 184.19140625 234.48608398 C182.51963732 238.87162041 180.85170222 243.25854361 179.19140625 247.6484375 C177.54075752 252.01003212 175.87731464 256.36655231 174.20458984 260.71972656 C173.51370767 262.52234636 172.82669245 264.32645184 172.14306641 266.13183594 C171.10816583 268.85938451 170.05778552 271.58051812 169.00390625 274.30078125 C168.69517578 275.12328369 168.38644531 275.94578613 168.06835938 276.79321289 C165.58457054 283.131225 163.23769573 287.85995542 156.87036133 291.00219727 C150.91990781 293.09817426 144.80344855 292.79211556 138.56640625 292.76171875 C136.61420166 292.76602402 136.61420166 292.76602402 134.62255859 292.77041626 C131.879122 292.77481717 129.1359802 292.76848148 126.39257812 292.75439453 C122.89582853 292.73730347 119.39976997 292.74715678 115.90304565 292.76511192 C112.5407788 292.7786284 109.17869266 292.76913372 105.81640625 292.76171875 C104.57036621 292.76779144 103.32432617 292.77386414 102.04052734 292.78012085 C94.72034032 292.72119841 88.38470358 292.42925628 82.2734375 287.9609375 C77.86995869 282.63611543 75.60241492 276.79039908 73.19140625 270.36328125 C72.58960877 268.79386123 71.9866621 267.22488159 71.3828125 265.65625 C69.30102135 260.23203896 67.24587145 254.79788735 65.19140625 249.36328125 C63.81864721 245.73742772 62.44362138 242.11244452 61.06640625 238.48828125 C60.73294189 237.61018799 60.39947754 236.73209473 60.0559082 235.82739258 C58.11448224 230.73216731 56.11717844 225.66544399 54.06640625 220.61328125 C52.09898778 215.73865068 50.28192164 210.8363175 48.56640625 205.8671875 C45.07262379 195.86858415 41.28765463 185.98439252 37.48779297 176.09887695 C36.3223842 173.06633663 35.16092911 170.03230455 34 166.99804688 C30.03025023 156.64025983 26.01157706 146.30574187 21.84072876 136.02702332 C19.51868857 130.28093364 17.4231144 124.47663481 15.39590454 118.62098694 C13.71693482 113.79169758 11.92563539 109.01969388 10.0546875 104.26171875 C9.4332988 102.67218483 8.81230525 101.08249639 8.19165039 99.49267578 C7.86601105 98.65883362 7.5403717 97.82499146 7.2048645 96.96588135 C3.91884161 88.52724711 0.68316238 80.06899386 -2.55859375 71.61328125 C-2.94989471 70.59278687 -3.34119568 69.57229248 -3.74435425 68.52087402 C-25.04550992 12.92940399 -25.04550992 12.92940399 -23.30859375 5.11328125 C-17.83348642 -1.27434397 -7.54611334 -0.05494867 0 0 Z " fill="#010206" transform="translate(331.80859375,717.63671875)"/>
<path d="M0 0 C1.42179565 -0.02658691 1.42179565 -0.02658691 2.87231445 -0.05371094 C8.19659602 -0.04803624 11.96813348 0.3129932 16.5625 3.3125 C20.28111477 7.28757096 20.68307989 11.12266361 20.72363281 16.41308594 C20.73324036 17.42804138 20.7428479 18.44299683 20.75274658 19.4887085 C20.7591214 21.12625092 20.7591214 21.12625092 20.765625 22.796875 C20.77132507 23.92643616 20.77702515 25.05599731 20.78289795 26.2197876 C20.79234205 28.61038274 20.79887959 31.00099087 20.80273438 33.39160156 C20.81242615 37.03473862 20.8434503 40.67730814 20.875 44.3203125 C20.88153179 46.64582999 20.88678157 48.97135151 20.890625 51.296875 C20.9029718 52.38047302 20.9153186 53.46407104 20.92803955 54.58050537 C20.90978045 60.83234886 20.56176093 65.75462784 17.5625 71.3125 C12.90902886 74.80924383 8.55083327 74.65432582 2.9921875 74.4296875 C1.28721771 74.39214688 -0.41778101 74.35590309 -2.12280273 74.32080078 C-3.45491287 74.2865097 -3.45491287 74.2865097 -4.81393433 74.25152588 C-28.23200625 73.70601858 -50.07787807 75.90594616 -72.19140625 84.17578125 C-75.4375 85.3125 -75.4375 85.3125 -78.4375 85.3125 C-78.43381283 86.27679271 -78.43012566 87.24108541 -78.42632675 88.23459911 C-78.33757087 111.68633174 -78.27181713 135.1380426 -78.23025131 158.58990765 C-78.20961667 169.93101148 -78.18147875 181.27200444 -78.13574219 192.61303711 C-78.09590214 202.49664613 -78.07007375 212.38017487 -78.06114602 222.26386195 C-78.05592649 227.4983478 -78.04363983 232.73260392 -78.01457977 237.96701622 C-77.98745551 242.89259324 -77.97904899 247.81784561 -77.98506927 252.74349022 C-77.9839677 254.55230981 -77.97599605 256.36114011 -77.9606781 258.16989517 C-77.94079662 260.63833694 -77.94555356 263.10555062 -77.95648193 265.57402039 C-77.94483057 266.29095446 -77.9331792 267.00788853 -77.92117476 267.74654788 C-77.97854599 272.53577282 -79.04434589 274.95264981 -82.4375 278.3125 C-86.14410654 280.33793585 -89.32617064 280.5688793 -93.50952148 280.5871582 C-94.71104355 280.59669022 -95.91256561 280.60622223 -97.15049744 280.61604309 C-98.44016922 280.61513168 -99.729841 280.61422028 -101.05859375 280.61328125 C-102.4047102 280.61717207 -103.75082543 280.62150754 -105.09693909 280.62626648 C-107.91370632 280.63371321 -110.73034817 280.63344867 -113.54711914 280.62817383 C-117.14612455 280.62238046 -120.7446151 280.63931386 -124.34353542 280.6625185 C-127.12232941 280.67729266 -129.90100043 280.67812259 -132.67982674 280.67500877 C-134.64842624 280.67576769 -136.61700674 280.68960976 -138.58555603 280.70368958 C-139.79023026 280.69746078 -140.99490448 280.69123199 -142.23608398 280.68481445 C-143.81896461 280.68575859 -143.81896461 280.68575859 -145.43382263 280.6867218 C-149.79045452 280.14393826 -153.1091004 278.77711065 -156.08855009 275.49215502 C-157.64131494 272.98317254 -157.81484693 271.63737114 -157.82061005 268.71128941 C-157.82966669 267.78679227 -157.83872333 266.86229514 -157.84805441 265.90978295 C-157.84272648 264.89763456 -157.83739856 263.88548617 -157.83190918 262.84266663 C-157.83800028 261.76471893 -157.84409139 260.68677124 -157.85036707 259.57615846 C-157.86706153 255.95178931 -157.86221196 252.327769 -157.85742188 248.70336914 C-157.86475841 246.10993584 -157.87334342 243.51650582 -157.88308716 240.92308044 C-157.90415251 234.60259656 -157.9086814 228.28220438 -157.90689927 221.96168954 C-157.90559226 216.82499296 -157.90939269 211.68832502 -157.91682434 206.55163383 C-157.91892351 205.0726884 -157.92102111 203.59374297 -157.92311716 202.11479753 C-157.92416069 201.37871424 -157.92520422 200.64263095 -157.92627937 199.88424211 C-157.94518602 185.95973595 -157.94413017 172.03528247 -157.93731004 158.11076879 C-157.93173362 145.36879461 -157.95256335 132.62702143 -157.98567051 119.88509423 C-158.01939277 106.80503258 -158.03457772 93.72506725 -158.02995348 80.6449613 C-158.02770738 73.30010419 -158.03297242 65.95543288 -158.05784607 58.61061287 C-158.08103227 51.70521768 -158.07829433 44.80024828 -158.05791855 37.89484596 C-158.05449597 35.35716173 -158.05965084 32.81944965 -158.07390213 30.28180313 C-158.09198545 26.82381286 -158.07942503 23.3672624 -158.05895996 19.90931702 C-158.07147781 18.89939935 -158.08399566 17.88948169 -158.09689283 16.84896046 C-158.03693937 12.14065426 -157.9928356 10.02564959 -155.02365875 6.21269894 C-151.52109273 3.6391631 -149.82970651 3.18093159 -145.5480957 3.11962891 C-144.02059441 3.09553452 -144.02059441 3.09553452 -142.4622345 3.07095337 C-137.7929447 3.02648941 -133.12379785 2.98542143 -128.4543457 2.96240234 C-125.9936374 2.94586031 -123.5329768 2.91859384 -121.07250977 2.88037109 C-117.52334679 2.82551541 -113.9753115 2.8037119 -110.42578125 2.7890625 C-109.33074783 2.76639313 -108.23571442 2.74372375 -107.10749817 2.72036743 C-100.19932636 2.73940683 -96.54184679 3.54360917 -91.4375 8.3125 C-89.80078125 11.484375 -89.80078125 11.484375 -88.75 15.0625 C-88.55704346 15.7006665 -88.36408691 16.33883301 -88.1652832 16.99633789 C-85.90750039 24.67391119 -84.1495259 32.49839295 -82.4375 40.3125 C-81.7775 40.3125 -81.1175 40.3125 -80.4375 40.3125 C-78.97337878 38.82572339 -78.97337878 38.82572339 -77.4375 36.875 C-57.58880901 13.68422963 -30.44019587 0.35008851 0 0 Z " fill="#010206" transform="translate(785.4375,176.6875)"/>
<path d="M0 0 C1.92459045 -0.00287018 1.92459045 -0.00287018 3.88806152 -0.00579834 C6.59453182 -0.00873472 9.30086944 -0.00450016 12.00732422 0.00488281 C15.46035069 0.01627659 18.91306615 0.0097091 22.36608124 -0.00226212 C25.68157847 -0.01126486 28.99699396 -0.00494448 32.3125 0 C33.5449646 -0.00404846 34.7774292 -0.00809692 36.04724121 -0.01226807 C49.99068364 0.0636354 49.99068364 0.0636354 55.53125 4.640625 C58.53690015 8.35348695 58.78051625 11.27320371 58.78767776 15.95495319 C58.79151891 16.8991173 58.79536005 17.84328141 58.7993176 18.81605655 C58.79845112 19.85018639 58.79758463 20.88431622 58.79669189 21.94978333 C58.79966302 23.0508212 58.80263414 24.15185908 58.8056953 25.28626174 C58.81439155 28.98878173 58.81589133 32.69126942 58.81738281 36.39379883 C58.82201029 39.04309746 58.8270142 41.69239315 58.83242798 44.34169006 C58.84600543 51.54830326 58.85203499 58.75491088 58.85643864 65.96153474 C58.85920183 70.46159308 58.86343931 74.96164927 58.86794281 79.46170616 C58.8801343 91.92191972 58.89043412 104.38213156 58.8938179 116.84235096 C58.89414725 118.03838139 58.89414725 118.03838139 58.89448325 119.25857405 C58.89481067 120.45745706 58.89481067 120.45745706 58.8951447 121.68055993 C58.89558817 123.30014217 58.89603473 124.91972441 58.89648438 126.53930664 C58.8967058 127.34267445 58.89692723 128.14604226 58.89715537 128.97375455 C58.90110375 141.99238143 58.91855949 155.01095236 58.9418439 168.02955762 C58.96555856 181.39663698 58.97801979 194.76368825 58.97918582 208.13078898 C58.98010247 215.63551582 58.98585238 223.14016973 59.00400543 230.64487648 C59.01940791 237.03494839 59.02452601 243.42492483 59.01626733 249.81501178 C59.01236141 253.07464334 59.0149206 256.33404248 59.02732468 259.59365845 C59.03999153 263.12944369 59.03419553 266.66473422 59.02374268 270.20051575 C59.03582728 271.74167225 59.03582728 271.74167225 59.04815602 273.31396323 C59.00827487 279.07530588 58.43969722 283.18251477 55.65625 288.265625 C51.62325619 292.0465567 47.90865966 292.39377319 42.53588867 292.42675781 C41.27415329 292.43636536 40.01241791 292.4459729 38.71244812 292.45587158 C37.33304017 292.46072003 35.95363012 292.46499874 34.57421875 292.46875 C33.1579844 292.47450449 31.74175007 292.48026219 30.32551575 292.48602295 C27.35559731 292.49652501 24.38570587 292.50237266 21.41577148 292.50585938 C17.6194546 292.5113382 13.82349744 292.53535608 10.02729321 292.56383133 C7.10096715 292.58250298 4.17472691 292.58766573 1.24834633 292.58919525 C-0.15063122 292.59221282 -1.54960757 292.60021105 -2.94852638 292.61338043 C-4.9106798 292.63053146 -6.87298218 292.62670283 -8.83520508 292.62207031 C-9.94978592 292.62571594 -11.06436676 292.62936157 -12.21272278 292.63311768 C-17.2700018 292.03953836 -20.43431101 290.37169944 -23.65625 286.453125 C-26.95848128 280.21557702 -26.48822058 273.58676031 -26.47746277 266.6960907 C-26.47972833 265.63150708 -26.48199388 264.56692345 -26.48432809 263.47007972 C-26.49065823 259.9028123 -26.48983935 256.33558296 -26.48901367 252.76831055 C-26.49200577 250.21063182 -26.49540842 247.65295355 -26.49919128 245.09527588 C-26.50711208 238.86865799 -26.51024571 232.64205404 -26.51080366 226.41543158 C-26.51127926 221.35272117 -26.51333618 216.29001388 -26.51650429 211.22730446 C-26.5253084 196.86524782 -26.52992405 182.50319865 -26.52917381 168.14113929 C-26.52913386 167.36729038 -26.5290939 166.59344146 -26.52905273 165.79614258 C-26.52901185 165.02134593 -26.52897097 164.24654927 -26.52892885 163.44827393 C-26.52852246 150.89349494 -26.53809095 138.33874594 -26.5521911 125.78397562 C-26.5665636 112.88464852 -26.5734608 99.98533605 -26.57259732 87.08600074 C-26.57226566 79.84730087 -26.57499956 72.60863245 -26.58577538 65.3699398 C-26.595846 58.5614733 -26.59553609 51.75308419 -26.58825874 44.9446106 C-26.5872128 42.44730851 -26.58957635 39.95000229 -26.5956192 37.45270729 C-26.60334058 34.0404302 -26.59869313 30.62838241 -26.59098816 27.21611023 C-26.59613172 26.23088102 -26.60127529 25.2456518 -26.60657471 24.23056716 C-26.57180942 17.25009407 -26.19108276 10.48135239 -22.65625 4.328125 C-16.50140523 -1.16133115 -7.73910215 -0.02542179 0 0 Z " fill="#010206" transform="translate(662.34375,717.734375)"/>
<path d="M0 0 C1.75437378 0.13365967 1.75437378 0.13365967 3.54418945 0.27001953 C19.33973081 1.54575099 34.68448695 3.86005401 49.9375 8.1875 C51.03964844 8.49558594 52.14179687 8.80367187 53.27734375 9.12109375 C61.50409099 11.62127797 70.52165626 15.37485338 74.9375 23.1875 C78.08414798 32.40934039 78.459469 41.54866394 78.375 51.1875 C78.37043793 52.29582687 78.37043793 52.29582687 78.36578369 53.42654419 C78.12632259 93.12759851 67.67305563 133.47544279 52.9375 170.1875 C52.60669434 171.01378906 52.27588867 171.84007812 51.93505859 172.69140625 C40.41926793 201.14029012 25.49223471 227.19685175 5.8828125 250.8125 C4.6372427 252.33319566 3.43848413 253.89424018 2.3046875 255.5 C1.62792969 256.3353125 1.62792969 256.3353125 0.9375 257.1875 C0.2775 257.1875 -0.3825 257.1875 -1.0625 257.1875 C-1.31902344 257.76757812 -1.57554687 258.34765625 -1.83984375 258.9453125 C-5.79595718 266.20029367 -14.349078 273.35838289 -22.234375 275.8828125 C-25.56360955 276.47106071 -27.81629371 276.2891939 -30.9375 275 C-33.17870749 273.08838185 -33.98258487 271.89050844 -35.0625 269.1875 C-35.37689881 262.58897673 -32.97444962 256.39350523 -30.66796875 250.328125 C-30.32445374 249.39795059 -29.98093872 248.46777618 -29.62701416 247.50941467 C-28.89097035 245.51697929 -28.15083405 243.52605175 -27.4069519 241.53652954 C-25.43776195 236.2618264 -23.50710398 230.97311074 -21.578125 225.68359375 C-21.19043442 224.62121994 -20.80274384 223.55884613 -20.40330505 222.46427917 C-14.85071982 207.1819271 -9.84516319 191.72623108 -5.0625 176.1875 C-4.8622522 175.53819519 -4.66200439 174.88889038 -4.45568848 174.21990967 C12.11951704 125.51364464 12.11951704 125.51364464 6.53125 76.5234375 C0.79157902 68.11088052 -9.48513215 65.10227602 -19.0625 63.1875 C-32.57309532 60.96342492 -46.02404323 60.86649066 -59.6875 60.9375 C-60.76952698 60.94093414 -61.85155396 60.94436829 -62.96636963 60.94790649 C-92.30131616 61.05672646 -121.05891112 63.5399626 -150.16015625 67.06640625 C-150.97123337 67.16428436 -151.78231049 67.26216248 -152.6179657 67.36300659 C-156.78692704 67.87548282 -160.92004841 68.48756853 -165.0625 69.1875 C-170.00041959 69.5436329 -174.49468864 69.827423 -179.125 67.9375 C-181.30614098 65.96743718 -182.29298171 65.03471769 -183.0625 62.1875 C-183.0625 55.24509163 -180.9313522 51.09593636 -176.0625 46.1875 C-172.87792919 43.60421179 -169.51856509 41.38910415 -166.0625 39.1875 C-164.82886719 38.35798828 -164.82886719 38.35798828 -163.5703125 37.51171875 C-128.06337116 14.03828489 -85.20231897 3.0086934 -43.0625 0.1875 C-42.31484375 0.13255371 -41.5671875 0.07760742 -40.796875 0.02099609 C-27.14105011 -0.97670318 -13.66061108 -1.04197033 0 0 Z " fill="#010206" transform="translate(1610.0625,1122.8125)"/>
<path d="M0 0 C1.28483276 -0.00945648 2.56966553 -0.01891296 3.89343262 -0.02865601 C5.28768219 -0.02328598 6.68192893 -0.01713295 8.07617188 -0.01025391 C9.51436511 -0.01227639 10.95255734 -0.01518928 12.39074707 -0.01895142 C15.40008337 -0.0233666 18.40915193 -0.01696998 21.41845703 -0.00292969 C25.26868249 0.01416208 29.11828051 0.00431653 32.96848297 -0.01364708 C35.93683569 -0.02450691 38.90504057 -0.02102857 41.87339783 -0.0132637 C43.29272029 -0.01126776 44.71205633 -0.01369966 46.13136292 -0.02070236 C48.11752045 -0.02835215 50.10372528 -0.01461801 52.08984375 0 C53.21837769 0.00238678 54.34691162 0.00477356 55.50964355 0.00723267 C59.14292121 0.46323714 60.79748142 0.93643328 63.54492188 3.38818359 C66.62010383 9.7592657 66.97473742 16.06483549 66.9258728 23.02149963 C66.93055277 24.05668368 66.93523275 25.09186772 66.94005454 26.15842098 C66.95196847 29.60826921 66.9425612 33.05771756 66.93310547 36.50756836 C66.93717273 38.98849722 66.94251548 41.46942427 66.94903564 43.9503479 C66.96127873 49.97774614 66.95950956 56.0049889 66.95079772 62.03238101 C66.94400972 66.93246946 66.94310927 71.83252652 66.94636917 76.73261833 C66.94682887 77.43125553 66.94728857 78.12989273 66.9477622 78.84970076 C66.94872142 80.26916211 66.94969406 81.68862346 66.95067997 83.10808479 C66.95922444 96.40273735 66.94941424 109.69732775 66.93327887 122.99197011 C66.91987359 134.38994152 66.92220732 145.78782126 66.93603516 157.18579102 C66.95210259 170.43593301 66.95840365 183.68602061 66.94919837 196.936171 C66.94824276 198.34996886 66.94729965 199.76376674 66.94636917 201.17756462 C66.94590634 201.87310393 66.94544352 202.56864324 66.94496667 203.2852595 C66.94238048 208.177807 66.94673968 213.07031988 66.95380783 217.96286201 C66.96311739 224.55142498 66.95645576 231.13984185 66.93912506 237.72839737 C66.93516029 240.14549027 66.93629408 242.56259774 66.94291306 244.97968483 C66.95111857 248.28060318 66.94081831 251.58096804 66.9258728 254.8818512 C66.93256497 255.83681931 66.93925713 256.79178742 66.94615209 257.77569395 C66.89457315 263.65455603 66.0206154 268.03159981 63.54492188 273.38818359 C59.66984043 277.14216875 55.93157101 277.51558184 50.69995117 277.54931641 C49.49827805 277.55892395 48.29660492 277.56853149 47.05851746 277.57843018 C45.10852592 277.58480499 45.10852592 277.58480499 43.11914062 277.59130859 C41.77016702 277.59706352 40.42119343 277.60282121 39.07221985 277.60858154 C36.24353658 277.6190824 33.41488165 277.62493081 30.58618164 277.62841797 C26.97145927 277.63389605 23.35711484 277.65791275 19.7425108 277.68638992 C16.95515367 277.70506739 14.16788659 277.71022464 11.38047218 277.71175385 C9.40299234 277.71623194 7.42556079 277.73485453 5.44816589 277.75372314 C4.23703629 277.75072205 3.02590668 277.74772095 1.77807617 277.74462891 C0.71679001 277.74827454 -0.34449615 277.75192017 -1.4379425 277.75567627 C-5.8624873 277.21675856 -9.261986 275.70469904 -12.26757812 272.38818359 C-14.15254959 269.2134948 -14.58069962 266.6385239 -14.58650589 263.02492905 C-14.59034703 262.12804013 -14.59418818 261.23115121 -14.59814572 260.30708385 C-14.59727924 259.3206235 -14.59641276 258.33416315 -14.59552002 257.31781006 C-14.59849114 256.27071279 -14.60146226 255.22361552 -14.60452342 254.14478803 C-14.61322918 250.61881554 -14.61472026 247.09287693 -14.61621094 243.56689453 C-14.62083779 241.0458214 -14.62586227 238.52474897 -14.6312561 236.00367737 C-14.64439504 229.14203333 -14.65086456 222.28040048 -14.65526676 215.41874599 C-14.65802904 211.13427799 -14.66226639 206.84981224 -14.66677094 202.56534576 C-14.67896426 190.70308448 -14.68926319 178.840825 -14.69264603 166.97855759 C-14.69286559 166.21924779 -14.69308516 165.459938 -14.69331138 164.67761882 C-14.69352966 163.9164897 -14.69374793 163.15536058 -14.69397283 162.37116694 C-14.69441629 160.82882484 -14.69486286 159.28648273 -14.6953125 157.74414062 C-14.69553393 156.97908531 -14.69575536 156.21402999 -14.6959835 155.42579117 C-14.69993091 143.0311192 -14.71738289 130.63650604 -14.74067202 118.24185678 C-14.76438924 105.51665602 -14.77684806 92.79148476 -14.77801394 80.06626153 C-14.77893054 72.92145857 -14.78467884 65.77673223 -14.80283356 58.63195038 C-14.81985026 51.91132752 -14.82148439 45.19087487 -14.81269455 38.4702282 C-14.81192255 36.00272419 -14.81628821 33.53521245 -14.8261528 31.06772804 C-14.83882558 27.70047497 -14.83302045 24.33374093 -14.8225708 20.9664917 C-14.83062721 19.98895424 -14.83868361 19.01141677 -14.84698415 18.00425696 C-14.80602306 12.36454665 -14.17966818 8.3644712 -11.45507812 3.38818359 C-7.75763222 0.29102181 -4.73655644 0.01001753 0 0 Z " fill="#010206" transform="translate(855.455078125,179.61181640625)"/>
<path d="M0 0 C8.75904016 7.28430381 15.32796194 17.49831678 16.51782227 29.05639648 C17.23344196 43.19406363 15.67877736 55.68538021 6.296875 66.91015625 C-3.38741886 77.35103557 -14.62255032 81.30295198 -28.703125 81.91015625 C-43.08775673 82.26521597 -55.74429618 79.97858023 -66.703125 69.91015625 C-76.05007526 60.8209344 -79.73839117 52.10330094 -79.9440918 39.13354492 C-79.9965346 24.77413903 -77.42000341 14.17024861 -67.34375 3.37890625 C-49.91777824 -12.91283066 -19.31258021 -13.78215951 0 0 Z " fill="#010206" transform="translate(710.703125,594.08984375)"/>
<path d="M0 0 C5.76695206 4.93526801 10.32396478 9.83155334 13 17 C13.35320312 17.85078125 13.70640625 18.7015625 14.0703125 19.578125 C17.07856196 30.65050535 16.52718225 44.80482607 11.671875 55.23828125 C5.49560262 65.44067512 -2.95058415 72.38822329 -14.375 75.875 C-19.97196571 77.10183165 -25.48089639 77.27572388 -31.1875 77.3125 C-32.01878418 77.31813965 -32.85006836 77.3237793 -33.70654297 77.32958984 C-46.28529419 77.1823678 -56.59079172 73.46358419 -65.875 64.75 C-76.22054647 53.79262014 -76.53907027 42.28721352 -76.33984375 27.96875 C-75.97580528 18.24091694 -72.73453586 10.83709075 -65.953125 3.74609375 C-48.99238582 -11.41680707 -18.46011074 -14.76808859 0 0 Z " fill="#010206" transform="translate(912,62)"/>
</svg>
