<svg width="2000" height="1500" viewBox="0 0 2000 1500" fill="none" xmlns="http://www.w3.org/2000/svg">
<path d="M335.895 1141.96C337.208 1142.75 338.514 1143.56 339.813 1144.37C340.536 1144.81 341.259 1145.25 342.004 1145.71C343.549 1146.65 345.091 1147.59 346.631 1148.54C350.611 1150.99 354.618 1153.4 358.625 1155.81C359.446 1156.31 360.267 1156.8 361.112 1157.31C368.649 1161.84 376.288 1166.17 383.96 1170.46C388.416 1172.96 392.835 1175.49 397.2 1178.14C401.273 1180.6 405.405 1182.8 409.688 1184.87C414.914 1187.44 420.074 1190.09 425.188 1192.87C431.972 1196.55 438.904 1199.88 445.89 1203.15C450.489 1205.31 455.052 1207.52 459.585 1209.81C468.568 1214.35 477.67 1218.56 486.875 1222.62C487.64 1222.96 488.404 1223.3 489.191 1223.65C504.804 1230.57 520.555 1237.13 536.384 1243.54C539.548 1244.82 542.709 1246.11 545.868 1247.4C555.295 1251.25 564.798 1254.76 574.429 1258.06C579.14 1259.69 583.822 1261.39 588.502 1263.1C602.365 1268.16 616.347 1272.74 630.438 1277.12C631.547 1277.47 632.656 1277.82 633.799 1278.18C648.963 1282.91 664.131 1287.45 679.532 1291.36C682.647 1292.17 685.738 1293.05 688.831 1293.94C701.1 1297.46 713.546 1300.22 726 1303C726.647 1303.14 727.293 1303.29 727.96 1303.44C744.601 1307.14 761.249 1310.82 778 1314C778.646 1314.12 779.292 1314.25 779.958 1314.37C800.91 1318.36 821.855 1322.17 843 1325C844.778 1325.24 844.778 1325.24 846.592 1325.49C887.272 1330.95 928.009 1334.05 969 1336C969.806 1336.04 970.611 1336.08 971.441 1336.12C980.625 1336.55 989.807 1336.85 999 1337C1000.01 1337.02 1000.01 1337.02 1001.05 1337.03C1042.44 1337.67 1083.75 1335.27 1125 1332C1126.07 1331.92 1126.07 1331.92 1127.16 1331.83C1165.61 1328.79 1204.01 1322.71 1241.9 1315.58C1244.1 1315.17 1246.31 1314.76 1248.51 1314.35C1265.24 1311.25 1281.79 1307.74 1298.31 1303.64C1303.2 1302.43 1308.09 1301.3 1313.01 1300.24C1337.65 1294.9 1361.97 1287.58 1386 1280C1386.97 1279.69 1387.95 1279.39 1388.95 1279.07C1415.62 1270.67 1442.21 1262.06 1468.13 1251.54C1471.8 1250.07 1475.5 1248.7 1479.21 1247.34C1488.92 1243.74 1498.42 1239.65 1507.94 1235.56C1513.81 1233.04 1519.69 1230.53 1525.58 1228.03C1527.19 1227.34 1528.81 1226.65 1530.42 1225.96C1532.71 1224.96 1535.01 1223.98 1537.31 1223.01C1537.99 1222.71 1538.66 1222.42 1539.36 1222.11C1546.35 1219.17 1553.06 1218.6 1560.37 1220.67C1566.45 1223.29 1570.56 1227.98 1573.38 1233.87C1574.8 1241.01 1574.63 1247.56 1571 1254C1565.41 1262.19 1557.15 1267.7 1549.22 1273.4C1547 1275 1544.8 1276.62 1542.59 1278.23C1503.13 1307.15 1460.47 1332.41 1416.14 1353.05C1412.76 1354.63 1409.44 1356.29 1406.13 1358C1392.96 1364.63 1379.13 1369.98 1365.5 1375.56C1364.47 1375.98 1363.44 1376.41 1362.38 1376.84C1344.92 1383.94 1327.32 1390.37 1309.38 1396.12C1307.56 1396.71 1305.75 1397.3 1303.93 1397.89C1299.48 1399.33 1295.03 1400.75 1290.58 1402.18C1288.06 1402.98 1285.54 1403.79 1283.03 1404.61C1272.81 1407.9 1262.54 1410.82 1252.13 1413.44C1250.6 1413.82 1249.07 1414.21 1247.54 1414.6C1243.73 1415.56 1239.92 1416.52 1236.11 1417.47C1234.15 1417.96 1232.19 1418.46 1230.22 1418.96C1215.02 1422.81 1199.75 1426.16 1184.38 1429.25C1183.55 1429.42 1182.72 1429.58 1181.87 1429.76C1170.7 1432 1159.5 1433.96 1148.24 1435.66C1146.11 1435.98 1143.99 1436.31 1141.87 1436.64C1051.42 1450.55 959.284 1450.65 826.954 1431.57C823.523 1430.91 820.088 1430.27 816.653 1429.63C800.31 1426.57 784.124 1423.08 768 1419C766.94 1418.74 765.879 1418.47 764.786 1418.2C724.863 1408.26 685.906 1395.44 647.625 1380.42C644.567 1379.22 641.504 1378.04 638.438 1376.86C607.337 1364.78 576.783 1350.19 547.445 1334.32C544.626 1332.8 541.8 1331.29 538.973 1329.78C529.493 1324.7 520.065 1319.62 510.973 1313.87C508.252 1312.16 505.506 1310.5 502.74 1308.86C474.594 1292.14 446.915 1274.01 421 1254C419.963 1253.2 418.925 1252.41 417.856 1251.59C415.665 1249.91 413.478 1248.23 411.293 1246.54C409.093 1244.84 406.887 1243.15 404.676 1241.46C394.588 1233.76 384.808 1225.73 375.196 1217.44C371.637 1214.38 368.034 1211.38 364.375 1208.44C359.327 1204.34 354.556 1199.99 349.789 1195.57C345.654 1191.76 341.426 1188.06 337.133 1184.42C336.532 1183.91 335.932 1183.4 335.313 1182.87C334.793 1182.44 334.274 1182 333.739 1181.55C331.398 1179.46 329.213 1177.23 327 1175C325.999 1174.02 324.996 1173.04 323.993 1172.06C322.953 1171.04 321.914 1170.02 320.875 1169C320.351 1168.49 319.826 1167.98 319.286 1167.46C315.509 1163.73 312.37 1160.51 311.567 1155.06C311.556 1146.87 311.556 1146.87 313.563 1142.94C321.128 1136.92 327.726 1137.45 335.895 1141.96Z" fill="#00BBFF"/>
<path d="M1211.56 189.437C1216.22 193.88 1220.31 198.733 1224 204C1227.84 202.603 1231.02 200.793 1234.44 198.562C1268.11 177.403 1309.65 164.991 1349.38 173.562C1364.17 177.115 1375.52 184.12 1386 195C1386.59 195.559 1387.18 196.119 1387.79 196.695C1391.41 200.391 1393.74 204.887 1396.13 209.437C1396.45 210.039 1396.78 210.64 1397.11 211.26C1404.18 225.419 1404.58 240.114 1404.52 255.565C1404.52 257.687 1404.53 259.809 1404.54 261.932C1404.56 267.646 1404.55 273.36 1404.54 279.074C1404.53 285.069 1404.54 291.065 1404.54 297.06C1404.55 307.113 1404.54 317.165 1404.52 327.217C1404.5 338.838 1404.51 350.459 1404.53 362.081C1404.55 372.077 1404.55 382.073 1404.54 392.069C1404.53 398.032 1404.53 403.995 1404.55 409.958C1404.56 415.553 1404.55 421.149 1404.53 426.744C1404.52 428.798 1404.52 430.852 1404.53 432.906C1404.54 435.706 1404.53 438.506 1404.51 441.306C1404.52 442.528 1404.52 442.528 1404.54 443.775C1404.48 447.539 1404.16 449.755 1402.12 452.962C1398.1 456.828 1394.36 457.251 1388.93 457.274C1387.73 457.284 1386.53 457.293 1385.29 457.303C1384 457.302 1382.71 457.301 1381.38 457.3C1380.03 457.304 1378.69 457.309 1377.34 457.313C1374.52 457.321 1371.71 457.321 1368.89 457.315C1365.29 457.31 1361.69 457.326 1358.09 457.35C1355.32 457.364 1352.54 457.365 1349.76 457.362C1347.79 457.363 1345.82 457.377 1343.85 457.391C1342.65 457.385 1341.44 457.378 1340.2 457.372C1338.62 457.373 1338.62 457.373 1337 457.374C1332.7 456.837 1329.44 455.438 1326.35 452.356C1324.5 449.128 1324.58 446.188 1324.61 442.569C1324.61 441.818 1324.6 441.067 1324.6 440.293C1324.59 437.775 1324.59 435.256 1324.6 432.738C1324.59 430.932 1324.59 429.127 1324.58 427.322C1324.56 423.432 1324.56 419.542 1324.56 415.652C1324.56 409.494 1324.54 403.337 1324.52 397.18C1324.48 385.211 1324.46 373.242 1324.44 361.272C1324.42 346.063 1324.39 330.853 1324.34 315.643C1324.32 309.529 1324.31 303.416 1324.3 297.302C1324.3 293.487 1324.29 289.671 1324.28 285.855C1324.27 284.094 1324.27 282.333 1324.28 280.572C1324.41 259.259 1324.41 259.259 1314.31 241.125C1300.21 232.079 1284.25 233.674 1268.38 237.062C1259.14 239.161 1250.34 242.153 1241.54 245.644C1238 247 1238 247 1236 247C1236 248.025 1236.01 249.05 1236.01 250.106C1236.08 275.044 1236.12 299.981 1236.16 324.919C1236.17 336.979 1236.19 349.038 1236.23 361.098C1236.26 371.608 1236.28 382.118 1236.28 392.629C1236.29 398.194 1236.3 403.76 1236.32 409.326C1236.34 414.564 1236.34 419.802 1236.34 425.041C1236.34 426.964 1236.35 428.886 1236.36 430.809C1236.37 433.435 1236.37 436.06 1236.36 438.685C1236.37 439.446 1236.38 440.207 1236.39 440.991C1236.35 445.735 1235.49 448.963 1233 453C1228.97 456.648 1225.46 457.127 1220.16 457.161C1218.95 457.17 1217.75 457.18 1216.51 457.19C1214.56 457.196 1214.56 457.196 1212.57 457.203C1211.23 457.209 1209.88 457.214 1208.53 457.22C1205.7 457.231 1202.87 457.236 1200.04 457.24C1196.43 457.245 1192.81 457.269 1189.2 457.298C1186.41 457.317 1183.62 457.322 1180.84 457.323C1178.86 457.328 1176.88 457.346 1174.9 457.365C1173.69 457.362 1172.48 457.359 1171.23 457.356C1170.17 457.36 1169.11 457.363 1168.02 457.367C1164.46 456.934 1162.07 455.831 1159 454C1154.89 448.615 1154.85 442.991 1154.86 436.442C1154.86 435.69 1154.86 434.937 1154.85 434.162C1154.85 431.644 1154.84 429.126 1154.84 426.608C1154.84 424.801 1154.83 422.994 1154.83 421.187C1154.82 417.296 1154.81 413.406 1154.8 409.515C1154.79 403.358 1154.77 397.201 1154.75 391.044C1154.69 373.536 1154.63 356.028 1154.6 338.52C1154.58 328.849 1154.55 319.179 1154.51 309.508C1154.49 304.394 1154.47 299.28 1154.47 294.165C1154.47 289.351 1154.45 284.538 1154.43 279.724C1154.42 277.962 1154.42 276.2 1154.42 274.439C1154.44 262.973 1154.43 252.101 1146.88 242.757C1138.4 234.826 1127.71 234.478 1116.76 234.664C1110.9 234.905 1105.29 235.789 1099.56 237C1098.72 237.171 1097.88 237.342 1097.01 237.518C1090.14 239.102 1083.66 241.584 1077.1 244.117C1076.13 244.49 1075.16 244.863 1074.15 245.247C1071.77 246.163 1069.38 247.08 1067 248C1067 249.02 1067 250.04 1066.99 251.091C1066.93 275.903 1066.86 300.716 1066.76 325.528C1066.72 337.527 1066.68 349.526 1066.65 361.525C1066.63 371.983 1066.6 382.44 1066.55 392.898C1066.53 398.435 1066.51 403.973 1066.5 409.511C1066.5 414.723 1066.48 419.935 1066.45 425.147C1066.44 427.06 1066.43 428.974 1066.44 430.887C1066.44 433.499 1066.42 436.111 1066.4 438.723C1066.4 439.48 1066.41 440.237 1066.41 441.017C1066.35 445.744 1065.48 448.976 1063 453C1059.01 456.617 1055.53 457.126 1050.26 457.161C1049.08 457.17 1047.91 457.18 1046.69 457.19C1044.78 457.196 1044.78 457.196 1042.83 457.203C1041.52 457.208 1040.21 457.214 1038.86 457.22C1036.08 457.231 1033.3 457.236 1030.52 457.24C1026.98 457.245 1023.43 457.269 1019.89 457.298C1016.49 457.321 1013.1 457.323 1009.7 457.328C1008.44 457.34 1007.17 457.352 1005.86 457.365C999.508 457.349 994.541 457.267 989 454C984.287 448.03 984.855 441.119 984.866 433.879C984.864 432.85 984.862 431.822 984.86 430.762C984.853 427.312 984.854 423.861 984.855 420.41C984.852 417.938 984.848 415.466 984.845 412.994C984.837 406.973 984.834 400.952 984.833 394.931C984.833 390.037 984.831 385.142 984.827 380.248C984.819 366.368 984.814 352.488 984.815 338.608C984.815 337.86 984.815 337.112 984.815 336.341C984.815 335.218 984.815 335.218 984.815 334.071C984.815 321.932 984.806 309.793 984.792 297.654C984.777 285.186 984.77 272.719 984.771 260.251C984.772 253.253 984.769 246.255 984.758 239.256C984.748 232.675 984.748 226.094 984.756 219.513C984.757 217.097 984.754 214.681 984.748 212.265C984.741 208.968 984.745 205.672 984.753 202.375C984.748 201.418 984.743 200.461 984.737 199.476C984.772 192.856 985.027 187.392 989.391 182.101C993.945 178.747 999.326 179.305 1004.75 179.371C1005.88 179.368 1007.01 179.366 1008.18 179.363C1010.57 179.364 1012.95 179.378 1015.34 179.403C1018.99 179.437 1022.63 179.423 1026.28 179.404C1028.6 179.411 1030.93 179.421 1033.25 179.433C1034.34 179.428 1035.43 179.423 1036.55 179.418C1042.66 179.513 1046.38 179.855 1051 184C1055.28 189.998 1058 197.579 1058 205C1059.64 204.018 1061.28 203.037 1062.93 202.054C1064.32 201.219 1065.71 200.386 1067.11 199.553C1068.14 198.935 1068.14 198.935 1069.2 198.304C1069.83 197.925 1070.46 197.546 1071.12 197.155C1073.07 195.958 1074.97 194.706 1076.88 193.437C1113.59 170.439 1176.33 157.228 1211.56 189.437Z" fill="#00BBFF"/>
<path d="M984.73 588.612C985.386 588.607 986.042 588.601 986.718 588.596C988.875 588.583 991.031 588.592 993.187 588.602C994.693 588.6 996.198 588.597 997.704 588.593C1000.85 588.589 1004 588.595 1007.16 588.609C1011.19 588.626 1015.22 588.616 1019.25 588.598C1022.36 588.587 1025.46 588.591 1028.57 588.599C1030.06 588.601 1031.54 588.598 1033.03 588.591C1035.11 588.584 1037.19 588.595 1039.27 588.612C1041.04 588.616 1041.04 588.616 1042.85 588.619C1046.41 589.05 1048.2 589.788 1051 592C1053.99 596.023 1054.38 598.948 1054.38 603.908C1054.38 604.594 1054.39 605.28 1054.39 605.987C1054.4 608.291 1054.39 610.594 1054.38 612.898C1054.38 614.565 1054.39 616.231 1054.39 617.898C1054.41 622.481 1054.4 627.064 1054.39 631.648C1054.39 636.589 1054.4 641.531 1054.4 646.472C1054.42 656.154 1054.41 665.837 1054.41 675.519C1054.4 683.387 1054.4 691.255 1054.4 699.122C1054.4 700.241 1054.4 701.36 1054.4 702.513C1054.4 704.786 1054.4 707.058 1054.41 709.331C1054.41 730.655 1054.4 751.979 1054.39 773.303C1054.37 791.607 1054.38 809.911 1054.39 828.215C1054.41 849.46 1054.41 870.705 1054.4 891.95C1054.4 894.214 1054.4 896.479 1054.4 898.744C1054.4 899.858 1054.4 900.973 1054.4 902.121C1054.4 909.98 1054.4 917.84 1054.41 925.699C1054.42 935.276 1054.41 944.853 1054.4 954.429C1054.39 959.317 1054.39 964.205 1054.4 969.093C1054.41 973.565 1054.4 978.038 1054.39 982.51C1054.38 984.13 1054.38 985.75 1054.39 987.37C1054.4 989.569 1054.39 991.767 1054.38 993.966C1054.38 995.8 1054.38 995.8 1054.38 997.67C1053.95 1001.41 1052.98 1003.81 1051 1007C1044.93 1010.85 1038.58 1010.45 1031.57 1010.43C1030.37 1010.44 1029.18 1010.44 1027.95 1010.45C1025.44 1010.46 1022.93 1010.45 1020.41 1010.45C1016.58 1010.44 1012.75 1010.47 1008.91 1010.5C1006.46 1010.5 1004.01 1010.5 1001.57 1010.5C1000.43 1010.51 999.287 1010.52 998.112 1010.53C991.719 1010.47 986.191 1010.06 981 1006C976.701 1000.24 975.516 992.89 974 986C973.501 986.485 973.002 986.97 972.488 987.469C948.05 1010.28 916.989 1017.22 884.625 1016.38C855.062 1015.23 829.561 1001.74 809.242 980.613C782.59 951.734 773.25 910.135 772 872C771.959 870.99 771.917 869.979 771.875 868.938C770.908 823.517 782.472 776.143 813.879 742.082C817.986 738.051 822.433 734.494 827 731C827.803 730.381 828.606 729.763 829.433 729.125C854.012 711.044 884.988 706.892 914.711 710.822C927.401 712.793 939.218 716.52 950.875 721.875C951.54 722.178 952.205 722.481 952.891 722.794C956.949 724.742 960.583 727.038 964.258 729.641C965.149 730.271 966.04 730.9 966.958 731.548C967.632 732.027 968.305 732.507 969 733C969.003 731.974 969.003 731.974 969.007 730.927C969.066 714.267 969.142 697.608 969.236 680.949C969.28 672.892 969.32 664.836 969.346 656.779C969.369 649.756 969.403 642.732 969.449 635.709C969.472 631.992 969.491 628.274 969.497 624.557C969.505 620.403 969.535 616.249 969.567 612.096C969.566 610.868 969.565 609.64 969.563 608.375C969.631 602.221 969.701 597.3 973 592C976.762 588.825 979.902 588.622 984.73 588.612ZM877 790C876.54 790.492 876.08 790.985 875.607 791.492C871.755 795.755 869.158 799.992 866.875 805.25C866.536 806.025 866.197 806.8 865.847 807.599C853.025 838.318 853.898 881.497 864 913C864.286 913.9 864.572 914.8 864.867 915.727C867.392 922.765 871.358 929.153 876 935C876.66 935 877.32 935 878 935C878 935.66 878 936.32 878 937C892.139 949.21 908.498 953.328 927 952C943.133 950.361 955.726 944.786 970 937C970 887.83 970 838.66 970 788C942.798 774.399 900.712 763.725 877 790Z" fill="#00BBFF"/>
<path d="M531.5 194.188C559.589 218.32 573.704 253.665 576.684 290.106C579.648 337.159 574.566 387.507 542.68 424.707C523.677 446.125 501.094 460.413 472 463C448.563 464.226 427.344 460.455 406.063 450.625C405.294 450.274 404.525 449.923 403.733 449.562C399.523 447.54 395.886 445.25 392.221 442.345C391.426 441.718 390.631 441.091 389.812 440.444C389.214 439.968 388.616 439.491 388 439C387.998 439.607 387.995 440.214 387.993 440.839C387.934 455.621 387.858 470.403 387.764 485.184C387.72 492.333 387.68 499.481 387.654 506.63C387.631 512.862 387.597 519.094 387.551 525.327C387.528 528.625 387.51 531.923 387.503 535.222C387.493 538.909 387.465 542.595 387.433 546.282C387.435 547.913 387.435 547.913 387.437 549.577C387.364 555.464 386.957 559.849 384 565C380.411 567.393 378.765 567.268 374.497 567.306C373.841 567.315 373.185 567.323 372.51 567.332C370.343 567.356 368.176 567.365 366.008 567.371C364.5 567.38 362.991 567.389 361.483 567.399C358.321 567.415 355.158 567.423 351.996 567.426C347.948 567.431 343.901 567.469 339.854 567.514C336.738 567.544 333.622 567.551 330.506 567.552C329.014 567.557 327.522 567.569 326.03 567.59C323.94 567.617 321.853 567.612 319.762 567.599C317.981 567.607 317.981 567.607 316.163 567.615C312.081 566.821 310.611 565.157 308 562C306.622 559.244 306.87 557.032 306.863 553.945C306.858 552.646 306.853 551.346 306.848 550.007C306.847 548.551 306.847 547.095 306.846 545.639C306.842 544.103 306.838 542.567 306.833 541.031C306.821 536.795 306.815 532.558 306.811 528.321C306.805 523.758 306.793 519.195 306.783 514.632C306.758 503.604 306.743 492.576 306.73 481.548C306.727 478.435 306.723 475.322 306.719 472.209C306.693 452.888 306.671 433.568 306.659 414.247C306.656 409.77 306.653 405.293 306.65 400.816C306.649 399.147 306.649 399.147 306.648 397.444C306.635 379.41 306.602 361.375 306.56 343.341C306.518 324.838 306.494 306.335 306.489 287.833C306.486 277.439 306.474 267.045 306.441 256.651C306.413 247.801 306.402 238.951 306.413 230.101C306.418 225.583 306.415 221.067 306.391 216.549C306.368 212.415 306.369 208.281 306.388 204.147C306.391 202.65 306.385 201.154 306.37 199.657C306.252 187.073 306.252 187.073 309.413 183.133C312.893 180.264 314.489 179.871 318.905 179.823C319.927 179.81 320.949 179.797 322.001 179.784C323.664 179.773 323.664 179.773 325.36 179.762C326.497 179.754 327.634 179.746 328.805 179.737C331.216 179.723 333.627 179.713 336.038 179.705C339.721 179.688 343.403 179.644 347.086 179.6C349.427 179.59 351.768 179.581 354.11 179.574C355.76 179.548 355.76 179.548 357.443 179.521C363.613 179.539 367.331 179.822 372 184C374.862 187.775 375.957 191.772 377.188 196.313C377.532 197.567 377.876 198.821 378.231 200.113C378.485 201.066 378.739 202.019 379 203C380.011 202.216 381.021 201.433 382.063 200.625C397.443 189.204 413.367 180.062 432 175C433.044 174.702 434.088 174.405 435.164 174.098C468.197 166.289 505.186 172.284 531.5 194.188ZM387 247C387 293.53 387 340.06 387 388C398.253 393.817 398.253 393.817 409.875 397.875C410.556 398.074 411.236 398.272 411.938 398.477C420.388 400.854 428.646 401.182 437.375 401.188C438.352 401.2 439.329 401.212 440.336 401.225C454.208 401.252 466.879 397.809 477.196 388.027C491.44 372.025 495.532 348.778 496 328C496.031 326.837 496.031 326.837 496.062 325.65C496.707 298.265 495.625 267.872 476.688 246.375C450.683 223.394 414.796 233.102 387 247Z" fill="#00BBFF"/>
<path d="M1644.57 740.993C1646.06 742.318 1647.53 743.659 1649 745C1649.73 745.644 1650.45 746.287 1651.2 746.95C1679.85 773.736 1690.89 815.115 1692.26 853.018C1692.97 877.313 1691.89 902.824 1684 926C1683.46 927.59 1683.46 927.59 1682.92 929.211C1673.15 956.207 1656.35 981.214 1632 997C1631.13 997.58 1630.25 998.161 1629.35 998.758C1601.12 1016.39 1565.43 1021.46 1532.75 1018.19C1531.4 1018.06 1531.4 1018.06 1530.03 1017.92C1495.24 1014.29 1462.06 1001.22 1439.2 973.731C1436.68 970.57 1434.33 967.309 1432 964C1431.38 963.132 1430.75 962.263 1430.11 961.368C1403.55 922.252 1400.42 866.882 1408.8 821.614C1410.39 813.899 1412.4 806.435 1415 799C1415.36 797.928 1415.71 796.855 1416.08 795.75C1425.56 769.031 1443.43 744.629 1468 730C1468.64 729.62 1469.28 729.24 1469.93 728.849C1521.04 699.004 1599.02 701.204 1644.57 740.993ZM1525 780C1524.11 780.448 1523.23 780.895 1522.32 781.356C1507.75 789.431 1500.78 802.452 1496 818C1495.7 818.919 1495.4 819.839 1495.1 820.786C1486.66 849.976 1488.4 887.364 1498 916C1498.32 916.985 1498.64 917.97 1498.97 918.985C1503.23 930.825 1511.65 941.441 1522.81 947.313C1537.63 954.086 1553.19 955.496 1568.82 950.317C1584.03 944.02 1592.75 932.928 1599 918C1600.6 913.715 1601.84 909.423 1603 905C1603.27 903.998 1603.54 902.995 1603.81 901.962C1606.42 890.765 1606.49 879.691 1606.45 868.233C1606.44 864.902 1606.47 861.573 1606.5 858.243C1606.57 835.785 1604.17 812.374 1590 794C1589.59 793.401 1589.17 792.802 1588.75 792.184C1582.24 783.499 1571.46 778.171 1561 776C1557.03 775.587 1553.11 775.523 1549.13 775.563C1548.07 775.57 1547.01 775.578 1545.92 775.586C1538.35 775.746 1531.82 776.511 1525 780Z" fill="#00BBFF"/>
<path d="M1311 723C1311.71 723.316 1312.43 723.632 1313.16 723.957C1333.06 733.256 1349.34 749.454 1357.31 770.027C1365.31 792.759 1366.14 819.312 1356.24 841.649C1348.3 856.684 1337.43 866.558 1323 875C1322.2 875.483 1321.41 875.965 1320.59 876.461C1283.67 896.941 1226.91 895.454 1187 886C1188.75 904.395 1193.77 923.206 1208 936C1232.15 954.598 1267.22 953.289 1295.92 949.567C1305.37 948.158 1314.64 945.83 1323.86 943.338C1331.02 941.456 1338.59 939.517 1346 941C1349.7 943.763 1350.94 946.567 1352 951C1352.26 954.492 1352.26 954.492 1352.27 958.305C1352.27 958.988 1352.27 959.671 1352.27 960.374C1352.27 961.811 1352.27 963.248 1352.26 964.685C1352.25 966.862 1352.26 969.038 1352.27 971.215C1352.29 989.509 1352.29 989.509 1346.61 995.692C1343.46 998.252 1339.76 999.549 1336 1001C1334.46 1001.71 1334.46 1001.71 1332.89 1002.43C1328.12 1004.48 1323.14 1005.71 1318.13 1007C1317.11 1007.26 1316.09 1007.52 1315.05 1007.79C1306.42 1009.98 1297.8 1011.67 1289 1013C1287.27 1013.29 1287.27 1013.29 1285.5 1013.59C1265.72 1016.63 1245.82 1016.5 1226 1014C1224.77 1013.85 1224.77 1013.85 1223.51 1013.69C1196.41 1010.1 1171.14 999.641 1151 981C1150.19 980.272 1149.38 979.544 1148.55 978.793C1123.78 955.452 1112.32 918.193 1111 885C1109.64 835.046 1116.35 787.734 1152 750C1152.65 749.3 1153.29 748.6 1153.96 747.879C1171.57 729.443 1195.51 719.957 1220 715C1221.57 714.678 1221.57 714.678 1223.18 714.348C1251.41 709.115 1284.77 710.685 1311 723ZM1204.69 787.977C1197.89 796.134 1194.14 804.929 1191 815C1190.68 815.997 1190.36 816.993 1190.03 818.02C1188.27 823.87 1187.7 828.898 1188 835C1195.84 836.826 1203.6 837.597 1211.63 838.125C1213.49 838.251 1213.49 838.251 1215.39 838.378C1248.78 840.807 1248.78 840.807 1278.56 827.875C1285.51 821.003 1287.18 814.033 1287.44 804.438C1287.1 794.348 1285.44 787.364 1278.3 779.977C1257.92 762.465 1221.95 769.678 1204.69 787.977Z" fill="#00BBFF"/>
<path d="M1664 195C1664.75 195.603 1665.49 196.206 1666.26 196.828C1680.84 208.984 1691 228.071 1693 247C1694.46 268.558 1693.54 290.208 1679.72 307.917C1677.55 310.362 1675.32 312.695 1673 315C1672.2 315.886 1671.39 316.773 1670.56 317.687C1657.99 329.03 1643.1 334.831 1627 339C1625.91 339.297 1624.82 339.595 1623.7 339.902C1607.41 344.062 1590.53 344.375 1573.81 344.312C1572.88 344.311 1571.94 344.31 1570.98 344.31C1554.19 344.275 1537.17 344.026 1521 339C1524.12 356.633 1524.12 356.633 1531 373C1531.5 373.926 1532 374.853 1532.52 375.808C1539.99 388.71 1551.35 395.001 1565.27 399.05C1598.26 407.451 1635.92 402.692 1668 392C1676.03 391.561 1676.03 391.561 1679 394C1681.63 399.116 1682.44 403.324 1682.36 409.093C1682.36 410.219 1682.36 410.219 1682.37 411.367C1682.36 412.944 1682.35 414.52 1682.34 416.097C1682.31 418.493 1682.32 420.888 1682.32 423.285C1682.32 424.825 1682.31 426.365 1682.3 427.906C1682.3 428.613 1682.3 429.321 1682.3 430.05C1682.23 435.494 1681.69 440.726 1678.38 445.187C1664.16 456.038 1639.47 460.704 1622 463C1621.33 463.088 1620.66 463.177 1619.97 463.269C1578.38 468.547 1533.14 465.901 1498 441C1497.19 440.436 1496.39 439.873 1495.56 439.292C1470.48 420.822 1457.33 393.226 1450.81 363.437C1450.65 362.682 1450.48 361.926 1450.31 361.148C1447.86 349.362 1447.81 337.461 1447.82 325.475C1447.81 322.966 1447.79 320.456 1447.78 317.947C1447.72 302.958 1448.53 287.892 1452.25 273.312C1452.47 272.439 1452.69 271.566 1452.91 270.666C1458.03 250.813 1466.73 231.752 1480 216C1480.79 215.057 1481.58 214.115 1482.4 213.144C1505.68 186.527 1537.99 174.091 1572.63 171.388C1603.95 169.408 1639.53 173.485 1664 195ZM1539 245C1529.02 256.694 1522 274.435 1522 290C1566.59 297.735 1566.59 297.735 1608.39 285.316C1614.1 280.745 1617.57 276.24 1619 269C1619.89 258.692 1619.11 250.104 1614.38 240.812C1607.46 232.617 1597.49 228.889 1587 228C1568.3 226.82 1552.13 231.185 1539 245Z" fill="#00BBFF"/>
<path d="M331.809 717.636C333.144 717.637 334.478 717.636 335.813 717.635C338.599 717.635 341.385 717.645 344.172 717.664C347.72 717.686 351.267 717.687 354.815 717.68C357.569 717.677 360.322 717.683 363.075 717.693C365.012 717.699 366.949 717.698 368.885 717.696C384.501 717.821 384.501 717.821 391.313 722.062C397.174 728.469 399.055 737.092 401.25 745.312C401.864 747.556 402.479 749.799 403.094 752.043C403.409 753.196 403.723 754.349 404.047 755.536C405.572 761.078 407.162 766.601 408.75 772.125C411.107 780.335 413.44 788.552 415.743 796.777C416.225 798.496 416.707 800.216 417.189 801.935C417.896 804.456 418.602 806.977 419.304 809.5C421.998 819.177 424.841 828.786 427.898 838.355C429.862 844.514 431.672 850.702 433.375 856.937C433.967 859.075 434.56 861.213 435.153 863.351C435.605 864.984 435.605 864.984 436.066 866.649C437.663 872.378 439.301 878.095 440.938 883.812C441.266 884.96 441.594 886.108 441.932 887.29C443.516 892.831 445.106 898.37 446.71 903.905C447.278 905.863 447.844 907.822 448.409 909.782C449.123 912.257 449.841 914.731 450.563 917.204C451.042 918.868 451.042 918.868 451.532 920.566C451.958 922.035 451.958 922.035 452.393 923.533C453 926 453 926 453 929C453.66 929 454.32 929 455 929C455.115 928.023 455.229 927.045 455.347 926.039C455.973 921.686 457.175 917.58 458.45 913.379C458.698 912.543 458.947 911.708 459.204 910.847C459.744 909.036 460.286 907.226 460.83 905.416C462.318 900.465 463.791 895.509 465.266 890.554C465.574 889.521 465.882 888.488 466.2 887.423C469.202 877.35 472.141 867.259 475.073 857.165C480.417 838.768 485.849 820.401 491.34 802.048C494.909 790.109 498.412 778.162 501.724 766.149C503.64 759.216 505.664 752.32 507.75 745.437C508.033 744.502 508.315 743.567 508.606 742.603C514.467 723.441 514.467 723.441 521.438 719.687C526.293 718.385 530.968 717.873 535.986 717.855C537.724 717.845 537.724 717.845 539.496 717.835C541.353 717.834 541.353 717.834 543.246 717.832C544.531 717.828 545.815 717.825 547.139 717.822C549.851 717.816 552.564 717.814 555.276 717.814C558.737 717.815 562.198 717.801 565.658 717.784C568.979 717.77 572.3 717.77 575.621 717.769C576.857 717.762 578.093 717.755 579.366 717.748C593.746 717.786 593.746 717.786 597.901 721.866C600.252 726.428 599.837 731.011 598.47 735.895C596.716 741.289 594.598 746.545 592.5 751.812C591.849 753.482 591.2 755.153 590.553 756.824C589.283 760.095 588.005 763.363 586.718 766.627C584.642 771.901 582.629 777.198 580.625 782.5C580.014 784.104 579.402 785.708 578.789 787.312C576.857 792.374 574.929 797.437 573 802.5C572.334 804.25 571.667 806 571 807.75C570.67 808.616 570.34 809.482 570 810.375C553 855 536 899.625 519 944.25C518.67 945.116 518.34 945.982 518 946.875C517.334 948.624 516.667 950.373 516 952.123C514.329 956.508 512.661 960.895 511 965.285C509.35 969.647 507.686 974.003 506.014 978.356C505.323 980.159 504.636 981.963 503.952 983.768C502.917 986.496 501.867 989.217 500.813 991.937C500.504 992.76 500.195 993.582 499.877 994.43C497.394 1000.77 495.047 1005.5 488.679 1008.64C482.729 1010.73 476.612 1010.43 470.375 1010.4C468.423 1010.4 468.423 1010.4 466.432 1010.41C463.688 1010.41 460.945 1010.4 458.202 1010.39C454.705 1010.37 451.209 1010.38 447.712 1010.4C444.35 1010.42 440.988 1010.41 437.625 1010.4C436.379 1010.4 435.133 1010.41 433.85 1010.42C426.529 1010.36 420.194 1010.07 414.082 1005.6C409.679 1000.27 407.411 994.427 405 988C404.399 986.43 403.796 984.861 403.192 983.293C401.11 977.869 399.055 972.434 397 967C395.628 963.374 394.253 959.749 392.875 956.125C392.542 955.247 392.208 954.369 391.865 953.464C389.923 948.369 387.926 943.302 385.875 938.25C383.908 933.375 382.091 928.473 380.375 923.504C376.882 913.505 373.097 903.621 369.297 893.735C368.131 890.703 366.97 887.669 365.809 884.635C361.839 874.277 357.821 863.942 353.65 853.664C351.328 847.917 349.232 842.113 347.205 836.257C345.526 831.428 343.735 826.656 341.864 821.898C341.242 820.309 340.621 818.719 340.001 817.129C339.675 816.295 339.349 815.461 339.014 814.602C335.728 806.164 332.492 797.705 329.25 789.25C328.859 788.229 328.468 787.209 328.065 786.157C306.763 730.566 306.763 730.566 308.5 722.75C313.975 716.362 324.263 717.582 331.809 717.636Z" fill="#00BBFF"/>
<path d="M785.438 176.688C786.86 176.661 786.86 176.661 788.31 176.634C793.634 176.639 797.406 177 802 180C805.719 183.975 806.121 187.81 806.161 193.101C806.171 194.116 806.181 195.13 806.19 196.176C806.197 197.814 806.197 197.814 806.203 199.484C806.209 200.614 806.215 201.743 806.221 202.907C806.23 205.298 806.237 207.688 806.24 210.079C806.25 213.722 806.281 217.365 806.313 221.008C806.319 223.333 806.324 225.659 806.328 227.984C806.341 229.068 806.353 230.152 806.366 231.268C806.347 237.52 805.999 242.442 803 248C798.347 251.497 793.989 251.342 788.43 251.117C786.725 251.08 785.02 251.043 783.315 251.008C781.983 250.974 781.983 250.974 780.624 250.939C757.206 250.394 735.36 252.593 713.246 260.863C710 262 710 262 707 262C707.004 262.964 707.008 263.929 707.011 264.922C707.1 288.374 707.166 311.826 707.207 335.277C707.228 346.619 707.256 357.96 707.302 369.301C707.342 379.184 707.368 389.068 707.377 398.951C707.382 404.186 707.394 409.42 707.423 414.655C707.45 419.58 707.459 424.505 707.453 429.431C707.454 431.24 707.462 433.049 707.477 434.857C707.497 437.326 707.492 439.793 707.481 442.262C707.493 442.978 707.505 443.695 707.517 444.434C707.459 449.223 706.393 451.64 703 455C699.294 457.025 696.112 457.256 691.928 457.275C690.727 457.284 689.525 457.294 688.287 457.304C686.998 457.303 685.708 457.302 684.379 457.301C683.033 457.305 681.687 457.309 680.341 457.314C677.524 457.321 674.707 457.321 671.891 457.316C668.292 457.31 664.693 457.327 661.094 457.35C658.315 457.365 655.537 457.366 652.758 457.363C650.789 457.363 648.821 457.377 646.852 457.391C645.647 457.385 644.443 457.379 643.202 457.372C641.619 457.373 641.619 457.373 640.004 457.374C635.647 456.831 632.329 455.465 629.349 452.18C627.796 449.671 627.623 448.325 627.617 445.399C627.608 444.474 627.599 443.55 627.59 442.597C627.595 441.585 627.6 440.573 627.606 439.53C627.6 438.452 627.594 437.374 627.587 436.264C627.571 432.639 627.576 429.015 627.58 425.391C627.573 422.797 627.564 420.204 627.555 417.611C627.534 411.29 627.529 404.97 627.531 398.649C627.532 393.512 627.528 388.376 627.521 383.239C627.519 381.76 627.517 380.281 627.515 378.802C627.514 378.066 627.513 377.33 627.511 376.572C627.493 362.647 627.494 348.723 627.5 334.798C627.506 322.056 627.485 309.315 627.452 296.573C627.418 283.493 627.403 270.413 627.408 257.332C627.41 249.988 627.405 242.643 627.38 235.298C627.357 228.393 627.359 221.488 627.38 214.582C627.383 212.045 627.378 209.507 627.364 206.969C627.346 203.511 627.358 200.055 627.379 196.597C627.366 195.587 627.354 194.577 627.341 193.536C627.401 188.828 627.445 186.713 630.414 182.9C633.917 180.327 635.608 179.868 639.89 179.807C641.417 179.783 641.417 179.783 642.975 179.758C647.645 179.714 652.314 179.673 656.983 179.65C659.444 179.633 661.905 179.606 664.365 179.568C667.914 179.513 671.462 179.491 675.012 179.477C676.107 179.454 677.202 179.431 678.33 179.408C685.238 179.427 688.896 180.231 694 185C695.637 188.172 695.637 188.172 696.688 191.75C696.881 192.388 697.074 193.026 697.272 193.684C699.53 201.361 701.288 209.186 703 217C703.66 217 704.32 217 705 217C706.464 215.513 706.464 215.513 708 213.562C727.849 190.372 754.998 177.038 785.438 176.688Z" fill="#00BBFF"/>
<path d="M662.344 717.734C664.268 717.731 664.268 717.731 666.232 717.728C668.938 717.725 671.645 717.729 674.351 717.739C677.804 717.75 681.257 717.744 684.71 717.732C688.025 717.723 691.341 717.729 694.656 717.734C695.889 717.73 697.121 717.726 698.391 717.722C712.335 717.798 712.335 717.798 717.875 722.375C720.881 726.087 721.124 729.007 721.132 733.689C721.135 734.633 721.139 735.577 721.143 736.55C721.142 737.584 721.141 738.618 721.141 739.684C721.144 740.785 721.147 741.886 721.15 743.02C721.158 746.723 721.16 750.425 721.161 754.128C721.166 756.777 721.171 759.426 721.176 762.076C721.19 769.282 721.196 776.489 721.2 783.696C721.203 788.196 721.207 792.696 721.212 797.196C721.224 809.656 721.234 822.116 721.238 834.576C721.238 835.772 721.238 835.772 721.238 836.993C721.239 838.191 721.239 838.191 721.239 839.415C721.239 841.034 721.24 842.654 721.24 844.273C721.241 845.077 721.241 845.88 721.241 846.708C721.245 859.726 721.262 872.745 721.286 885.764C721.309 899.131 721.322 912.498 721.323 925.865C721.324 933.369 721.33 940.874 721.348 948.379C721.363 954.769 721.368 961.159 721.36 967.549C721.356 970.809 721.359 974.068 721.371 977.328C721.384 980.863 721.378 984.399 721.368 987.935C721.38 989.476 721.38 989.476 721.392 991.048C721.352 996.809 720.784 1000.92 718 1006C713.967 1009.78 710.253 1010.13 704.88 1010.16C703.618 1010.17 702.356 1010.18 701.056 1010.19C699.677 1010.19 698.298 1010.2 696.918 1010.2C695.502 1010.21 694.086 1010.21 692.669 1010.22C689.699 1010.23 686.73 1010.24 683.76 1010.24C679.963 1010.25 676.167 1010.27 672.371 1010.3C669.445 1010.32 666.519 1010.32 663.592 1010.32C662.193 1010.33 660.794 1010.33 659.395 1010.35C657.433 1010.36 655.471 1010.36 653.509 1010.36C652.394 1010.36 651.28 1010.36 650.131 1010.37C645.074 1009.77 641.91 1008.11 638.688 1004.19C635.385 997.95 635.856 991.321 635.866 984.43C635.864 983.366 635.862 982.301 635.86 981.204C635.853 977.637 635.854 974.07 635.855 970.502C635.852 967.945 635.848 965.387 635.845 962.829C635.837 956.603 635.834 950.376 635.833 944.149C635.833 939.087 635.831 934.024 635.827 928.961C635.819 914.599 635.814 900.237 635.815 885.875C635.815 885.101 635.815 884.327 635.815 883.53C635.815 882.755 635.815 881.981 635.815 881.182C635.815 868.627 635.806 856.073 635.792 843.518C635.777 830.619 635.77 817.719 635.771 804.82C635.772 797.581 635.769 790.343 635.758 783.104C635.748 776.295 635.748 769.487 635.756 762.679C635.757 760.181 635.754 757.684 635.748 755.187C635.741 751.774 635.745 748.362 635.753 744.95C635.748 743.965 635.743 742.98 635.737 741.965C635.772 734.984 636.153 728.215 639.688 722.062C645.842 716.573 654.605 717.709 662.344 717.734Z" fill="#00BBFF"/>
<path d="M1610.06 1122.81C1611.82 1122.95 1611.82 1122.95 1613.61 1123.08C1629.4 1124.36 1644.75 1126.67 1660 1131C1661.1 1131.31 1662.2 1131.62 1663.34 1131.93C1671.57 1134.43 1680.58 1138.19 1685 1146C1688.15 1155.22 1688.52 1164.36 1688.44 1174C1688.43 1175.11 1688.43 1175.11 1688.43 1176.24C1688.19 1215.94 1677.74 1256.29 1663 1293C1662.67 1293.83 1662.34 1294.65 1662 1295.5C1650.48 1323.95 1635.55 1350.01 1615.95 1373.62C1614.7 1375.15 1613.5 1376.71 1612.37 1378.31C1611.69 1379.15 1611.69 1379.15 1611 1380C1610.34 1380 1609.68 1380 1609 1380C1608.74 1380.58 1608.49 1381.16 1608.22 1381.76C1604.27 1389.01 1595.71 1396.17 1587.83 1398.7C1584.5 1399.28 1582.25 1399.1 1579.12 1397.81C1576.88 1395.9 1576.08 1394.7 1575 1392C1574.69 1385.4 1577.09 1379.21 1579.39 1373.14C1579.74 1372.21 1580.08 1371.28 1580.44 1370.32C1581.17 1368.33 1581.91 1366.34 1582.66 1364.35C1584.62 1359.07 1586.56 1353.79 1588.48 1348.5C1588.87 1347.43 1589.26 1346.37 1589.66 1345.28C1595.21 1329.99 1600.22 1314.54 1605 1299C1605.2 1298.35 1605.4 1297.7 1605.61 1297.03C1622.18 1248.33 1622.18 1248.33 1616.59 1199.34C1610.85 1190.92 1600.58 1187.91 1591 1186C1577.49 1183.78 1564.04 1183.68 1550.38 1183.75C1549.29 1183.75 1548.21 1183.76 1547.1 1183.76C1517.76 1183.87 1489 1186.35 1459.9 1189.88C1459.09 1189.98 1458.28 1190.07 1457.44 1190.18C1453.28 1190.69 1449.14 1191.3 1445 1192C1440.06 1192.36 1435.57 1192.64 1430.94 1190.75C1428.76 1188.78 1427.77 1187.85 1427 1185C1427 1178.06 1429.13 1173.91 1434 1169C1437.18 1166.42 1440.54 1164.2 1444 1162C1445.23 1161.17 1445.23 1161.17 1446.49 1160.32C1482 1136.85 1524.86 1125.82 1567 1123C1567.75 1122.94 1568.5 1122.89 1569.27 1122.83C1582.92 1121.84 1596.4 1121.77 1610.06 1122.81Z" fill="#00BBFF"/>
<path d="M855.455 179.612C856.74 179.602 858.025 179.593 859.349 179.583C860.743 179.588 862.137 179.595 863.532 179.601C864.97 179.599 866.408 179.596 867.846 179.593C870.855 179.588 873.865 179.595 876.874 179.609C880.724 179.626 884.574 179.616 888.424 179.598C891.392 179.587 894.36 179.591 897.329 179.598C898.748 179.6 900.167 179.598 901.587 179.591C903.573 179.583 905.559 179.597 907.545 179.612C908.674 179.614 909.802 179.616 910.965 179.619C914.598 180.075 916.253 180.548 919 183C922.075 189.371 922.43 195.676 922.381 202.633C922.386 203.668 922.391 204.704 922.395 205.77C922.407 209.22 922.398 212.669 922.388 216.119C922.393 218.6 922.398 221.081 922.404 223.562C922.417 229.589 922.415 235.617 922.406 241.644C922.399 246.544 922.398 251.444 922.402 256.344C922.402 257.043 922.403 257.742 922.403 258.461C922.404 259.881 922.405 261.3 922.406 262.72C922.415 276.014 922.405 289.309 922.389 302.604C922.375 314.002 922.378 325.399 922.391 336.797C922.407 350.048 922.414 363.298 922.405 376.548C922.404 377.962 922.403 379.375 922.402 380.789C922.401 381.485 922.401 382.18 922.4 382.897C922.398 387.789 922.402 392.682 922.409 397.575C922.418 404.163 922.412 410.752 922.395 417.34C922.391 419.757 922.392 422.174 922.398 424.591C922.407 427.892 922.396 431.193 922.381 434.494C922.388 435.448 922.395 436.403 922.402 437.387C922.35 443.266 921.476 447.643 919 453C915.125 456.754 911.387 457.127 906.155 457.161C904.954 457.171 903.752 457.18 902.514 457.19C900.564 457.196 900.564 457.196 898.575 457.203C897.226 457.209 895.877 457.214 894.528 457.22C891.699 457.231 888.87 457.237 886.042 457.24C882.427 457.246 878.812 457.27 875.198 457.298C872.411 457.317 869.623 457.322 866.836 457.323C864.858 457.328 862.881 457.347 860.904 457.365C859.692 457.362 858.481 457.359 857.233 457.356C856.172 457.36 855.111 457.364 854.017 457.367C849.593 456.828 846.193 455.316 843.188 452C841.303 448.825 840.875 446.25 840.869 442.637C840.865 441.74 840.861 440.843 840.857 439.919C840.858 438.932 840.859 437.946 840.86 436.929C840.857 435.882 840.854 434.835 840.851 433.756C840.842 430.23 840.841 426.705 840.839 423.179C840.835 420.657 840.83 418.136 840.824 415.615C840.811 408.754 840.805 401.892 840.8 395.03C840.797 390.746 840.793 386.461 840.789 382.177C840.776 370.315 840.766 358.452 840.763 346.59C840.763 345.831 840.762 345.072 840.762 344.289C840.762 343.528 840.762 342.767 840.761 341.983C840.761 340.44 840.761 338.898 840.76 337.356C840.76 336.591 840.76 335.826 840.759 335.037C840.755 322.643 840.738 310.248 840.715 297.854C840.691 285.128 840.679 272.403 840.677 259.678C840.676 252.533 840.671 245.388 840.653 238.244C840.636 231.523 840.634 224.803 840.643 218.082C840.643 215.614 840.639 213.147 840.629 210.679C840.617 207.312 840.622 203.945 840.633 200.578C840.625 199.601 840.617 198.623 840.608 197.616C840.649 191.976 841.276 187.976 844 183C847.698 179.903 850.719 179.622 855.455 179.612Z" fill="#00BBFF"/>
<path d="M710.703 594.09C719.462 601.374 726.031 611.588 727.221 623.146C727.936 637.284 726.381 649.775 717 661C707.315 671.441 696.08 675.393 682 676C667.615 676.355 654.958 674.068 644 664C634.653 654.911 630.964 646.193 630.759 633.223C630.706 618.864 633.283 608.26 643.359 597.469C660.785 581.177 691.39 580.308 710.703 594.09Z" fill="#00BBFF"/>
<path d="M912 61.9997C917.767 66.935 922.324 71.8313 925 78.9998C925.353 79.8505 925.706 80.7013 926.07 81.5779C929.078 92.6503 928.527 106.805 923.671 117.238C917.495 127.44 909.049 134.388 897.625 137.875C892.028 139.102 886.519 139.275 880.812 139.312C879.981 139.318 879.15 139.324 878.293 139.329C865.714 139.182 855.409 135.463 846.125 126.75C835.779 115.792 835.46 104.287 835.66 89.9685C836.024 80.2407 839.265 72.8368 846.046 65.7458C863.007 50.5829 893.539 47.2317 912 61.9997Z" fill="#00BBFF"/>
</svg>
