<?xml version="1.0" encoding="UTF-8"?>
<svg version="1.1" xmlns="http://www.w3.org/2000/svg" width="2000" height="1087">
<path d="M0 0 C1.08567261 0.00182281 2.17134521 0.00364563 3.28991699 0.00552368 C32.24243587 0.08688076 60.20278328 2.95292611 88.6875 8.3125 C90.44078613 8.63492676 90.44078613 8.63492676 92.22949219 8.96386719 C131.98722221 16.35834075 171.02119714 28.68736032 208.6875 43.3125 C209.42049316 43.59448242 210.15348633 43.87646484 210.90869141 44.16699219 C245.78692066 57.63812471 279.39949851 73.44407432 311.6875 92.3125 C312.65220215 92.87243652 313.6169043 93.43237305 314.61083984 94.00927734 C325.17360241 100.14434705 335.6846238 106.28920395 345.6875 113.3125 C346.73035156 114.04339844 347.77320313 114.77429688 348.84765625 115.52734375 C358.90780052 122.63077459 368.80915528 129.95938014 378.6875 137.3125 C379.30544434 137.77156738 379.92338867 138.23063477 380.56005859 138.70361328 C392.40783118 147.53929792 403.45260378 157.29849852 414.38671875 167.23046875 C415.89934621 168.59928104 417.4225767 169.95648286 418.95703125 171.30078125 C424.45219497 176.13980602 429.68932899 181.20898522 434.875 186.375 C435.54031738 187.0357251 436.20563477 187.6964502 436.89111328 188.37719727 C441.35940396 192.85937152 445.5631439 197.51397622 449.6875 202.3125 C450.64878036 203.40709314 451.61097045 204.50088826 452.57421875 205.59375 C473.10233389 229.08961098 489.50222964 254.75672765 502.62011719 283.02636719 C503.48191392 284.87217336 504.36636916 286.70739037 505.2578125 288.5390625 C518.7824302 316.69408426 520.57563363 347.98861181 514.6875 378.3125 C514.54248047 379.08835449 514.39746094 379.86420898 514.24804688 380.66357422 C509.43980999 405.18870455 496.07298616 427.28818575 480.75390625 446.66796875 C478.6277772 449.32060099 478.6277772 449.32060099 476.6875 452.3125 C476.0275 452.3125 475.3675 452.3125 474.6875 452.3125 C474.44515625 452.86808594 474.2028125 453.42367188 473.953125 453.99609375 C468.39260226 464.17322334 457.88903032 471.64686322 448.6875 478.3125 C448.11435059 478.72854492 447.54120117 479.14458984 446.95068359 479.57324219 C422.57257781 497.02472751 394.53431694 509.38418801 365.6875 517.3125 C364.17978027 517.72943115 364.17978027 517.72943115 362.64160156 518.15478516 C303.87519264 534.15899418 242.25602073 536.05116565 182.6875 523.3125 C181.73182129 523.10915039 180.77614258 522.90580078 179.79150391 522.69628906 C174.74585763 521.61374596 169.71222476 520.48821991 164.6875 519.3125 C164.70127686 519.88532715 164.71505371 520.4581543 164.72924805 521.04833984 C164.85184605 529.92148531 164.05524293 539.82888852 158.20703125 546.94921875 C150.74181456 553.6468039 141.14995761 553.76922642 131.640625 553.5859375 C122.91931129 552.98268458 116.47862477 548.74854548 110.6875 542.3125 C105.63141448 534.89793557 103.66059177 525.86331428 103.08203125 517.0546875 C102.76904463 504.00208783 102.76904463 504.00208783 98.16650391 492.26318359 C94.48146201 489.32253413 90.27548892 488.05077698 85.75976562 486.88867188 C82.65311599 486.0249003 79.92022747 484.6021828 77.0625 483.125 C75.9384375 482.56296875 74.814375 482.0009375 73.65625 481.421875 C42.66975085 465.27901328 14.78284242 444.12600835 -10.86328125 420.5390625 C-12.99675739 418.59953874 -15.17023457 416.73210781 -17.375 414.875 C-33.8191974 400.5072593 -52.36029907 378.28255538 -54.55078125 355.875 C-54.9644997 341.5908263 -49.5036739 331.08185874 -39.98046875 320.79296875 C-4.84391532 286.51998652 56.12042202 273.92334928 102.6875 267.3125 C102.69160889 266.2601416 102.69571777 265.2077832 102.69995117 264.12353516 C102.818887 243.611634 103.51864106 223.31211774 106 202.9375 C106.15110733 201.67042206 106.15110733 201.67042206 106.30526733 200.37774658 C111.34546141 158.7713888 111.34546141 158.7713888 119.6875 146.3125 C122.97150555 144.67049723 126.15152197 144.67129272 129.6875 145.3125 C141.40187345 151.23525225 147.43245345 164.77467298 151.87890625 176.4375 C152.94217584 179.70653279 153.84075704 182.98075051 154.6875 186.3125 C154.8534668 186.93527832 155.01943359 187.55805664 155.19042969 188.19970703 C158.0585442 199.17441537 159.37281649 210.29458601 160.4375 221.5625 C160.56519775 222.86864258 160.69289551 224.17478516 160.82446289 225.52050781 C161.89919852 237.44224956 161.81606223 249.35146604 161.6875 261.3125 C162.97100342 261.30202637 164.25450684 261.29155273 165.5769043 261.28076172 C170.44699185 261.24391306 175.3170678 261.22136965 180.18725586 261.20263672 C182.2748422 261.192724 184.36241523 261.17918988 186.44995117 261.16162109 C204.85467449 261.01087173 222.89071878 262.0892659 241.0625 265.125 C242.10011475 265.29604248 243.13772949 265.46708496 244.20678711 265.64331055 C281.22164196 271.90088442 328.84588446 280.51622201 352.5859375 312.90234375 C361.1844682 325.83642053 363.95115195 337.9333616 362.6875 353.3125 C361.88545239 357.04733614 360.59370651 360.01588404 358.6875 363.3125 C358.16671875 364.23546875 357.6459375 365.1584375 357.109375 366.109375 C349.55400577 378.70165705 338.8458095 387.88654106 324.6875 392.3125 C312.04053537 395.29527468 298.41483892 392.49959221 286.6875 387.3125 C284.6875 385.3125 284.6875 385.3125 284.3125 382.4375 C284.78646379 378.48780177 285.67741617 377.85135665 288.6875 375.3125 C291.12135784 373.80352237 293.63809246 372.48943045 296.1875 371.1875 C296.85136719 370.84074219 297.51523437 370.49398438 298.19921875 370.13671875 C301.34619602 368.4972755 304.50724108 366.88640365 307.6875 365.3125 C307.6875 364.6525 307.6875 363.9925 307.6875 363.3125 C308.326875 362.755625 308.96625 362.19875 309.625 361.625 C312.43561458 358.47370486 312.75989951 356.51167155 312.6875 352.3125 C307.66876203 345.02783929 300.77030423 343.04808215 292.6875 340.3125 C291.5744751 339.93327393 291.5744751 339.93327393 290.43896484 339.54638672 C276.4479718 334.87283125 262.18186199 331.94742837 247.6875 329.3125 C246.68187012 329.12945313 245.67624023 328.94640625 244.64013672 328.7578125 C239.11916914 327.76171049 233.59557974 326.78056336 228.05943298 325.87219238 C225.61747545 325.46686255 223.17992479 325.04756934 220.74215698 324.61868286 C208.1955905 322.46737208 195.69665909 321.41538235 183 320.625 C181.01492177 320.49493475 179.02989516 320.3640791 177.04492188 320.23242188 C172.25965766 319.9167124 167.47383327 319.61154567 162.6875 319.3125 C162.93007449 330.26039215 163.17352981 341.20826438 163.41799068 352.15611458 C163.53158406 357.24436706 163.64491787 362.33262499 163.75756836 367.42089844 C163.88832147 373.32488866 164.01998951 379.22885796 164.15234375 385.1328125 C164.17415144 386.10727955 164.19595913 387.0817466 164.21842766 388.08574295 C164.45150285 398.46313037 164.69522148 408.84006166 164.97485352 419.21630859 C164.99811927 420.08140108 165.02138502 420.94649357 165.0453558 421.83780098 C165.15425438 425.86616419 165.26548369 429.89444419 165.38047791 433.92263794 C165.7200123 446.05447335 165.79650907 458.17615696 165.6875 470.3125 C166.80125 470.43625 167.915 470.56 169.0625 470.6875 C172.07307741 471.05804262 174.98666017 471.57923387 177.9453125 472.2421875 C186.38146729 473.97441128 194.9994128 474.62355704 203.5625 475.4375 C204.49612366 475.52654602 205.42974731 475.61559204 206.3916626 475.70733643 C261.90881224 480.91425755 322.69935877 476.34734965 373.6875 452.3125 C374.42323242 451.9707373 375.15896484 451.62897461 375.91699219 451.27685547 C389.6286889 444.86574465 402.11920175 437.12383828 413.6875 427.3125 C414.78964844 426.42884766 414.78964844 426.42884766 415.9140625 425.52734375 C435.40322818 409.30932778 445.57084241 385.86960633 449.6875 361.3125 C450.11552307 356.5944367 450.21319809 351.92333603 450.1875 347.1875 C450.17783203 345.29463257 450.17783203 345.29463257 450.16796875 343.36352539 C449.95601862 332.40835323 448.29412706 322.63491537 444.6875 312.3125 C444.40874023 311.50586914 444.12998047 310.69923828 443.84277344 309.86816406 C434.93680537 284.76773356 421.05425789 262.20046172 404.6875 241.3125 C404.01847656 240.45011719 403.34945312 239.58773437 402.66015625 238.69921875 C390.83845356 223.83953659 377.03976975 207.71287205 361.45703125 196.7421875 C360.87308594 196.27039063 360.28914062 195.79859375 359.6875 195.3125 C359.6875 194.6525 359.6875 193.9925 359.6875 193.3125 C359.09396729 193.0350293 358.50043457 192.75755859 357.88891602 192.47167969 C355.82826417 191.38662092 354.23944649 190.26019819 352.46484375 188.765625 C351.85374756 188.25749268 351.24265137 187.74936035 350.61303711 187.22583008 C349.95698486 186.67693115 349.30093262 186.12803223 348.625 185.5625 C321.71555288 163.39829428 292.13598391 145.18149858 261.6875 128.3125 C260.88795898 127.86874023 260.08841797 127.42498047 259.26464844 126.96777344 C237.07724587 114.7579238 213.66802545 104.21965505 190.0078125 95.19970703 C187.55160237 94.26053746 185.10385448 93.30120216 182.65625 92.33984375 C144.33473763 77.38572317 104.2098744 65.57509955 63.6875 58.3125 C62.8301123 58.15330078 61.97272461 57.99410156 61.08935547 57.83007812 C48.09805663 55.43111006 35.05491367 53.65496687 21.9375 52.125 C21.22649139 52.04032471 20.51548279 51.95564941 19.78292847 51.8684082 C-0.08973497 49.5221683 -19.94137419 49.10460581 -39.9375 49.125 C-41.03678833 49.12560425 -42.13607666 49.1262085 -43.26867676 49.12683105 C-87.55007656 46.88244989 -87.55007656 46.88244989 -127.3125 60.3125 C-126.74853516 60.38243164 -126.18457031 60.45236328 -125.60351562 60.52441406 C-123.00434875 60.85542999 -120.40867441 61.2088077 -117.8125 61.5625 C-116.925625 61.67207031 -116.03875 61.78164063 -115.125 61.89453125 C-109.3382882 62.70296893 -104.1880898 63.95954463 -99.3125 67.3125 C-96.78489117 70.75923932 -96.32357038 72.67041783 -96.25 76.9375 C-97.3125 80.3125 -97.3125 80.3125 -100.125 82.6875 C-112.22447668 88.85586066 -130.46800501 86.24318483 -143.09765625 82.59375 C-147.99054422 80.64372903 -151.88327238 78.17095524 -154.3125 73.3125 C-155.51790586 57.50389859 -150.75346189 47.39531601 -141.453125 34.79296875 C-123.00820286 13.41974692 -91.37504954 9.79036626 -65.3125 5.3125 C-63.97106934 5.07635986 -63.97106934 5.07635986 -62.60253906 4.83544922 C-61.7875293 4.69252441 -60.97251953 4.54959961 -60.1328125 4.40234375 C-59.45105957 4.28238037 -58.76930664 4.16241699 -58.06689453 4.03881836 C-38.76938425 0.92779687 -19.52831282 -0.0686134 0 0 Z M87.34765625 322.01171875 C86.10873627 322.12432037 86.10873627 322.12432037 84.8447876 322.23919678 C58.10513582 324.70377572 32.0112204 328.45195736 5.87744141 334.78662109 C3.99960766 335.23755241 2.1155472 335.66241492 0.23046875 336.08203125 C-12.49380276 338.99481629 -27.68556833 342.8721025 -35.3125 354.3125 C-35.62294354 363.004919 -30.52224351 368.67773431 -24.890625 374.87792969 C-21.82020789 378.15236794 -18.70020813 381.36393922 -15.3125 384.3125 C-14.6525 384.3125 -13.9925 384.3125 -13.3125 384.3125 C-12.9825 385.3025 -12.6525 386.2925 -12.3125 387.3125 C-9.33674612 390.0894917 -6.10647679 392.55083576 -2.90380859 395.06103516 C-1.39083807 396.250892 0.10775159 397.45896815 1.60546875 398.66796875 C16.87843944 410.77965185 33.65851974 420.88303954 50.6875 430.3125 C51.57276367 430.80637207 52.45802734 431.30024414 53.37011719 431.80908203 C75.88962157 445.23259369 75.88962157 445.23259369 100.6875 451.3125 C100.3575 408.4125 100.0275 365.5125 99.6875 321.3125 C95.53916397 321.3125 91.47337887 321.63497672 87.34765625 322.01171875 Z " fill="#101C50" transform="translate(154.3125,399.6875)"/>
<path d="M0 0 C4.19151601 0.00461122 8.38274042 -0.00223054 12.57421875 -0.02050781 C46.87462749 -0.16850439 81.00870038 0.85729697 115.00683594 5.75317383 C116.59081564 5.97278955 118.17488413 6.19176562 119.7590332 6.41015625 C123.53613786 6.93503725 127.31055395 7.47660264 131.08398438 8.02722168 C132.89485736 8.2903238 134.70666175 8.54699477 136.51855469 8.80297852 C167.7261141 13.23742783 198.62065739 20.23012852 229.06933594 28.31567383 C230.21096191 28.61860352 231.35258789 28.9215332 232.52880859 29.23364258 C246.89276291 33.07914372 261.0228139 37.44222417 275.06933594 42.31567383 C275.90803223 42.60442383 276.74672852 42.89317383 277.61083984 43.19067383 C283.44231242 45.19913027 289.25870035 47.24780249 295.06933594 49.31567383 C295.8126416 49.57783691 296.55594727 49.84 297.32177734 50.11010742 C321.10508939 58.5224993 344.25001939 68.58864468 367.06933594 79.31567383 C368.43759521 79.95351807 368.43759521 79.95351807 369.83349609 80.60424805 C382.4449231 86.48385401 394.82129532 92.71416331 407.06933594 99.31567383 C407.97925293 99.80358398 408.88916992 100.29149414 409.82666016 100.79418945 C420.7793988 106.67299956 431.55492774 112.6805131 442.06933594 119.31567383 C443.77470982 120.34144349 445.48291845 121.36251953 447.19433594 122.37817383 C470.99780937 136.61278367 494.03389805 152.47558308 516.06933594 169.31567383 C517.10316406 170.10458008 518.13699219 170.89348633 519.20214844 171.70629883 C521.93864409 173.79991282 524.66618119 175.90485357 527.38964844 178.01538086 C528.51332836 178.88525285 529.63834004 179.75340711 530.76464844 180.61987305 C539.52142649 187.35989314 547.92355025 194.42890229 556.22998047 201.71459961 C557.99606621 203.25189591 559.77637967 204.7700446 561.56542969 206.28051758 C569.96233062 213.37276818 578.00890569 220.78243674 585.984375 228.34399414 C590.25204963 232.37979511 594.55018649 236.38327449 598.84228516 240.39306641 C600.58938885 242.02898261 602.33032044 243.67117005 604.06933594 245.31567383 C604.87886719 246.07493164 605.68839844 246.83418945 606.52246094 247.61645508 C608.06933594 249.31567383 608.06933594 249.31567383 608.06933594 251.31567383 C609.38933594 251.97567383 610.70933594 252.63567383 612.06933594 253.31567383 C612.06933594 253.97567383 612.06933594 254.63567383 612.06933594 255.31567383 C612.66359375 255.57219727 613.25785156 255.8287207 613.87011719 256.09301758 C616.27995847 257.43276948 617.51805582 258.75299813 619.25683594 260.87817383 C621.90184278 264.01026973 624.64548677 266.9416347 627.56933594 269.81567383 C630.96070886 273.16694606 634.1582108 276.60740433 637.26074219 280.22583008 C639.30275648 282.58539303 641.40333122 284.88580797 643.50683594 287.19067383 C647.1465005 291.22315211 650.56552765 295.37678815 653.92480469 299.64379883 C655.86723797 302.06387964 657.86213117 304.42874898 659.88525391 306.78149414 C666.3327761 314.28715365 672.35754731 322.07691073 678.30859375 329.97973633 C680.14736484 332.41919304 681.99479863 334.85193373 683.84277344 337.28442383 C691.53833116 347.44396578 698.96903688 357.73198526 706.06933594 368.31567383 C706.75125 369.32500977 707.43316406 370.3343457 708.13574219 371.37426758 C710.13036605 374.34404089 712.10446375 377.32612998 714.06933594 380.31567383 C714.48683105 380.95085937 714.90432617 381.58604492 715.33447266 382.24047852 C721.33322739 391.38658134 727.19466069 400.59507188 732.72753906 410.03100586 C733.69612622 411.68021231 734.66936525 413.32668976 735.64550781 414.97143555 C750.86340702 440.64408334 764.6389901 467.18214631 777.06933594 494.31567383 C777.35953613 494.94614624 777.64973633 495.57661865 777.94873047 496.22619629 C779.91767 500.50662178 781.86470886 504.7961925 783.78897095 509.09689331 C784.42695414 510.51823901 785.06957308 511.93751429 785.71713257 513.35452271 C786.62413624 515.34441245 787.51103418 517.34217098 788.39355469 519.34301758 C788.91006592 520.49535889 789.42657715 521.6477002 789.95874023 522.83496094 C791.37891207 527.28591496 792.21205207 532.01715704 790.04589844 536.37426758 C785.47788622 541.03469623 783.57269872 541.44921222 777.08496094 541.51879883 C774.91532877 541.53663902 772.74587237 541.55022091 770.57617188 541.5559082 C768.34173839 541.56557689 766.10823952 541.59658085 763.87402344 541.62817383 C762.44434138 541.63470791 761.01465276 541.63995679 759.58496094 541.64379883 C758.28848633 541.65314453 756.99201172 541.66249023 755.65625 541.67211914 C751.14236747 541.22355744 747.5675203 540.0306006 744.53027344 536.55395508 C743.99273438 535.60069336 743.99273438 535.60069336 743.44433594 534.62817383 C742.8371875 533.56083008 742.8371875 533.56083008 742.21777344 532.47192383 C741.83878906 531.76036133 741.45980469 531.04879883 741.06933594 530.31567383 C740.73160156 529.70723633 740.39386719 529.09879883 740.04589844 528.47192383 C737.31080083 523.30805955 735.34612896 517.87216843 733.28417969 512.41333008 C731.7761944 508.56821005 729.98695641 504.96731281 728.06933594 501.31567383 C727.04525284 499.27563528 726.02465982 497.23384245 725.00683594 495.19067383 C724.52085938 494.2187207 724.03488281 493.24676758 723.53417969 492.24536133 C723.05078125 491.27856445 722.56738281 490.31176758 722.06933594 489.31567383 C721.51375 488.26637695 720.95816406 487.21708008 720.38574219 486.13598633 C719.06933594 483.31567383 719.06933594 483.31567383 719.06933594 480.31567383 C718.40933594 480.31567383 717.74933594 480.31567383 717.06933594 480.31567383 C716.71871094 479.42879883 716.36808594 478.54192383 716.00683594 477.62817383 C713.87513173 472.59900759 711.14544131 467.87703111 708.49511719 463.10864258 C707.06933594 460.31567383 707.06933594 460.31567383 707.06933594 458.31567383 C706.40933594 457.98567383 705.74933594 457.65567383 705.06933594 457.31567383 C704.00672214 455.43299939 703.01714366 453.50867965 702.06933594 451.56567383 C701.55371094 450.51895508 701.03808594 449.47223633 700.50683594 448.39379883 C699.26225828 445.72877928 698.12620425 443.05946655 697.06933594 440.31567383 C696.40933594 440.31567383 695.74933594 440.31567383 695.06933594 440.31567383 C693.60870743 437.66828466 693.06933594 436.42119049 693.06933594 433.31567383 C692.40933594 433.31567383 691.74933594 433.31567383 691.06933594 433.31567383 C690.23084789 431.86029815 689.39869659 430.4012701 688.56933594 428.94067383 C687.87324219 427.72250977 687.87324219 427.72250977 687.16308594 426.47973633 C686.06933594 424.31567383 686.06933594 424.31567383 686.06933594 422.31567383 C685.40933594 422.31567383 684.74933594 422.31567383 684.06933594 422.31567383 C683.10743597 420.58848866 682.14997086 418.85883325 681.19433594 417.12817383 C680.39382813 415.6837793 680.39382813 415.6837793 679.57714844 414.21020508 C678.22696814 411.61827865 677.09835264 409.04806285 676.06933594 406.31567383 C675.40933594 406.31567383 674.74933594 406.31567383 674.06933594 406.31567383 C673.73933594 405.32567383 673.40933594 404.33567383 673.06933594 403.31567383 C672.6271875 402.88512695 672.18503906 402.45458008 671.72949219 402.01098633 C668.64485667 398.86102912 666.8246715 394.76072729 664.69042969 390.93286133 C663.33202042 388.22831244 663.33202042 388.22831244 661.06933594 387.31567383 C660.08501514 385.57670708 659.10331428 383.83607437 658.14746094 382.08129883 C657.0595392 380.1345794 657.0595392 380.1345794 654.94433594 378.25317383 C652.5956802 375.82622957 651.94807562 373.53771932 651.06933594 370.31567383 C650.40933594 370.31567383 649.74933594 370.31567383 649.06933594 370.31567383 C649.06933594 369.65567383 649.06933594 368.99567383 649.06933594 368.31567383 C648.40933594 367.98567383 647.74933594 367.65567383 647.06933594 367.31567383 C646.0692127 365.90692881 645.11707413 364.46377755 644.19433594 363.00317383 C642.06517244 359.7154949 639.89910786 357.03660837 637.06933594 354.31567383 C637.06933594 353.65567383 637.06933594 352.99567383 637.06933594 352.31567383 C636.40933594 352.31567383 635.74933594 352.31567383 635.06933594 352.31567383 C635.06933594 351.32567383 635.06933594 350.33567383 635.06933594 349.31567383 C634.07933594 348.98567383 633.08933594 348.65567383 632.06933594 348.31567383 C628.06933594 342.94424526 628.06933594 342.94424526 628.06933594 340.31567383 C627.40933594 340.31567383 626.74933594 340.31567383 626.06933594 340.31567383 C622.06933594 335.84508559 622.06933594 335.84508559 622.06933594 333.31567383 C621.07933594 332.98567383 620.08933594 332.65567383 619.06933594 332.31567383 C618.0558193 330.65719205 617.05812799 328.98901422 616.06933594 327.31567383 C615.20308594 326.44942383 614.33683594 325.58317383 613.44433594 324.69067383 C611.06933594 322.31567383 611.06933594 322.31567383 610.06933594 319.31567383 C609.07933594 318.98567383 608.08933594 318.65567383 607.06933594 318.31567383 C605.71655479 316.32877651 604.38365288 314.32822165 603.06933594 312.31567383 C602.07933594 311.65567383 601.08933594 310.99567383 600.06933594 310.31567383 C600.06933594 309.65567383 600.06933594 308.99567383 600.06933594 308.31567383 C599.40933594 308.31567383 598.74933594 308.31567383 598.06933594 308.31567383 C596.90882951 306.96631859 595.81777123 305.55714235 594.75683594 304.12817383 C591.17751852 299.52713596 587.32284141 295.36683062 583.19433594 291.25317383 C582.62287842 290.68123291 582.0514209 290.10929199 581.46264648 289.52001953 C578.53770894 286.55750995 578.53770894 286.55750995 575.06933594 284.31567383 C575.06933594 283.65567383 575.06933594 282.99567383 575.06933594 282.31567383 C574.40933594 282.31567383 573.74933594 282.31567383 573.06933594 282.31567383 C571.73730469 280.96020508 571.73730469 280.96020508 570.25683594 279.12817383 C567.66919325 276.01180608 564.97036999 273.14924197 562.06933594 270.31567383 C561.39902344 269.63504883 560.72871094 268.95442383 560.03808594 268.25317383 C555.92305125 264.0817688 551.74555528 260.07670041 547.29980469 256.26098633 C544.51066818 253.82842945 541.79047464 251.32355582 539.06933594 248.81567383 C529.53359526 239.97611321 529.53359526 239.97611321 519.06933594 232.31567383 C518.40933594 231.65567383 517.74933594 230.99567383 517.06933594 230.31567383 C513.30235457 226.97469035 513.30235457 226.97469035 509.06933594 224.31567383 C509.06933594 223.65567383 509.06933594 222.99567383 509.06933594 222.31567383 C508.40933594 222.31567383 507.74933594 222.31567383 507.06933594 222.31567383 C507.06933594 221.65567383 507.06933594 220.99567383 507.06933594 220.31567383 C506.534375 220.0655957 505.99941406 219.81551758 505.44824219 219.55786133 C502.5081884 218.02266083 499.77914318 216.26139606 497.00683594 214.44067383 C495.96398438 213.76262695 494.92113281 213.08458008 493.84667969 212.38598633 C491.3003269 210.48786119 489.89102502 208.85532273 488.06933594 206.31567383 C484.98600007 204.56494668 484.98600007 204.56494668 482.06933594 203.31567383 C482.06933594 202.65567383 482.06933594 201.99567383 482.06933594 201.31567383 C481.32683594 201.04754883 480.58433594 200.77942383 479.81933594 200.50317383 C476.47761902 199.0601597 474.09473902 197.21614274 471.37011719 194.82348633 C470.75523438 194.2846582 470.14035156 193.74583008 469.50683594 193.19067383 C468.92804688 192.6724707 468.34925781 192.15426758 467.75292969 191.62036133 C465.98951398 190.10509366 465.98951398 190.10509366 463.06933594 189.31567383 C463.06933594 188.65567383 463.06933594 187.99567383 463.06933594 187.31567383 C462.04839844 186.97536133 462.04839844 186.97536133 461.00683594 186.62817383 C457.87769799 185.23004836 455.43010216 183.50476482 452.71777344 181.43676758 C450.94873279 180.1243509 450.94873279 180.1243509 448.06933594 179.31567383 C448.06933594 178.65567383 448.06933594 177.99567383 448.06933594 177.31567383 C446.92464844 177.16098633 446.92464844 177.16098633 445.75683594 177.00317383 C442.82590936 176.25340191 442.05416432 175.48094116 440.06933594 173.31567383 C439.07933594 172.98567383 438.08933594 172.65567383 437.06933594 172.31567383 C435.06933594 170.31567383 435.06933594 170.31567383 434.06933594 168.31567383 C433.07933594 168.31567383 432.08933594 168.31567383 431.06933594 168.31567383 C431.06933594 167.65567383 431.06933594 166.99567383 431.06933594 166.31567383 C427.60433594 165.32567383 427.60433594 165.32567383 424.06933594 164.31567383 C424.06933594 163.65567383 424.06933594 162.99567383 424.06933594 162.31567383 C423.40933594 162.06817383 422.74933594 161.82067383 422.06933594 161.56567383 C418.30572686 159.99750338 414.69819354 158.17062337 411.06933594 156.31567383 C411.06933594 155.65567383 411.06933594 154.99567383 411.06933594 154.31567383 C409.92464844 154.16098633 409.92464844 154.16098633 408.75683594 154.00317383 C406.06933594 153.31567383 406.06933594 153.31567383 404.81933594 151.97192383 C402.32064788 149.60709406 399.51298981 148.52324239 396.38183594 147.12817383 C395.20234375 146.59836914 394.02285156 146.06856445 392.80761719 145.52270508 C391.90398437 145.12438477 391.00035156 144.72606445 390.06933594 144.31567383 C390.06933594 143.65567383 390.06933594 142.99567383 390.06933594 142.31567383 C388.08933594 141.98567383 386.10933594 141.65567383 384.06933594 141.31567383 C383.73933594 140.32567383 383.40933594 139.33567383 383.06933594 138.31567383 C382.337229 138.19635498 381.60512207 138.07703613 380.85083008 137.95410156 C378.08673098 137.31966646 376.05264275 136.44067848 373.56542969 135.10083008 C372.74236328 134.6619043 371.91929688 134.22297852 371.07128906 133.77075195 C370.22501953 133.31120117 369.37875 132.85165039 368.50683594 132.37817383 C366.81814647 131.47301579 365.12934826 130.56806057 363.44042969 129.66333008 C362.32559204 129.06016968 362.32559204 129.06016968 361.18823242 128.44482422 C357.86877323 126.67589937 354.52183236 125.05652456 351.06933594 123.56567383 C347.28670229 121.90530988 343.61849813 120.07840127 339.94433594 118.19067383 C335.67840886 116.03043454 331.72607685 114.37402403 327.06933594 113.31567383 C327.06933594 112.65567383 327.06933594 111.99567383 327.06933594 111.31567383 C326.06 111.15711914 326.06 111.15711914 325.03027344 110.99536133 C321.42646323 110.16810147 318.10249526 108.84363098 314.69433594 107.44067383 C314.06011719 107.18415039 313.42589844 106.92762695 312.77246094 106.66333008 C308.51464833 104.93413679 304.29038205 103.13251561 300.06933594 101.31567383 C294.62412041 98.99837337 289.18196759 97.00430693 283.50683594 95.31567383 C278.90803213 93.94088488 274.62522921 92.33336975 270.28417969 90.29980469 C266.64764815 88.6839693 262.85297396 87.53410694 259.06933594 86.31567383 C258.46345642 86.12035065 257.8575769 85.92502747 257.2333374 85.7237854 C252.821424 84.30349356 248.40511397 82.89749522 243.98608398 81.49951172 C242.41769494 81.00230491 240.84998271 80.50295804 239.28295898 80.00146484 C227.78942805 76.2800181 227.78942805 76.2800181 215.99951172 73.70239258 C213.35135968 73.1718243 210.94611365 72.10502487 208.44824219 71.10083008 C204.65461454 69.84874608 200.75132788 69.18200019 196.83129883 68.4387207 C192.95613736 67.70123157 189.13697302 66.87011605 185.31933594 65.87817383 C180.03198995 64.52226013 174.71889735 63.33159736 169.38183594 62.19067383 C168.59776367 62.01995361 167.81369141 61.8492334 167.00585938 61.67333984 C161.70580875 60.55440314 156.46104057 59.84248046 151.06933594 59.31567383 C151.06933594 58.65567383 151.06933594 57.99567383 151.06933594 57.31567383 C150.42996094 57.50129883 149.79058594 57.68692383 149.13183594 57.87817383 C143.28231656 58.71381945 137.9439779 57.68191883 132.38183594 55.81567383 C127.07569498 54.1048153 121.92381255 53.8543935 116.38183594 53.56176758 C113.61802293 53.35643713 111.18195551 52.98937122 108.50683594 52.31567383 C102.76828348 50.89158452 96.95466858 50.66751437 91.06933594 50.31567383 C89.06559123 50.19142588 87.06184659 50.06717681 85.05810547 49.94287109 C83.69711812 49.85847757 82.33611562 49.77432806 80.97509766 49.69042969 C76.69195778 49.42423114 72.41091247 49.1409243 68.13183594 48.81567383 C67.1740625 48.74348633 66.21628906 48.67129883 65.22949219 48.59692383 C63.06933594 48.31567383 63.06933594 48.31567383 62.06933594 47.31567383 C60.20089457 47.31567383 58.33236008 47.32066161 56.46409607 47.34640503 C54.0657679 47.31562804 51.7607646 47.0938642 49.37817383 46.82397461 C41.43120832 46.07520325 33.47643003 46.17152163 25.50292969 46.18286133 C23.81624843 46.18218604 22.12956728 46.18121414 20.44288635 46.17996216 C16.92553776 46.17849618 13.40821474 46.18060441 9.89086914 46.18530273 C5.40701738 46.19100375 0.92322545 46.18771162 -3.56062412 46.18173027 C-7.03782086 46.1780986 -10.51500367 46.1792751 -13.99220085 46.18185806 C-15.64463241 46.1825199 -17.29706529 46.18172521 -18.94949532 46.17937851 C-27.33164956 46.17008212 -35.60032262 46.26621006 -43.93066406 47.31567383 C-45.99233982 47.47273014 -48.05483279 47.61961606 -50.11816406 47.75317383 C-56.74844134 48.2142196 -63.37083751 48.7520164 -69.99316406 49.31567383 C-70.99307373 49.39873779 -71.9929834 49.48180176 -73.02319336 49.56738281 C-73.97363525 49.64931885 -74.92407715 49.73125488 -75.90332031 49.81567383 C-76.751604 49.88786133 -77.5998877 49.96004883 -78.47387695 50.03442383 C-80.99975471 50.32358324 -83.44280655 50.79751172 -85.93066406 51.31567383 C-87.42855099 51.48181269 -88.92886859 51.62716702 -90.43066406 51.75317383 C-95.60279597 52.23878383 -100.70400249 53.03108205 -105.83300781 53.84692383 C-108.40784449 54.23655863 -110.96546147 54.55619021 -113.55566406 54.81567383 C-117.64855163 55.24417108 -121.65759483 55.95006554 -125.70019531 56.71411133 C-128.17467778 57.17489766 -130.64935641 57.6163042 -133.12988281 58.04223633 C-133.87044922 58.17001465 -134.61101563 58.29779297 -135.37402344 58.42944336 C-136.8293918 58.67992125 -138.28510351 58.92841543 -139.74121094 59.17456055 C-143.23945958 59.78091268 -146.68079536 60.47412624 -150.12207031 61.35083008 C-153.14878548 62.11759792 -156.10485857 62.74537575 -159.18066406 63.25317383 C-164.37338267 64.15372922 -169.41647025 65.43336577 -174.49707031 66.82739258 C-176.93066406 67.31567383 -176.93066406 67.31567383 -178.93066406 66.31567383 C-179.26066406 66.97567383 -179.59066406 67.63567383 -179.93066406 68.31567383 C-180.59066406 67.98567383 -181.25066406 67.65567383 -181.93066406 67.31567383 C-182.26066406 67.97567383 -182.59066406 68.63567383 -182.93066406 69.31567383 C-185.40722656 69.84301758 -185.40722656 69.84301758 -188.55566406 70.25317383 C-192.18534251 70.79440399 -195.4163799 71.30994148 -198.74316406 72.87817383 C-202.23798599 74.45426999 -205.13790921 74.80997318 -208.93066406 75.31567383 C-215.00700169 76.77473362 -220.94777339 78.60711787 -226.86035156 80.62036133 C-234.88572024 83.31567383 -234.88572024 83.31567383 -238.93066406 83.31567383 C-238.93066406 83.97567383 -238.93066406 84.63567383 -238.93066406 85.31567383 C-239.52234375 85.4368457 -240.11402344 85.55801758 -240.72363281 85.68286133 C-244.98421555 86.58641068 -248.92595644 87.57003204 -252.93066406 89.31567383 C-256.89577589 90.86303454 -260.88204822 92.31469159 -264.93066406 93.62817383 C-276.67840585 97.496581 -288.40790955 101.91698524 -299.68066406 107.00317383 C-302.80845098 108.26631854 -305.62437735 108.76462604 -308.93066406 109.31567383 C-309.26066406 109.97567383 -309.59066406 110.63567383 -309.93066406 111.31567383 C-312.83326218 112.69058872 -314.69205111 113.31567383 -317.93066406 113.31567383 C-318.26066406 113.97567383 -318.59066406 114.63567383 -318.93066406 115.31567383 C-320.6306162 116.11057264 -322.36806332 116.82579005 -324.11816406 117.50317383 C-330.31246696 119.9868439 -336.17487818 122.8957361 -342.09472656 125.96020508 C-344.93066406 127.31567383 -344.93066406 127.31567383 -346.93066406 127.31567383 C-347.26066406 127.97567383 -347.59066406 128.63567383 -347.93066406 129.31567383 C-349.61485387 130.07521041 -351.30315904 130.82778086 -353.01660156 131.51879883 C-354.7974241 132.2602025 -356.52435643 133.12755484 -358.24316406 134.00317383 C-360.93066406 135.31567383 -360.93066406 135.31567383 -362.93066406 135.31567383 C-363.26066406 135.97567383 -363.59066406 136.63567383 -363.93066406 137.31567383 C-364.92066406 137.31567383 -365.91066406 137.31567383 -366.93066406 137.31567383 C-367.26066406 137.97567383 -367.59066406 138.63567383 -367.93066406 139.31567383 C-369.70800781 140.38598633 -369.70800781 140.38598633 -371.86816406 141.44067383 C-372.93357422 141.97047852 -372.93357422 141.97047852 -374.02050781 142.51098633 C-375.93066406 143.31567383 -375.93066406 143.31567383 -377.93066406 143.31567383 C-378.26066406 143.97567383 -378.59066406 144.63567383 -378.93066406 145.31567383 C-380.93066406 145.98234049 -382.93066406 146.64900716 -384.93066406 147.31567383 C-385.26066406 147.97567383 -385.59066406 148.63567383 -385.93066406 149.31567383 C-387.64842032 150.35036258 -389.40546009 151.32047976 -391.18066406 152.25317383 C-394.06182477 153.77551685 -396.89314917 155.29246819 -399.66503906 157.00708008 C-401.93066406 158.31567383 -401.93066406 158.31567383 -403.93066406 158.31567383 C-404.26066406 158.97567383 -404.59066406 159.63567383 -404.93066406 160.31567383 C-407.01617299 161.58304444 -409.1022832 162.77425123 -411.24316406 163.94067383 C-418.04611035 167.73572739 -424.49372606 171.92645973 -430.93066406 176.31567383 C-432.82575373 177.56680099 -434.72160132 178.81678081 -436.61816406 180.06567383 C-441.72975465 183.4756517 -446.77761251 186.97126365 -451.80566406 190.50317383 C-452.51940186 191.00236328 -453.23313965 191.50155273 -453.96850586 192.01586914 C-457.13509472 194.25110833 -460.22718101 196.5121801 -463.18847656 199.01489258 C-465.39056404 200.86251298 -467.50366498 202.4237994 -469.93066406 203.94067383 C-485.49058182 214.15835316 -499.68023002 226.92309369 -513.80566406 239.00317383 C-514.38251953 239.49615967 -514.959375 239.98914551 -515.55371094 240.49707031 C-518.10408952 242.69096503 -520.57358891 244.91612886 -522.93066406 247.31567383 C-524.52256516 248.67048327 -526.1146866 250.02503479 -527.70800781 251.37817383 C-531.03496599 254.27829906 -534.26691609 257.28097429 -537.51074219 260.27319336 C-540.72242072 263.22870711 -543.96909641 266.1207779 -547.33300781 268.90161133 C-549.63494399 270.93902183 -551.76683652 273.13266908 -553.93066406 275.31567383 C-554.80464844 276.17805664 -555.67863281 277.04043945 -556.57910156 277.92895508 C-561.29567047 282.59822315 -565.87881735 287.30274347 -570.18847656 292.35473633 C-572.18504296 294.60199268 -574.29079353 296.7046231 -576.43066406 298.81567383 C-579.82334805 302.16824162 -583.0216709 305.61043065 -586.12597656 309.22973633 C-588.14717682 311.56592883 -590.22445245 313.84532234 -592.30566406 316.12817383 C-596.20429803 320.44828174 -599.90570264 324.89638764 -603.56347656 329.42114258 C-605.61451007 331.92908949 -607.70476974 334.39647148 -609.81738281 336.85253906 C-616.27264097 344.37249864 -622.2798322 352.19767298 -628.25146484 360.10424805 C-629.94302086 362.33194714 -631.65075965 364.5462246 -633.36425781 366.75708008 C-639.55719311 374.75902775 -645.41921817 382.82542266 -650.93066406 391.31567383 C-655.90639797 398.79265031 -655.90639797 398.79265031 -659.93066406 401.31567383 C-667.51747763 402.79809558 -674.69141417 400.18368762 -681.74316406 397.62817383 C-683.25813477 397.11867188 -683.25813477 397.11867188 -684.80371094 396.59887695 C-690.33804196 394.64450923 -694.30426367 393.00601814 -697.93066406 388.31567383 C-699.53903961 384.46955838 -700.11003669 382.23047423 -699.30566406 378.12817383 C-697.93066406 375.31567383 -697.93066406 375.31567383 -696.15722656 373.59692383 C-693.29269301 370.66203331 -691.16976481 367.42628391 -688.93066406 364.00317383 C-688.29257812 363.04507813 -688.29257812 363.04507813 -687.64160156 362.06762695 C-685.57322613 358.93651262 -683.60868828 355.78793764 -681.78613281 352.50708008 C-679.86157924 349.19684793 -677.65977112 346.97102124 -674.93066406 344.31567383 C-674.60066406 343.32567383 -674.27066406 342.33567383 -673.93066406 341.31567383 C-673.27066406 340.98567383 -672.61066406 340.65567383 -671.93066406 340.31567383 C-671.60066406 339.32567383 -671.27066406 338.33567383 -670.93066406 337.31567383 C-669.2639974 335.64900716 -667.59733073 333.98234049 -665.93066406 332.31567383 C-663.94114051 329.50693469 -662.1377782 326.67812357 -660.43066406 323.69067383 C-658.82453463 321.14763555 -657.0877475 319.41283828 -654.93066406 317.31567383 C-647.97174184 309.68447975 -641.45572607 301.63917875 -635.18066406 293.44067383 C-632.63670257 290.14055788 -629.91945335 287.22581077 -626.93066406 284.31567383 C-626.02557899 283.219078 -625.12981926 282.11472407 -624.24316406 281.00317383 C-623.48003906 280.11629883 -622.71691406 279.22942383 -621.93066406 278.31567383 C-621.27066406 278.31567383 -620.61066406 278.31567383 -619.93066406 278.31567383 C-619.6614917 277.7250415 -619.39231934 277.13440918 -619.11499023 276.52587891 C-617.92947588 274.31345642 -616.69812751 272.77231395 -614.98144531 270.95239258 C-614.3876709 270.31986572 -613.79389648 269.68733887 -613.18212891 269.03564453 C-612.54227051 268.3649292 -611.90241211 267.69421387 -611.24316406 267.00317383 C-610.58268066 266.30474365 -609.92219727 265.60631348 -609.24169922 264.88671875 C-602.77995368 258.0880579 -596.15805813 251.45225544 -589.48901367 244.85766602 C-586.48567071 241.88584804 -583.50189282 238.8952893 -580.53613281 235.88598633 C-576.03877143 231.33776626 -571.49737733 226.93081433 -566.62207031 222.78833008 C-564.89486878 221.33276325 -564.89486878 221.33276325 -563.33300781 219.62426758 C-561.93066406 218.31567383 -561.93066406 218.31567383 -559.93066406 218.31567383 C-559.60066406 217.32567383 -559.27066406 216.33567383 -558.93066406 215.31567383 C-557.18847656 213.52661133 -557.18847656 213.52661133 -555.05566406 211.69067383 C-554.00765625 210.77415039 -554.00765625 210.77415039 -552.93847656 209.83911133 C-550.93066406 208.31567383 -550.93066406 208.31567383 -547.93066406 207.31567383 C-547.93066406 206.65567383 -547.93066406 205.99567383 -547.93066406 205.31567383 C-544.4691256 202.31567383 -544.4691256 202.31567383 -541.93066406 202.31567383 C-541.93066406 201.65567383 -541.93066406 200.99567383 -541.93066406 200.31567383 C-539.24204901 197.95295151 -536.36374325 195.91913484 -533.43066406 193.87817383 C-530.25964255 191.63859708 -527.64414868 189.09873497 -524.93066406 186.31567383 C-519.42381475 181.31567383 -519.42381475 181.31567383 -516.93066406 181.31567383 C-516.93066406 180.65567383 -516.93066406 179.99567383 -516.93066406 179.31567383 C-514.2917423 177.53261858 -511.95887543 176.32507762 -508.93066406 175.31567383 C-508.93066406 174.65567383 -508.93066406 173.99567383 -508.93066406 173.31567383 C-506.5078631 171.46023765 -504.07453578 169.72021293 -501.55566406 168.00317383 C-499.98720769 166.91701365 -498.41952408 165.82973689 -496.85253906 164.74145508 C-495.63147461 163.89574951 -495.63147461 163.89574951 -494.38574219 163.03295898 C-490.48673374 160.30566926 -486.6498333 157.4944257 -482.80566406 154.69067383 C-474.98469023 149.0152992 -467.03035339 143.58423199 -458.93066406 138.31567383 C-458.33801758 137.92927734 -457.74537109 137.54288086 -457.13476562 137.14477539 C-443.30085759 128.1410371 -429.20017581 119.60824373 -414.93066406 111.31567383 C-413.6518335 110.57148193 -413.6518335 110.57148193 -412.34716797 109.81225586 C-402.81445491 104.27685183 -393.29419514 98.84113042 -383.37597656 94.02270508 C-380.11831809 92.4086498 -376.92161187 90.71320596 -373.72363281 88.9855957 C-365.56454078 84.58262622 -357.28806072 80.73190907 -348.75927734 77.10668945 C-346.01855152 75.92111513 -343.32024617 74.64893811 -340.61816406 73.37817383 C-332.94004947 69.80960635 -325.13395955 66.55755228 -317.31640625 63.30932617 C-315.05214796 62.3662714 -312.79181688 61.41437912 -310.53222656 60.46020508 C-301.51941535 56.67389254 -292.42440309 53.26900535 -283.18017578 50.0925293 C-280.83426948 49.28238453 -278.49337962 48.45895449 -276.15332031 47.63208008 C-271.08525729 45.84205346 -266.00972879 44.07421929 -260.93066406 42.31567383 C-259.67793701 41.88037354 -259.67793701 41.88037354 -258.39990234 41.4362793 C-244.06468139 36.47696295 -229.59278445 32.19924993 -214.93066406 28.31567383 C-214.28548828 28.14445007 -213.6403125 27.97322632 -212.97558594 27.79681396 C-171.33397342 16.77026957 -129.34299357 8.99708486 -86.55566406 4.12817383 C-85.52838196 4.00968079 -85.52838196 4.00968079 -84.48034668 3.88879395 C-79.30281012 3.29821113 -74.1195223 2.79545957 -68.93066406 2.31567383 C-68.02622559 2.22740326 -67.12178711 2.13913269 -66.18994141 2.04818726 C-44.152015 -0.04689339 -22.11754952 -0.02634027 0 0 Z " fill="#2B72A7" transform="translate(1045.9306640625,-0.315673828125)"/>
<path d="M0 0 C4.64353612 6.96530418 2.9922287 16.13514939 1.9609375 24.0546875 C-0.19603341 34.46652136 -5.35599088 44.08192794 -10.4375 53.3125 C-11.04223145 54.4255249 -11.64696289 55.5385498 -12.27001953 56.68530273 C-16.49044954 64.40058895 -20.8984458 71.99380518 -25.375 79.5625 C-38.20336067 101.34071559 -47.82299201 123.21291694 -47 149 C-46.66379639 148.50298584 -46.32759277 148.00597168 -45.98120117 147.49389648 C-38.92142185 137.07380122 -31.76616271 126.7527164 -24.23925781 116.6640625 C-23.07735598 115.1038728 -21.9250455 113.53655317 -20.7734375 111.96875 C-14.95218227 104.09417929 -8.83055973 96.4815432 -2.59375 88.93457031 C-1.16623741 87.20178695 0.24598359 85.45774476 1.65625 83.7109375 C21.92138141 58.98566442 49.87885219 28.11161021 83 23 C94.41697672 22.23098084 103.89813333 23.78489264 113 31 C127.52650951 44.01595393 132.81027709 63.61091263 134.27050781 82.49902344 C136.37473803 126.05306221 122.34168632 163.07430499 93.3125 195.3125 C92.57515625 196.11171875 91.8378125 196.9109375 91.078125 197.734375 C89.18181669 199.8017788 87.36970394 201.91750093 85.5625 204.0625 C69.7511504 222.07087084 48.7218696 234.91179383 26 242 C24.9958606 242.31457153 24.9958606 242.31457153 23.97143555 242.63549805 C17.18224926 244.45017475 10.272007 244.2685974 3.29614258 244.20581055 C1.17452121 244.1873873 -0.94666576 244.18530258 -3.06835938 244.18554688 C-14.32444239 244.14486453 -14.32444239 244.14486453 -18 243 C-18.40089844 244.24265625 -18.80179688 245.4853125 -19.21484375 246.765625 C-21.12914125 252.50739869 -23.35244911 258.11708645 -25.5625 263.75 C-34.50130306 286.81356482 -42.31972533 310.1849094 -49 334 C-49.29471191 335.03640625 -49.58942383 336.0728125 -49.89306641 337.140625 C-57.9226402 365.62660044 -63.34776687 394.95792934 -67.36572266 424.26635742 C-67.54022949 425.48299072 -67.71473633 426.69962402 -67.89453125 427.953125 C-68.03737549 429.00661133 -68.18021973 430.06009766 -68.32739258 431.14550781 C-69.33250674 435.41113207 -71.45032103 439.33561267 -75 442 C-80.88861182 443.26394497 -86.00640416 442.4370818 -91.1875 439.4375 C-92.81781843 438.32919204 -94.42353995 437.18366315 -96 436 C-97.03253906 435.24009766 -97.03253906 435.24009766 -98.0859375 434.46484375 C-112.45908173 422.90383643 -122.68991495 403.17931399 -125 385 C-125.69156708 369.39034304 -125.69603615 353.41772205 -123 338 C-122.88172852 337.28424805 -122.76345703 336.56849609 -122.64160156 335.83105469 C-116.4217134 298.93904629 -103.35078073 262.95343608 -88.44140625 228.765625 C-88.14379898 228.08307648 -87.84619171 227.40052795 -87.53956604 226.69729614 C-86.0904964 223.38232453 -84.62975299 220.07310679 -83.15161133 216.77099609 C-82.62462646 215.58070801 -82.0976416 214.39041992 -81.5546875 213.1640625 C-80.85061768 211.59325928 -80.85061768 211.59325928 -80.13232422 209.99072266 C-78.54501115 205.79827223 -77.41152728 202.50863007 -79.07421875 198.24609375 C-79.60660156 197.31925781 -80.13898438 196.39242187 -80.6875 195.4375 C-93.67141277 170.97592885 -92.27839874 140.16081972 -85.3125 114 C-84.57528672 111.65582743 -83.80069751 109.32325461 -83 107 C-82.74653809 106.25379395 -82.49307617 105.50758789 -82.23193359 104.73876953 C-70.88312365 71.793784 -52.06959245 42.9981144 -28 18 C-27.4121875 17.38495605 -26.824375 16.76991211 -26.21875 16.13623047 C-24.38566857 14.22596155 -22.53929474 12.32962106 -20.6875 10.4375 C-20.12506592 9.85355469 -19.56263184 9.26960937 -18.9831543 8.66796875 C-13.52887745 3.17114935 -8.18862735 -1.12392924 0 0 Z M80.6875 81.0625 C79.83502686 81.92294922 79.83502686 81.92294922 78.96533203 82.80078125 C74.78978921 87.06958613 70.93975614 91.52481602 67.23046875 96.20703125 C65.22866199 98.71367194 63.16620041 101.15394209 61.0703125 103.58203125 C50.8824584 115.41030253 41.68555267 128.03599481 33 141 C32.58959473 141.60827637 32.17918945 142.21655273 31.75634766 142.84326172 C25.71917811 151.82981887 20.12657895 161.04089882 14.75 170.4375 C13.87166504 171.95802979 13.87166504 171.95802979 12.97558594 173.50927734 C12.44223633 174.45367676 11.90888672 175.39807617 11.359375 176.37109375 C10.87952148 177.21599365 10.39966797 178.06089355 9.90527344 178.93139648 C9.6065332 179.61403564 9.30779297 180.2966748 9 181 C9.33 181.66 9.66 182.32 10 183 C40.0140639 177.85892869 65.97509936 163.867687 84 139 C84.5775 138.27296875 85.155 137.5459375 85.75 136.796875 C97.44176799 121.45142951 104.54997403 100.30657608 102.71484375 81 C101.7405223 75.26626857 101.7405223 75.26626857 98 71 C90.77945819 69.63395155 85.33056511 76.3396956 80.6875 81.0625 Z " fill="#101C50" transform="translate(1504,645)"/>
<path d="M0 0 C1.05039459 0.00090637 1.05039459 0.00090637 2.12200928 0.00183105 C13.66011352 0.02872717 25.0136292 0.48410273 36.4375 2.1875 C37.32050781 2.31640625 38.20351563 2.4453125 39.11328125 2.578125 C78.85880551 8.58164475 78.85880551 8.58164475 89.19921875 20.16015625 C91.10239508 23.27608217 90.80226273 25.60066649 90.4375 29.1875 C88.18362711 36.47944169 83.49816227 42.83594761 76.6875 46.5 C67.04562781 50.5421135 57.23053997 51.91420872 46.875 52.75 C46.15429321 52.81164337 45.43358643 52.87328674 44.69104004 52.9367981 C30.30283721 54.15070882 15.90012762 54.58945964 1.47073364 55.01351929 C-51.00721704 55.5495745 -51.00721704 55.5495745 -101.5625 68.1875 C-101.5625 69.1775 -101.5625 70.1675 -101.5625 71.1875 C-93.02971317 74.5421042 -84.27780708 75.53815088 -75.25 76.6875 C-73.584993 76.90579277 -71.92003584 77.12446604 -70.25512695 77.34350586 C-59.4894705 78.74651399 -48.71086594 79.98187341 -37.91113281 81.09375 C-23.76553321 82.55553039 -9.66007461 84.3225962 4.4375 86.1875 C5.4167041 86.31624512 6.3959082 86.44499023 7.40478516 86.57763672 C28.46295452 89.41052202 55.59159029 94.17622255 69.69580078 111.75585938 C70.87376359 113.45387759 71.98068532 115.17673017 73.0625 116.9375 C73.45002441 117.55802246 73.83754883 118.17854492 74.23681641 118.81787109 C81.81549469 131.14966035 85.01241931 143.48873774 84.875 158 C84.86670166 159.13783936 84.85840332 160.27567871 84.84985352 161.44799805 C84.44575187 181.63438523 76.81762298 197.28738112 62.4375 211.1875 C45.89327766 226.65567536 22.80784703 234.26206425 0.6875 236.875 C-0.36816162 237.0002002 -1.42382324 237.12540039 -2.51147461 237.25439453 C-40.03634163 241.47906747 -81.10959911 231.61164804 -111 208 C-112.52314532 206.7319386 -114.04428901 205.46146498 -115.5625 204.1875 C-116.59375 203.40375 -117.625 202.62 -118.6875 201.8125 C-127.60733159 193.66830594 -135.73654029 182.24087653 -136.86328125 169.890625 C-136.90956698 156.25176285 -134.20797321 148.07090287 -124.6796875 138.24609375 C-106.4125123 121.12523926 -79.83636599 122.55819624 -56.5625 123.1875 C-32.86618037 124.29763038 -0.50259956 129.60683765 19 144.125 C21.61441351 147.40977595 22.52310961 149.04274655 22.10546875 153.171875 C20.43580529 158.21015773 16.43960675 161.04162014 11.98046875 163.59375 C0.0150452 169.33995633 -12.20034928 172.36376303 -25.4375 172.375 C-26.18902344 172.38724609 -26.94054687 172.39949219 -27.71484375 172.41210938 C-36.99928198 172.43599729 -44.86618839 169.90700622 -53.375 166.375 C-54.68766846 165.84096558 -54.68766846 165.84096558 -56.02685547 165.29614258 C-60.76475965 163.36340352 -65.47893314 161.37812572 -70.1875 159.375 C-82.83274104 154.10022951 -94.28983872 151.13684128 -107.5625 156.1875 C-111.33787214 158.85246857 -112.29929566 160.26628481 -113.5625 164.6875 C-113.5625 168.75491894 -112.99972819 169.98770348 -110.5625 173.1875 C-91.73726919 185.18277061 -72.08254906 184.47734379 -50.5625 184.1875 C-49.75828613 184.18024902 -48.95407227 184.17299805 -48.12548828 184.16552734 C-19.50649234 183.77691497 16.60845956 176.00927236 38.4375 156.1875 C38.99050781 155.70667969 39.54351563 155.22585938 40.11328125 154.73046875 C42.45179946 152.00564664 42.51898187 148.63689898 42.4375 145.1875 C40.57914378 139.61243134 35.36314062 136.87483155 30.4375 134.1875 C-3.98275542 117.90655759 -46.38206276 117.82076165 -83.75 115.125 C-129.37880039 111.75950759 -129.37880039 111.75950759 -141.6015625 99.59765625 C-148.42795672 91.20744662 -149.33577989 81.65991911 -148.5625 71.1875 C-145.42980162 52.99520336 -136.22768006 39.9990561 -121.5625 29.1875 C-87.18991295 5.60608088 -40.67236709 -0.06539939 0 0 Z " fill="#101C50" transform="translate(910.5625,649.8125)"/>
<path d="M0 0 C5.14961456 -0.0893804 10.29887866 -0.15245308 15.4491272 -0.19104004 C17.21644122 -0.20546989 18.98372607 -0.22418498 20.75094604 -0.24743652 C23.25612106 -0.27750801 25.76059352 -0.28685139 28.26593018 -0.29101562 C29.01418564 -0.303302 29.7624411 -0.31558838 30.53337097 -0.32824707 C41.59975715 -0.28282449 48.96458365 5.44655193 56.75030518 12.81054688 C63.80610478 20.29100109 71.3683822 31.06691842 72.12530518 41.47460938 C71.84463737 45.47412555 71.58247252 47.08383591 68.87530518 50.03710938 C55.08982634 56.32522253 37.57116812 56.6823122 22.62530518 58.09960938 C21.32848312 58.22559509 21.32848312 58.22559509 20.00546265 58.35412598 C0.99414347 60.19046508 -18.04524198 61.22947875 -37.12469482 62.03710938 C-37.31587891 62.67849854 -37.50706299 63.3198877 -37.70404053 63.98071289 C-39.53010159 70.09014109 -41.42147316 76.175675 -43.35516357 82.25195312 C-44.25785425 85.03746671 -44.25785425 85.03746671 -44.12469482 88.03710938 C-43.25071045 87.96709717 -42.37672607 87.89708496 -41.47625732 87.82495117 C-32.12086504 87.13175485 -22.81642826 86.8508134 -13.43621826 86.85180664 C-11.12646267 86.84961106 -8.81717982 86.83133151 -6.50750732 86.8125 C0.77201747 86.78220414 8.00871301 86.95177392 15.25030518 87.73632812 C16.43366455 87.86225342 17.61702393 87.98817871 18.83624268 88.11791992 C22.63387791 89.26654594 23.78125684 90.72639167 25.87530518 94.03710938 C28.60064515 102.2131293 27.97297768 115.95853385 24.68780518 123.91210938 C20.58138337 128.72653494 15.03711207 129.60001566 9.01593018 130.15429688 C8.24283508 130.23243622 7.46973999 130.31057556 6.67321777 130.39108276 C-2.93599739 131.29995407 -12.57897706 131.67762488 -22.22137451 132.04248047 C-25.384786 132.16249221 -28.54767632 132.29240471 -31.71063232 132.42382812 C-42.18736568 132.84759643 -52.63783934 133.18193004 -63.12469482 133.03710938 C-63.3703418 134.0503125 -63.61598877 135.06351563 -63.86907959 136.10742188 C-66.06291774 145.1187626 -68.50448406 154.0377888 -71.10565186 162.94018555 C-71.35299072 163.7907251 -71.60032959 164.64126465 -71.85516357 165.51757812 C-72.18617065 166.64522583 -72.18617065 166.64522583 -72.52386475 167.7956543 C-73.16667466 170.19371925 -73.66209127 172.59843959 -74.12469482 175.03710938 C-73.33635254 174.87629883 -72.54801025 174.71548828 -71.73577881 174.54980469 C-54.90705149 171.12618491 -38.07757267 167.79597653 -21.12469482 165.03710938 C-20.01932373 164.85374023 -18.91395264 164.67037109 -17.77508545 164.48144531 C18.35777099 158.53973186 18.35777099 158.53973186 26.43780518 163.03710938 C32.81603983 168.01524374 38.18709865 173.86894304 39.28155518 182.08789062 C39.4722304 188.72179955 39.28643568 193.18373 34.75421143 198.22070312 C34.13417236 198.82011719 33.5141333 199.41953125 32.87530518 200.03710938 C32.24495361 200.66746094 31.61460205 201.2978125 30.96514893 201.94726562 C2.18127841 229.00948407 -41.52986778 249.8469832 -81.32391357 249.18164062 C-95.1232763 248.6568961 -105.72305442 241.92580493 -115.12469482 232.03710938 C-121.25538264 225.11917791 -126.54725654 218.04413554 -129.12469482 209.03710938 C-129.47789795 207.83054687 -129.83110107 206.62398437 -130.19500732 205.38085938 C-135.24010207 184.6675139 -129.05249409 161.57819803 -121.5914917 142.29345703 C-119.20146673 135.78740113 -118.84639653 131.5936005 -121.12469482 125.03710938 C-121.40571045 124.080625 -121.68672607 123.12414062 -121.97625732 122.13867188 C-122.2314917 121.32140625 -122.48672607 120.50414062 -122.74969482 119.66210938 C-124.62421484 112.84306463 -125.11334639 106.43559915 -123.12469482 99.59960938 C-119.57528888 95.05193301 -115.59709656 93.39722664 -109.93328857 92.57226562 C-106.99485008 92.31901178 -104.07205559 92.13535473 -101.12469482 92.03710938 C-100.88364014 91.23789062 -100.64258545 90.43867187 -100.39422607 89.61523438 C-98.82195748 85.18385582 -96.84896001 81.02078778 -94.81219482 76.78710938 C-94.41137695 75.94752686 -94.01055908 75.10794434 -93.59759521 74.24291992 C-90.83709597 68.47573737 -88.03676589 62.7295498 -85.12469482 57.03710938 C-86.32352295 57.03324219 -86.32352295 57.03324219 -87.54656982 57.02929688 C-97.79308485 56.66850409 -106.2972589 53.91102009 -113.93719482 46.84960938 C-119.61431569 40.53084831 -124.57839369 33.70413307 -125.54266357 25.10742188 C-124.89133395 21.8812097 -123.4461329 20.33982617 -121.12469482 18.03710938 C-109.69863273 12.8125531 -96.42264196 11.1059034 -84.12469482 9.03710938 C-82.69117676 8.79178467 -82.69117676 8.79178467 -81.22869873 8.54150391 C-54.46736559 4.01578761 -27.15745718 0.47432518 0 0 Z " fill="#101C50" transform="translate(1352.1246948242188,652.962890625)"/>
<path d="M0 0 C10.67604136 0.93789522 19.02577482 10.72277358 26.3125 17.75 C26.94929688 18.32363281 27.58609375 18.89726563 28.2421875 19.48828125 C58.29205764 47.30957251 72.47228459 96.50731068 74.42651367 136.05743408 C74.49197174 138.4734836 74.52873808 140.88785275 74.55078125 143.3046875 C74.56052979 144.19593323 74.57027832 145.08717896 74.58032227 146.00543213 C75.21562158 219.16491309 75.21562158 219.16491309 51.1796875 243.94921875 C43.49696053 251.19025584 35.23495967 255.16184135 24.546875 254.9609375 C12.40588757 253.81476037 3.06669095 246.73068864 -4.6875 237.75 C-16.55539265 223.03586446 -26.65618503 207.3250363 -35.6875 190.75 C-36.65849328 188.98157263 -37.62986745 187.21335437 -38.6015625 185.4453125 C-44.0582888 175.49634496 -49.42741097 165.5044191 -54.72265625 155.46875 C-60.02590624 143.12351744 -60.02590624 143.12351744 -68.6875 133.75 C-70.0868238 147.21915002 -70.925021 160.66290778 -71.3984375 174.19140625 C-71.45444472 175.75450653 -71.51045468 177.3176067 -71.56646729 178.88070679 C-71.79404074 185.30836878 -72.01467223 191.73618611 -72.21386719 198.16479492 C-73.19437749 229.44453419 -73.19437749 229.44453419 -75.5390625 242.52734375 C-75.68983246 243.36987198 -75.84060242 244.21240021 -75.99594116 245.08045959 C-77.37828039 251.82470137 -79.67732127 258.78670449 -85.25 263.1875 C-85.82878906 263.66058594 -86.40757813 264.13367188 -87.00390625 264.62109375 C-92.52549445 268.3235044 -100.32334483 267.21715607 -106.6875 266.75 C-112.74423012 265.13281186 -117.33443983 259.83797688 -120.6875 254.75 C-142.27107506 208.49948201 -124.07863667 126.848892 -108.53955078 81.07666016 C-104.37588291 69.70710289 -98.85348059 58.89081216 -88.8125 51.6875 C-82.88455831 49.90911749 -77.88935151 49.6829682 -72.26171875 52.41015625 C-68.51250255 54.69985071 -65.49217297 57.48871725 -62.4375 60.625 C-61.87885254 61.19234863 -61.32020508 61.75969727 -60.74462891 62.34423828 C-54.87177854 68.42034758 -49.72864686 74.98035552 -44.6875 81.75 C-44.23133301 82.35602051 -43.77516602 82.96204102 -43.30517578 83.58642578 C-29.05607565 102.53368914 -16.6915895 122.64977569 -4.5625 143 C-0.74423117 149.39836715 3.15000434 155.73736474 7.1875 162 C7.61562988 162.66676758 8.04375977 163.33353516 8.48486328 164.02050781 C11.20038981 168.19450936 14.10175918 172.16234285 17.18017578 176.07714844 C18.3125 177.75 18.3125 177.75 18.3125 179.75 C19.9625 180.08 21.6125 180.41 23.3125 180.75 C25.36179631 135.5895814 8.28747018 86.67032153 -3.5234375 43.51953125 C-3.71252182 42.82648392 -3.90160614 42.13343658 -4.09642029 41.41938782 C-5.12454184 37.68293293 -6.24466741 33.99261831 -7.4453125 30.30859375 C-8.89918213 25.51851319 -9.20366195 20.98596271 -9.1875 16 C-9.21585938 15.18917969 -9.24421875 14.37835937 -9.2734375 13.54296875 C-9.2869939 9.37437478 -8.99518104 6.566881 -6.38671875 3.21875 C-3.6875 0.75 -3.6875 0.75 0 0 Z " fill="#101C50" transform="translate(1136.6875,618.25)"/>
<path d="M0 0 C0.78012451 -0.00099701 1.56024902 -0.00199402 2.36401367 -0.00302124 C4.00807928 0.0016452 5.65216113 0.02101518 7.29589844 0.05419922 C9.80534247 0.10142779 12.31053632 0.09531309 14.8203125 0.08203125 C16.4219002 0.09318565 18.02347009 0.107406 19.625 0.125 C20.37096436 0.12317719 21.11692871 0.12135437 21.88549805 0.11947632 C25.45933845 0.21622268 27.6490012 0.62634514 30.71850586 2.5078125 C35.970283 8.07247971 36.55574136 16.79954229 37.75 24.1015625 C37.91693359 25.09776611 38.08386719 26.09396973 38.25585938 27.12036133 C38.78582259 30.32073376 39.30109979 33.52317479 39.8125 36.7265625 C39.9789502 37.75604004 40.14540039 38.78551758 40.31689453 39.84619141 C42.40787764 52.90103901 44.17040064 65.99334094 45.68115234 79.12710571 C45.84513737 80.55008576 46.01156866 81.97278739 46.18115234 83.39511108 C48.1189509 99.77774954 48.88734791 116.26267261 49.8125 132.7265625 C50.4572613 132.72287533 51.10202261 132.71918816 51.76632214 132.71538925 C67.45702095 132.62704001 83.14763322 132.5608539 98.8385191 132.51931381 C106.42653526 132.49869121 114.01438535 132.47057659 121.60229492 132.42480469 C128.21616614 132.38492742 134.82991708 132.35912748 141.44390517 132.35020852 C144.94580939 132.34499519 148.44736953 132.33274891 151.94916344 132.30364227 C155.85899667 132.27140785 159.76849374 132.27060367 163.6784668 132.27246094 C164.83868347 132.25807983 165.99890015 132.24369873 167.1942749 132.22888184 C175.0447934 132.2693364 175.0447934 132.2693364 179.00837708 134.62994385 C182.24573863 138.39216677 182.0031744 141.63597966 182.05078125 146.40234375 C182.058853 147.16451706 182.06692474 147.92669037 182.07524109 148.71195984 C182.08907975 150.32674893 182.09980289 151.94156724 182.10766602 153.55639648 C182.12486192 156.01928583 182.16874507 158.48082656 182.21289062 160.94335938 C182.22301935 162.51301097 182.23153489 164.08267397 182.23828125 165.65234375 C182.25578934 166.38584549 182.27329742 167.11934723 182.29133606 167.87507629 C182.27585918 171.54592001 181.9229628 173.55565645 179.91088867 176.66870117 C176.7954468 179.72397279 175.11479064 179.85111027 170.86447144 179.84681702 C169.818367 179.84819168 168.77226257 179.84956635 167.69445801 179.85098267 C166.54215698 179.84738739 165.38985596 179.84379211 164.20263672 179.84008789 C162.99290192 179.84023392 161.78316711 179.84037994 160.53677368 179.8405304 C157.21465979 179.83995206 153.89260763 179.83492805 150.57050467 179.82795644 C147.10048192 179.82171588 143.6304584 179.82111854 140.16043091 179.81993103 C133.58728602 179.81681979 127.01415771 179.80860919 120.44102013 179.79858154 C112.95865166 179.78741398 105.47628241 179.78190833 97.99390769 179.77688611 C82.60009551 179.76642641 67.20629989 179.74883097 51.8125 179.7265625 C51.81413651 181.02035828 51.81577301 182.31415405 51.81745911 183.64715576 C51.82317042 188.5063673 51.82672301 193.36557855 51.82966614 198.22479248 C51.8312252 200.31683401 51.83334819 202.4088752 51.83607483 204.50091553 C51.86481773 227.1422046 50.96286212 249.57903847 49.375 272.1640625 C49.31355804 273.0557312 49.25211609 273.9473999 49.18881226 274.86608887 C47.3864752 300.70864557 47.3864752 300.70864557 43.375 305.8515625 C37.73502505 309.97837344 30.94251917 309.02221775 24.24389648 309.07666016 C22.7531776 309.09320388 21.26253754 309.12047387 19.7722168 309.15869141 C17.61205327 309.21373047 15.45374087 309.23537109 13.29296875 309.25 C12.00285889 309.26981934 10.71274902 309.28963867 9.38354492 309.31005859 C4.6571675 308.53778526 3.10633876 307.15875614 -0.1875 303.7265625 C-2.15937523 296.01612793 -0.80823657 287.89112874 -0.09490967 280.0402832 C0.28748333 275.79967965 0.63437423 271.55619821 0.98046875 267.3125 C1.0880249 265.99671967 1.0880249 265.99671967 1.19775391 264.65435791 C1.93134304 255.51945646 2.46592596 246.37828188 2.9375 237.2265625 C2.9947374 236.1705484 2.9947374 236.1705484 3.0531311 235.09320068 C4.04449963 216.65509481 4.36012038 198.18393437 4.8125 179.7265625 C4.17804616 179.73117146 3.54359232 179.73578043 2.88991261 179.74052906 C-12.55041047 179.85096874 -27.99059611 179.93369953 -43.43121624 179.98562336 C-50.89821752 180.01140106 -58.36495509 180.04654279 -65.83178711 180.10375977 C-72.34018356 180.15360864 -78.84838903 180.18585669 -85.35697109 180.19700497 C-88.80307299 180.20352142 -92.24862856 180.21882638 -95.69455528 180.25521278 C-99.5421609 180.29551076 -103.38923288 180.29651096 -107.23706055 180.29418945 C-108.37857574 180.31216583 -109.52009094 180.33014221 -110.69619751 180.34866333 C-118.42843872 180.29805893 -118.42843872 180.29805893 -122.35354614 177.34284973 C-127.05808177 170.6314396 -126.52110377 164.30346168 -126.5 156.3515625 C-126.51611328 155.145 -126.53222656 153.9384375 -126.54882812 152.6953125 C-126.5523264 146.32845501 -126.54857329 141.23477742 -123.1875 135.7265625 C-120.1654757 132.93450799 -118.19162052 132.35310569 -114.112854 132.36579895 C-113.08924271 132.36167496 -112.06563141 132.35755096 -111.01100159 132.353302 C-109.89394333 132.36408783 -108.77688507 132.37487366 -107.62597656 132.38598633 C-106.44521042 132.38554825 -105.26444427 132.38511017 -104.04789734 132.38465881 C-100.81461026 132.38638993 -97.58171341 132.40142852 -94.34850407 132.42238069 C-90.96792867 132.44114281 -87.5873455 132.44289755 -84.20672607 132.44645691 C-77.80712013 132.45577877 -71.40766805 132.48039435 -65.00812984 132.51050538 C-57.72161946 132.54404508 -50.43510171 132.5605343 -43.14853334 132.57559168 C-28.16143652 132.60694386 -13.17448365 132.659707 1.8125 132.7265625 C1.42320835 127.62577296 1.03008722 122.52529643 0.63375854 117.42504883 C0.50007341 115.69823753 0.36734715 113.97135166 0.23568726 112.24438477 C-1.96887395 83.35485589 -5.9168449 54.84774359 -11.171875 26.359375 C-11.38541626 25.19148437 -11.38541626 25.19148437 -11.60327148 24 C-11.96231673 22.05563191 -12.33394031 20.11359689 -12.70703125 18.171875 C-14.10064512 8.17864381 -14.10064512 8.17864381 -11.17504883 3.52636719 C-7.99608764 -0.04553007 -4.56838087 -0.11280333 0 0 Z " fill="#101C50" transform="translate(1818.1875,585.2734375)"/>
<path d="M0 0 C2.89266523 2.53285745 5.54331718 5.19081078 8.13671875 8.02734375 C10.67155579 10.32453981 12.97477763 10.41377591 16.25390625 11.046875 C30.02611477 14.83516542 41.84489537 23.19928722 49.19921875 35.52734375 C55.12453212 46.68482062 54.72720415 62.03667099 51.23046875 73.88671875 C43.77227374 94.02384529 29.50363962 109.34819276 13.13671875 122.83984375 C12.60175781 123.28328125 12.06679688 123.72671875 11.515625 124.18359375 C3.70993085 130.62958633 -4.0931763 136.73989825 -12.86328125 141.83984375 C-13.49540527 142.21318848 -14.1275293 142.5865332 -14.77880859 142.97119141 C-46.05142467 161.35013628 -78.71423363 170.89647129 -114.86328125 162.83984375 C-116.8767981 162.21518836 -118.88405823 161.56587452 -120.86328125 160.83984375 C-121.38277344 161.731875 -121.90226563 162.62390625 -122.4375 163.54296875 C-123.14142354 164.72556029 -123.84587901 165.90783532 -124.55078125 167.08984375 C-124.89044922 167.67636719 -125.23011719 168.26289062 -125.58007812 168.8671875 C-128.27217039 173.34562136 -131.16739709 176.49190167 -135.86328125 178.83984375 C-140.48228861 179.48650478 -143.23116621 178.96555483 -146.98828125 176.33984375 C-153.75141366 170.74096431 -157.33281895 163.41703895 -158.86328125 154.83984375 C-159.08662421 151.96758243 -159.19365892 149.09348468 -159.30078125 146.21484375 C-159.55397799 139.86982941 -160.13390875 135.07508274 -163.86328125 129.83984375 C-168.39247472 123.36783271 -171.49986693 117.40731461 -173.86328125 109.83984375 C-174.48203125 108.01453125 -174.48203125 108.01453125 -175.11328125 106.15234375 C-179.16561068 88.10105812 -173.06806826 70.24203365 -163.86328125 54.83984375 C-150.42304287 34.56033513 -131.98393061 18.66621582 -110.86328125 6.83984375 C-110.30431152 6.51161621 -109.7453418 6.18338867 -109.16943359 5.84521484 C-77.54369646 -12.67451079 -31.80906311 -23.99783342 0 0 Z M-93.30859375 39.640625 C-104.64139737 43.46388952 -113.93725263 49.98006429 -122.86328125 57.83984375 C-123.92346213 58.65536751 -124.98553859 59.46844291 -126.05078125 60.27734375 C-134.16200571 67.66757048 -141.99890753 77.58384188 -143.05078125 88.84765625 C-143.18414178 93.23188363 -142.48539105 96.78456925 -140.86328125 100.83984375 C-136.96635568 99.54086856 -135.81795465 97.19006194 -133.67578125 93.90234375 C-127.73581258 85.06869947 -121.13613118 77.0106753 -113.953125 69.15234375 C-112.17971284 67.18998861 -110.4817788 65.19322966 -108.80078125 63.15234375 C-106.13175449 60.00670507 -103.14803839 57.39635842 -100.0078125 54.73046875 C-97.64753618 52.64964227 -95.44628067 50.45624148 -93.23828125 48.21484375 C-89.92613401 44.85677419 -86.55408291 41.77355789 -82.86328125 38.83984375 C-86.33448222 37.10424327 -89.68921377 38.6815327 -93.30859375 39.640625 Z M-46.86328125 64.83984375 C-47.85328125 65.61585938 -48.84328125 66.391875 -49.86328125 67.19140625 C-56.66102473 72.62564885 -63.06905493 78.46316527 -69.38671875 84.44238281 C-70.68584768 85.67191555 -71.99271653 86.89325935 -73.30078125 88.11328125 C-83.10172553 97.52918843 -91.00232927 108.80297707 -98.86328125 119.83984375 C-88.84702522 126.51734777 -68.14110774 122.01621934 -56.92578125 119.77734375 C-30.33097234 114.05079234 -0.7863871 101.20135508 15.00390625 77.77734375 C19.12017324 70.7371078 21.27326918 64.02300686 20.13671875 55.83984375 C18.07547389 49.53485947 13.34607734 45.65025116 7.69921875 42.46484375 C-12.20861477 37.6092746 -32.24688507 53.21459992 -46.86328125 64.83984375 Z " fill="#101C50" transform="translate(812.86328125,456.16015625)"/>
<path d="M0 0 C8.0017525 3.56147366 12.82509169 9.6438264 16.125 17.625 C21.18221227 33.23548582 22.5110316 49.68244286 23.984375 65.93359375 C24.11437519 67.35769121 24.11437519 67.35769121 24.24700165 68.81055832 C26.18246183 90.25535373 27.24730059 111.71623323 28.12890625 133.22631836 C28.29208346 137.13237293 28.46744073 141.03784517 28.64258575 144.94337845 C30.14103619 178.47014769 30.14103619 178.47014769 30.234375 194.9921875 C30.24454651 195.9636673 30.25471802 196.93514709 30.26519775 197.93606567 C30.23685199 207.24826934 29.8456872 218.3028928 24 226 C17.00605264 232.70070009 10.80764556 233.3176653 1.3515625 233.2109375 C-6.99494583 232.68563278 -14.07500115 230.01757696 -20 224 C-28.57551662 212.9456231 -28.99293644 197.10965499 -29.5546875 183.65625 C-29.59673309 182.66040894 -29.63877869 181.66456787 -29.68209839 180.6385498 C-30.1476355 168.59416419 -30.15425085 156.55166872 -30.125 144.5 C-30.12311676 143.31922882 -30.12123352 142.13845764 -30.11929321 140.92190552 C-30.06675174 112.75943937 -29.40722526 84.99293678 -26 57 C-25.87866699 55.97487305 -25.75733398 54.94974609 -25.63232422 53.89355469 C-20.54604203 11.4262467 -20.54604203 11.4262467 -11.3125 1.8125 C-7.16827561 -1.43567588 -5.16393684 -1.16605025 0 0 Z " fill="#101C50" transform="translate(722,660)"/>
<path d="M0 0 C4.99735877 2.22104834 8.59121485 5.44078032 12.09765625 9.57421875 C16.22564735 14.33325753 20.64806007 18.75881896 25.125 23.1875 C25.91003906 23.96802734 26.69507813 24.74855469 27.50390625 25.55273438 C30.52947278 28.56044343 33.5588719 31.5641867 36.59375 34.5625 C39.9128414 37.92469648 43.14483901 41.36504907 46.375 44.8125 C47.00921875 45.48603516 47.6434375 46.15957031 48.296875 46.85351562 C52.63670966 51.48119646 56.84313243 56.20793793 61 61 C62.04621108 62.19068785 63.09306925 63.3808075 64.140625 64.5703125 C70.84910973 72.22299382 77.29667064 80.01839848 83.51074219 88.07666016 C85.14557387 90.18800507 86.794484 92.28786031 88.4453125 94.38671875 C94.03643783 101.50758445 99.57865896 108.65604964 104.875 116 C105.29789307 116.58136719 105.72078613 117.16273438 106.15649414 117.76171875 C109 121.7570168 109 121.7570168 109 124 C109.66 124 110.32 124 111 124 C112.7265625 126.3359375 112.7265625 126.3359375 114.625 129.375 C115.25664063 130.37273437 115.88828125 131.37046875 116.5390625 132.3984375 C118 135 118 135 118 137 C118.66 137 119.32 137 120 137 C120 137.99 120 138.98 120 140 C120.66 140 121.32 140 122 140 C123.33984375 142.02734375 123.33984375 142.02734375 124.9375 144.9375 C127.82903961 150.04688029 130.89589094 154.97322979 134.125 159.875 C143.53381228 174.27607686 152.09810771 189.17447426 160.375 204.25 C160.9529834 205.2922876 161.5309668 206.3345752 162.12646484 207.40844727 C162.64934082 208.37194092 163.1722168 209.33543457 163.7109375 210.328125 C164.17806152 211.1830957 164.64518555 212.03806641 165.12646484 212.91894531 C165.41473145 213.60569336 165.70299805 214.29244141 166 215 C165.67 215.66 165.34 216.32 165 217 C156 202.79918033 156 202.79918033 156 200 C155.34 199.67 154.68 199.34 154 199 C152.93738621 197.11732556 151.94780772 195.19300583 151 193.25 C150.484375 192.20328125 149.96875 191.1565625 149.4375 190.078125 C148.19292234 187.41310545 147.05686831 184.74379273 146 182 C145.34 182 144.68 182 144 182 C142.5393715 179.35261084 142 178.10551666 142 175 C141.34 175 140.68 175 140 175 C139.16151196 173.54462432 138.32936066 172.08559627 137.5 170.625 C137.0359375 169.81289063 136.571875 169.00078125 136.09375 168.1640625 C135 166 135 166 135 164 C134.34 164 133.68 164 133 164 C132.03810003 162.27281484 131.08063492 160.54315942 130.125 158.8125 C129.59132813 157.84957031 129.05765625 156.88664063 128.5078125 155.89453125 C127.1576322 153.30260482 126.02901671 150.73238902 125 148 C124.34 148 123.68 148 123 148 C122.67 147.01 122.34 146.02 122 145 C121.55785156 144.56945312 121.11570312 144.13890625 120.66015625 143.6953125 C117.57552074 140.54535529 115.75533556 136.44505346 113.62109375 132.6171875 C112.26268448 129.91263861 112.26268448 129.91263861 110 129 C109.0156792 127.26103325 108.03397834 125.52040054 107.078125 123.765625 C105.99020326 121.81890557 105.99020326 121.81890557 103.875 119.9375 C101.52634426 117.51055574 100.87873968 115.22204549 100 112 C99.34 112 98.68 112 98 112 C98 111.34 98 110.68 98 110 C97.34 109.67 96.68 109.34 96 109 C94.99987676 107.59125498 94.0477382 106.14810373 93.125 104.6875 C90.9958365 101.39982107 88.82977193 98.72093455 86 96 C86 95.34 86 94.68 86 94 C85.34 94 84.68 94 84 94 C84 93.01 84 92.02 84 91 C82.515 90.505 82.515 90.505 81 90 C77 84.62857143 77 84.62857143 77 82 C76.34 82 75.68 82 75 82 C71 77.52941176 71 77.52941176 71 75 C69.515 74.505 69.515 74.505 68 74 C66.98648336 72.34151823 65.98879205 70.67334039 65 69 C64.13375 68.13375 63.2675 67.2675 62.375 66.375 C60 64 60 64 59 61 C58.01 60.67 57.02 60.34 56 60 C54.64721885 58.01310269 53.31431695 56.01254782 52 54 C51.01 53.34 50.02 52.68 49 52 C49 51.34 49 50.68 49 50 C48.34 50 47.68 50 47 50 C45.83949358 48.65064476 44.74843529 47.24146852 43.6875 45.8125 C40.10818258 41.21146214 36.25350547 37.05115679 32.125 32.9375 C31.55354248 32.36555908 30.98208496 31.79361816 30.39331055 31.2043457 C27.46837301 28.24183612 27.46837301 28.24183612 24 26 C24 25.34 24 24.68 24 24 C23.34 24 22.68 24 22 24 C20.66796875 22.64453125 20.66796875 22.64453125 19.1875 20.8125 C16.59985732 17.69613225 13.90103405 14.83356814 11 12 C10.26007813 11.24976563 9.52015625 10.49953125 8.7578125 9.7265625 C7.95085937 8.90929687 7.14390625 8.09203125 6.3125 7.25 C5.54550781 6.47140625 4.77851562 5.6928125 3.98828125 4.890625 C2.1389301 2.94769385 2.1389301 2.94769385 0 2 C0 1.34 0 0.68 0 0 Z " fill="#112860" transform="translate(1597,258)"/>
<path d="M0 0 C3.19363953 1.37859928 4.99361769 2.88108828 7.1875 5.5625 C9.83250684 8.6945959 12.57615084 11.62596087 15.5 14.5 C18.89137292 17.85127223 22.08887487 21.2917305 25.19140625 24.91015625 C27.23342054 27.2697192 29.33399528 29.57013415 31.4375 31.875 C35.07716457 35.90747828 38.49619171 40.06111432 41.85546875 44.328125 C43.79790203 46.74820581 45.79279523 49.11307515 47.81591797 51.46582031 C54.26344016 58.97147983 60.28821137 66.7612369 66.23925781 74.6640625 C68.0780289 77.10351921 69.92546269 79.53625991 71.7734375 81.96875 C79.46899522 92.12829195 86.89970094 102.41631143 94 113 C94.68191406 114.00933594 95.36382813 115.01867187 96.06640625 116.05859375 C98.06103012 119.02836706 100.03512781 122.01045615 102 125 C102.41749512 125.63518555 102.83499023 126.27037109 103.26513672 126.92480469 C108.35779445 134.6894114 113.37504125 142.49553817 118.1875 150.4375 C118.57413818 151.07018799 118.96077637 151.70287598 119.35913086 152.35473633 C122 156.76024434 122 156.76024434 122 159 C121.34 159 120.68 159 120 159 C119.52691406 158.15179688 119.05382813 157.30359375 118.56640625 156.4296875 C114.54057825 149.27128781 110.35566061 142.27771116 105.79516602 135.44482422 C103 131.20740922 103 131.20740922 103 129 C102.34 129 101.68 129 101 129 C100.67 128.01 100.34 127.02 100 126 C99.32904297 125.34064453 99.32904297 125.34064453 98.64453125 124.66796875 C96.46795484 122.46037225 95.19462046 120.01838753 93.6875 117.3125 C91.13120239 112.82814741 88.39928679 108.74902233 85.22265625 104.69140625 C83.70725288 102.59501756 82.76997034 100.46390508 82 98 C81.34 98 80.68 98 80 98 C78.78125 96.28515625 78.78125 96.28515625 77.5 94.0625 C75.81545121 90.94567974 75.81545121 90.94567974 73 89 C72.1125595 87.39578063 71.22711045 85.79042839 70.3515625 84.1796875 C68.11130087 80.56678001 65.33798214 77.38814295 62.609375 74.13671875 C61 72 61 72 61 70 C60.34 70 59.68 70 59 70 C57.81149144 68.50674566 56.7013947 66.95098717 55.625 65.375 C50.53339266 58.18739401 44.79960345 51.62002492 39 45 C37.97132812 43.81857422 37.97132812 43.81857422 36.921875 42.61328125 C35.28601862 40.73794139 33.64336201 38.86876078 32 37 C31.45214844 36.3709375 30.90429688 35.741875 30.33984375 35.09375 C27.79656334 32.17390188 25.24602696 29.26831935 22.62890625 26.4140625 C21.82324219 25.53492188 21.01757812 24.65578125 20.1875 23.75 C19.43855469 22.94046875 18.68960937 22.1309375 17.91796875 21.296875 C16.2035891 19.24380935 15.05775205 17.44010525 14 15 C13.34 15 12.68 15 12 15 C7.47258119 10.47258119 3.81635832 5.12664134 0 0 Z " fill="#102058" transform="translate(1658,255)"/>
<path d="M0 0 C3.39417765 3.12621626 5.6062718 5.56541027 7 10 C7.66 10 8.32 10 9 10 C9 10.99 9 11.98 9 13 C9.66 13 10.32 13 11 13 C12.33984375 15.02734375 12.33984375 15.02734375 13.9375 17.9375 C16.82903961 23.04688029 19.89589094 27.97322979 23.125 32.875 C32.53381228 47.27607686 41.09810771 62.17447426 49.375 77.25 C49.9529834 78.2922876 50.5309668 79.3345752 51.12646484 80.40844727 C51.64934082 81.37194092 52.1722168 82.33543457 52.7109375 83.328125 C53.17806152 84.1830957 53.64518555 85.03806641 54.12646484 85.91894531 C54.41473145 86.60569336 54.70299805 87.29244141 55 88 C54.67 88.66 54.34 89.32 54 90 C45 75.79918033 45 75.79918033 45 73 C44.01 72.505 44.01 72.505 43 72 C41.93738621 70.11732556 40.94780772 68.19300583 40 66.25 C39.484375 65.20328125 38.96875 64.1565625 38.4375 63.078125 C37.19292234 60.41310545 36.05686831 57.74379273 35 55 C34.34 55 33.68 55 33 55 C31.5393715 52.35261084 31 51.10551666 31 48 C30.34 48 29.68 48 29 48 C28.16151196 46.54462432 27.32936066 45.08559627 26.5 43.625 C26.0359375 42.81289063 25.571875 42.00078125 25.09375 41.1640625 C24 39 24 39 24 37 C23.34 37 22.68 37 22 37 C21.03810003 35.27281484 20.08063492 33.54315942 19.125 31.8125 C18.32449219 30.36810547 18.32449219 30.36810547 17.5078125 28.89453125 C16.1576322 26.30260482 15.02901671 23.73238902 14 21 C13.34 21 12.68 21 12 21 C11.67 20.01 11.34 19.02 11 18 C10.55914063 17.566875 10.11828125 17.13375 9.6640625 16.6875 C7.39313034 14.38458288 5.98690233 11.79853681 4.375 9 C3.76398438 7.948125 3.15296875 6.89625 2.5234375 5.8125 C1 3 1 3 0 0 Z " fill="#112156" transform="translate(1708,385)"/>
<path d="M0 0 C0.33 0.66 0.66 1.32 1 2 C0.34 1.67 -0.32 1.34 -1 1 C-0.67 0.67 -0.34 0.34 0 0 Z M-3 2 C-2.34 2.33 -1.68 2.66 -1 3 C-4.51589814 7.27263118 -8.14577035 11.22820889 -12.3125 14.875 C-17.46257778 19.41499165 -22.32973548 24.21213685 -27.1875 29.0625 C-27.94780518 29.81837402 -28.70811035 30.57424805 -29.49145508 31.35302734 C-33.61798983 35.48991105 -37.57721719 39.71281086 -41.38989258 44.14038086 C-44.23439812 47.42568771 -47.20755682 50.59282964 -50.16796875 53.7734375 C-52.13563933 55.90275807 -54.00476985 58.00660777 -55.703125 60.359375 C-56.13109375 60.90078125 -56.5590625 61.4421875 -57 62 C-57.66 62 -58.32 62 -59 62 C-57.32598022 58.04322598 -54.86850715 55.15535787 -52 52 C-51.34 52 -50.68 52 -50 52 C-49.73082764 51.40936768 -49.46165527 50.81873535 -49.18432617 50.21020508 C-47.99881181 47.99778259 -46.76746345 46.45664012 -45.05078125 44.63671875 C-44.45700684 44.00419189 -43.86323242 43.37166504 -43.25146484 42.7199707 C-42.61160645 42.04925537 -41.97174805 41.37854004 -41.3125 40.6875 C-40.6520166 39.98906982 -39.9915332 39.29063965 -39.31103516 38.57104492 C-32.84870664 31.77177069 -26.22648719 25.13502748 -19.55639648 18.5402832 C-17.36224532 16.36884796 -15.18104447 14.18459089 -13 12 C-8 7 -8 7 -3 2 Z " fill="#8BE2ED" transform="translate(476,226)"/>
<path d="M0 0 C0 4.30201555 -2.57085176 6.26719742 -5.3125 9.3125 C-9.58297094 14.16718406 -13.72295242 19.07948299 -17.6875 24.1875 C-18.58712162 25.3425398 -19.48685959 26.49748899 -20.38671875 27.65234375 C-20.82032715 28.20905762 -21.25393555 28.76577148 -21.70068359 29.33935547 C-23.77826699 31.99469599 -25.88253366 34.62625738 -28 37.25 C-29.051875 38.55710937 -29.051875 38.55710937 -30.125 39.890625 C-32 42 -32 42 -35 44 C-34.690625 43.401875 -34.38125 42.80375 -34.0625 42.1875 C-32.89790296 39.91043228 -32.89790296 39.91043228 -32 37 C-31.01 36.505 -31.01 36.505 -30 36 C-29.67 35.01 -29.34 34.02 -29 33 C-27.69205669 31.64175118 -26.35099103 30.31543863 -25 29 C-17.35195182 20.6169446 -10.23162236 11.74272286 -3.41015625 2.6796875 C-2 1 -2 1 0 0 Z " fill="#85D6E4" transform="translate(416,288)"/>
<path d="M0 0 C0 0.99 0 1.98 0 3 C-1.50610352 4.45117188 -1.50610352 4.45117188 -3.62890625 5.96875 C-4.41031982 6.53513184 -5.1917334 7.10151367 -5.99682617 7.68505859 C-6.84349854 8.28398926 -7.6901709 8.88291992 -8.5625 9.5 C-9.41626221 10.11568848 -10.27002441 10.73137695 -11.1496582 11.36572266 C-12.90543849 12.63187109 -14.6638475 13.89438186 -16.42480469 15.15332031 C-20.20239627 17.8622417 -23.94445493 20.61866154 -27.6875 23.375 C-28.92029799 24.27902086 -30.15334211 25.18270626 -31.38671875 26.0859375 C-32.68029297 27.03339844 -32.68029297 27.03339844 -34 28 C-34.66 27.67 -35.32 27.34 -36 27 C-34.625 25.5 -34.625 25.5 -33 24 C-32.34 24 -31.68 24 -31 24 C-31 23.34 -31 22.68 -31 22 C-29.66162109 20.83007812 -29.66162109 20.83007812 -27.7734375 19.53125 C-27.07726318 19.04688477 -26.38108887 18.56251953 -25.66381836 18.06347656 C-24.9085083 17.5475293 -24.15319824 17.03158203 -23.375 16.5 C-21.82132378 15.42229412 -20.26794325 14.34416184 -18.71484375 13.265625 C-17.92835449 12.72228516 -17.14186523 12.17894531 -16.33154297 11.61914062 C-12.8427338 9.19633619 -9.38897529 6.7255659 -5.9375 4.25 C-4.77998229 3.42182696 -3.62243372 2.59369704 -2.46484375 1.765625 C-1.65144531 1.18296875 -0.83804688 0.6003125 0 0 Z " fill="#6CC1D7" transform="translate(568,151)"/>
<path d="M0 0 C4.69486097 1.42793007 8.96545008 3.38071416 13.3125 5.625 C17.76830562 7.90269276 22.23204513 10.12978151 26.7890625 12.19921875 C27.56596436 12.5535498 28.34286621 12.90788086 29.14331055 13.27294922 C30.65135745 13.95628047 32.16317894 14.63135294 33.67895508 15.29736328 C35.48956395 16.12151429 37.2505938 17.0528425 39 18 C39.495 19.485 39.495 19.485 40 21 C35.44212578 19.59864446 31.31504707 17.77711774 27.0625 15.625 C26.4427832 15.31264404 25.82306641 15.00028809 25.18457031 14.6784668 C22.15286336 13.13983956 19.16646507 11.55959483 16.25 9.8125 C12.67684748 7.81978032 9.05828158 6.36662134 5.234375 4.9296875 C3 4 3 4 0 2 C0 1.34 0 0.68 0 0 Z " fill="#0F3477" transform="translate(1384,115)"/>
<path d="M0 0 C-0.33 0.99 -0.66 1.98 -1 3 C-1.66 2.67 -2.32 2.34 -3 2 C-3.33 2.66 -3.66 3.32 -4 4 C-6.4765625 4.52734375 -6.4765625 4.52734375 -9.625 4.9375 C-13.25593046 5.4733516 -16.40282767 5.97101606 -19.6875 7.625 C-23.91761612 9.38089726 -27.48766946 9.27626513 -32 9 C-29.44955721 6.44955721 -27.49078191 6.16855441 -24.00390625 5.2734375 C-22.80572266 4.9640625 -21.60753906 4.6546875 -20.37304688 4.3359375 C-19.11556641 4.01882812 -17.85808594 3.70171875 -16.5625 3.375 C-14.68208008 2.88773437 -14.68208008 2.88773437 -12.76367188 2.390625 C-3.4171317 0 -3.4171317 0 0 0 Z " fill="#1C81B1" transform="translate(867,65)"/>
<path d="M0 0 C0.33 0.99 0.66 1.98 1 3 C0.52691406 3.44988281 0.05382812 3.89976562 -0.43359375 4.36328125 C-5.43421434 9.22743267 -9.82735642 14.37445005 -14.1171875 19.875 C-14.73851562 20.57625 -15.35984375 21.2775 -16 22 C-16.66 22 -17.32 22 -18 22 C-16.32598022 18.04322598 -13.86850715 15.15535787 -11 12 C-10.34 12 -9.68 12 -9 12 C-8.74476563 11.42765625 -8.48953125 10.8553125 -8.2265625 10.265625 C-6.86912841 7.75826267 -5.28025896 5.8669544 -3.375 3.75 C-2.74335938 3.04359375 -2.11171875 2.3371875 -1.4609375 1.609375 C-0.97882813 1.07828125 -0.49671875 0.5471875 0 0 Z " fill="#82D3E1" transform="translate(435,266)"/>
<path d="M0 0 C3.41697238 0.1391669 6.83348757 0.28749585 10.25 0.4375 C11.21808594 0.47681641 12.18617187 0.51613281 13.18359375 0.55664062 C14.58544922 0.61948242 14.58544922 0.61948242 16.015625 0.68359375 C16.87446289 0.72025146 17.73330078 0.75690918 18.61816406 0.79467773 C20.84960143 0.98703514 22.84982524 1.38846244 25 2 C25 2.66 25 3.32 25 4 C21.39552566 3.8612119 17.79151288 3.71276065 14.1875 3.5625 C13.16333984 3.52318359 12.13917969 3.48386719 11.08398438 3.44335938 C9.60961914 3.38051758 9.60961914 3.38051758 8.10546875 3.31640625 C7.19949951 3.27974854 6.29353027 3.24309082 5.36010742 3.20532227 C3 3 3 3 0 2 C0 1.34 0 0.68 0 0 Z " fill="#0B5397" transform="translate(1108,1)"/>
<path d="M0 0 C7.10147296 3.49666435 14.12426899 7.0759717 21 11 C21 11.66 21 12.32 21 13 C17.51329166 11.8905928 14.22515763 10.73662334 11 9 C11 8.34 11 7.68 11 7 C8.03 6.505 8.03 6.505 5 6 C4.67 5.01 4.34 4.02 4 3 C2.35 2.67 0.7 2.34 -1 2 C-0.67 1.34 -0.34 0.68 0 0 Z " fill="#103274" transform="translate(1425,135)"/>
<path d="M0 0 C3.98671063 1.36687222 6.88494633 3.15195093 10 6 C10 6.66 10 7.32 10 8 C11.32 8.33 12.64 8.66 14 9 C14 9.66 14 10.32 14 11 C16.475 11.99 16.475 11.99 19 13 C19 13.66 19 14.32 19 15 C15.45873251 13.33603094 12.21917901 11.31428826 8.9375 9.1875 C7.89464844 8.52105469 6.85179687 7.85460937 5.77734375 7.16796875 C2.9694797 4.97617614 1.59010772 3.15270492 0 0 Z " fill="#102867" transform="translate(1534,205)"/>
<path d="M0 0 C0.66 0 1.32 0 2 0 C0.56588544 3.30949515 -1.20973364 5.39664885 -3.8125 7.875 C-7.12521355 11.09720225 -10.11464018 14.39330023 -13 18 C-13.33 17.34 -13.66 16.68 -14 16 C-12.5489926 14.16086305 -11.08898341 12.3288247 -9.625 10.5 C-8.81289063 9.4790625 -8.00078125 8.458125 -7.1640625 7.40625 C-6.44992187 6.6121875 -5.73578125 5.818125 -5 5 C-4.34 5 -3.68 5 -3 5 C-2.690625 4.360625 -2.38125 3.72125 -2.0625 3.0625 C-1 1 -1 1 0 0 Z " fill="#82D9E7" transform="translate(473,291)"/>
<path d="M0 0 C5.61514068 0.60321803 10.57012124 2.03048755 15.875 3.9375 C16.64585938 4.20240234 17.41671875 4.46730469 18.2109375 4.74023438 C23.87474502 6.74949003 23.87474502 6.74949003 25 9 C17.88485692 7.84946622 11.60810068 5.8431492 5 3 C3.3349442 2.32932018 1.66869575 1.66157141 0 1 C0 0.67 0 0.34 0 0 Z " fill="#0E3A7D" transform="translate(1317,89)"/>
<path d="M0 0 C2.93774463 -0.05390357 5.87450232 -0.0936255 8.8125 -0.125 C10.06256836 -0.15013672 10.06256836 -0.15013672 11.33789062 -0.17578125 C12.14033203 -0.18222656 12.94277344 -0.18867187 13.76953125 -0.1953125 C14.50792236 -0.20578613 15.24631348 -0.21625977 16.00708008 -0.22705078 C18 0 18 0 21 2 C13.50824535 3.0773541 6.51094816 2.8388516 -1 2 C-0.67 1.34 -0.34 0.68 0 0 Z " fill="#0C72AC" transform="translate(1019,43)"/>
<path d="M0 0 C0.33 0.66 0.66 1.32 1 2 C0.34 1.67 -0.32 1.34 -1 1 C-0.67 0.67 -0.34 0.34 0 0 Z M-3 2 C-2.34 2.33 -1.68 2.66 -1 3 C-5.00179491 7.77137085 -8.88671902 12.39746113 -14 16 C-14.99 15.67 -15.98 15.34 -17 15 C-16.49210937 14.56429687 -15.98421875 14.12859375 -15.4609375 13.6796875 C-11.13240118 9.93477405 -6.99693056 6.09685382 -3 2 Z " fill="#84D9E7" transform="translate(476,226)"/>
<path d="M0 0 C1.43791516 0.14168137 2.8753237 0.28851043 4.3125 0.4375 C5.11300781 0.51871094 5.91351562 0.59992188 6.73828125 0.68359375 C9 1 9 1 12 2 C12 2.66 12 3.32 12 4 C12.763125 3.79375 13.52625 3.5875 14.3125 3.375 C17 3 17 3 20 5 C19.34 5.66 18.68 6.32 18 7 C11.76559832 5.41039668 5.83712355 3.72399099 0 1 C0 0.67 0 0.34 0 0 Z " fill="#0E4486" transform="translate(1249,68)"/>
<path d="M0 0 C7.91909556 2.45765035 15.41985296 5.66818573 23 9 C22.34 9.66 21.68 10.32 21 11 C14 8 7 5 0 2 C0 1.34 0 0.68 0 0 Z " fill="#0C347B" transform="translate(1380,65)"/>
<path d="M0 0 C2.10409639 -0.02701408 4.20829178 -0.04640223 6.3125 -0.0625 C7.48425781 -0.07410156 8.65601563 -0.08570313 9.86328125 -0.09765625 C13 0 13 0 16 1 C15.67 1.66 15.34 2.32 15 3 C4.44191344 3.3690205 4.44191344 3.3690205 0 1 C0 0.67 0 0.34 0 0 Z " fill="#0D5192" transform="translate(1126,47)"/>
<path d="M0 0 C5.77378925 0.4811491 9.95859836 2.18467181 15 5 C15 5.66 15 6.32 15 7 C14.01 7 13.02 7 12 7 C12 6.34 12 5.68 12 5 C11.319375 4.896875 10.63875 4.79375 9.9375 4.6875 C6.37084011 3.85274981 3.33777806 2.50527246 0 1 C0 0.67 0 0.34 0 0 Z " fill="#0E367A" transform="translate(1361,106)"/>
<path d="M0 0 C3.99881788 0.61520275 6.80358226 2.60268669 10 5 C10 5.66 10 6.32 10 7 C10.99 7.33 11.98 7.66 13 8 C12.01 8.33 11.02 8.66 10 9 C9.01 8.34 8.02 7.68 7 7 C7 6.34 7 5.68 7 5 C6.21625 4.690625 5.4325 4.38125 4.625 4.0625 C2 3 2 3 0 2 C0 1.34 0 0.68 0 0 Z " fill="#112A68" transform="translate(1521,196)"/>
<path d="M0 0 C3.68069887 1.53643852 5.98775204 3.78150945 8.75 6.625 C9.54921875 7.44226563 10.3484375 8.25953125 11.171875 9.1015625 C12.07679687 10.04128906 12.07679687 10.04128906 13 11 C12.01 11.495 12.01 11.495 11 12 C10.34 11.67 9.68 11.34 9 11 C9 10.34 9 9.68 9 9 C8.443125 8.814375 7.88625 8.62875 7.3125 8.4375 C3.93245808 6.33639286 2.14859619 3.29334006 0 0 Z " fill="#0E2361" transform="translate(1623,221)"/>
<path d="M0 0 C3.83663072 1.34929464 6.65172569 3.07751025 9.8125 5.625 C10.99779297 6.57246094 10.99779297 6.57246094 12.20703125 7.5390625 C12.79871094 8.02117187 13.39039063 8.50328125 14 9 C13.01 9.33 12.02 9.66 11 10 C8.8125 8.6875 8.8125 8.6875 7 7 C7 6.34 7 5.68 7 5 C6.401875 4.9175 5.80375 4.835 5.1875 4.75 C2.4033704 3.79544128 1.56688858 2.42867729 0 0 Z " fill="#0F2768" transform="translate(1537,152)"/>
<path d="M0 0 C4.63720719 3.27530896 8.68542782 6.30435607 12 11 C11.67 11.66 11.34 12.32 11 13 C9.16052663 11.21427748 7.32842259 9.42197551 5.5 7.625 C4.71302734 6.86316406 4.71302734 6.86316406 3.91015625 6.0859375 C2.56846819 4.76167396 1.28004185 3.38394135 0 2 C0 1.34 0 0.68 0 0 Z " fill="#0E2E6B" transform="translate(1625,285)"/>
<path d="M0 0 C-2.23983422 2.23983422 -3.34978329 2.54646123 -6.375 3.25 C-7.14585937 3.44078125 -7.91671875 3.6315625 -8.7109375 3.828125 C-11.41968055 4.03151185 -12.71365703 3.39894958 -15 2 C-13.43883181 1.66048381 -11.87598662 1.32867456 -10.3125 1 C-9.44238281 0.814375 -8.57226562 0.62875 -7.67578125 0.4375 C-5.06287036 0.01027953 -2.64186962 -0.07616201 0 0 Z " fill="#1275A9" transform="translate(883,62)"/>
<path d="M0 0 C4.98012761 1.50912958 8.24259942 4.55661849 12 8 C11.01 8.495 11.01 8.495 10 9 C7.96166576 7.7260411 5.96147874 6.38938077 4 5 C4 4.34 4 3.68 4 3 C2.68 2.67 1.36 2.34 0 2 C0 1.34 0 0.68 0 0 Z " fill="#0F2766" transform="translate(1551,162)"/>
<path d="M0 0 C0.99 0 1.98 0 3 0 C7 6.625 7 6.625 7 10 C6.34 10 5.68 10 5 10 C3 5.25 3 5.25 3 3 C2.34 3 1.68 3 1 3 C0.67 2.01 0.34 1.02 0 0 Z " fill="#122459" transform="translate(1762,477)"/>
<path d="M0 0 C3.26008643 3.16952847 6.22237877 6.39937989 9 10 C8.67 10.66 8.34 11.32 8 12 C1.48063781 4.88610478 1.48063781 4.88610478 0 0 Z " fill="#0F1F57" transform="translate(1686,355)"/>
<path d="M0 0 C0 0.99 0 1.98 0 3 C-1.42578125 4.421875 -1.42578125 4.421875 -3.3125 5.75 C-3.92738281 6.19859375 -4.54226563 6.6471875 -5.17578125 7.109375 C-7 8 -7 8 -10 7 C-6.7 4.69 -3.4 2.38 0 0 Z " fill="#63B5CD" transform="translate(568,151)"/>
<path d="M0 0 C1.81495662 0.44850658 3.62693134 0.90909571 5.4375 1.375 C6.95150391 1.75785156 6.95150391 1.75785156 8.49609375 2.1484375 C11 3 11 3 12 5 C10.20676747 4.71812064 8.41542874 4.4241719 6.625 4.125 C5.62726563 3.96257812 4.62953125 3.80015625 3.6015625 3.6328125 C1 3 1 3 -1 1 C-0.67 0.67 -0.34 0.34 0 0 Z " fill="#0E4081" transform="translate(1236,64)"/>
<path d="M0 0 C3.96 0.33 7.92 0.66 12 1 C8.64672361 3.23551759 8.09256343 3.17283528 4.3125 2.625 C3.50425781 2.51414063 2.69601562 2.40328125 1.86328125 2.2890625 C1.24839844 2.19367188 0.63351562 2.09828125 0 2 C0 1.34 0 0.68 0 0 Z " fill="#0960A4" transform="translate(1108,1)"/>
<path d="M0 0 C3.43752007 1.5277867 6.18953688 3.50181056 9 6 C9 6.66 9 7.32 9 8 C5.56247993 6.4722133 2.81046312 4.49818944 0 2 C0 1.34 0 0.68 0 0 Z " fill="#0E2569" transform="translate(1597,258)"/>
<path d="M0 0 C4.2742558 1.5830577 6.26531794 4.50568404 9 8 C8.01 8 7.02 8 6 8 C6 7.34 6 6.68 6 6 C5.01 5.67 4.02 5.34 3 5 C1.3125 2.4375 1.3125 2.4375 0 0 Z " fill="#0F2463" transform="translate(1613,212)"/>
<path d="M0 0 C-1.38081223 4.1424367 -3.59825558 5.32203099 -7 8 C-7.66 7.67 -8.32 7.34 -9 7 C-7.88121617 5.82737096 -6.75476949 4.66204862 -5.625 3.5 C-4.68527344 2.52546875 -4.68527344 2.52546875 -3.7265625 1.53125 C-2 0 -2 0 0 0 Z " fill="#8BE5F1" transform="translate(486,218)"/>
<path d="M0 0 C3.0831351 1.19899698 6.06279492 2.47700477 9 4 C7.3125 4.8125 7.3125 4.8125 5 5 C2.25 2.5625 2.25 2.5625 0 0 Z " fill="#0F2B6F" transform="translate(1453,100)"/>
<path d="M0 0 C3.95820859 0.56545837 6.6659053 1.80902348 10 4 C9.67 4.66 9.34 5.32 9 6 C6.03 4.35 3.06 2.7 0 1 C0 0.67 0 0.34 0 0 Z " fill="#0E2B6F" transform="translate(1435,91)"/>
<path d="M0 0 C1.21236328 0.01353516 1.21236328 0.01353516 2.44921875 0.02734375 C3.37154297 0.04474609 3.37154297 0.04474609 4.3125 0.0625 C0.96415606 1.83088944 -1.88080655 2.73148318 -5.6875 3.0625 C-6.3475 2.4025 -7.0075 1.7425 -7.6875 1.0625 C-4.80538698 0.10179566 -2.98899956 -0.04331883 0 0 Z " fill="#1370A4" transform="translate(891.6875,59.9375)"/>
<path d="" fill="#1B3C6E" transform="translate(0,0)"/>
<path d="" fill="#1B3C6E" transform="translate(0,0)"/>
<path d="" fill="#1B3C6E" transform="translate(0,0)"/>
<path d="" fill="#1B3C6E" transform="translate(0,0)"/>
<path d="" fill="#1B3C6E" transform="translate(0,0)"/>
<path d="" fill="#1B3C6E" transform="translate(0,0)"/>
<path d="" fill="#1B3C6E" transform="translate(0,0)"/>
<path d="" fill="#1B3C6E" transform="translate(0,0)"/>
<path d="" fill="#1B3C6E" transform="translate(0,0)"/>
<path d="" fill="#1B3C6E" transform="translate(0,0)"/>
<path d="" fill="#1B3C6E" transform="translate(0,0)"/>
<path d="" fill="#1B3C6E" transform="translate(0,0)"/>
<path d="" fill="#1B3C6E" transform="translate(0,0)"/>
<path d="" fill="#1B3C6E" transform="translate(0,0)"/>
</svg>
