<?xml version="1.0" encoding="UTF-8"?>
<svg version="1.1" xmlns="http://www.w3.org/2000/svg" width="2000" height="499">
<path d="M0 0 C4.21001334 0.01367491 8.41994087 -0.00186074 12.6299463 -0.01355082 C19.99735679 -0.03002068 27.36458003 -0.02802912 34.73199243 -0.01372397 C45.68765272 0.00748995 56.64316436 -0.00001118 67.59883065 -0.01309919 C87.16769087 -0.03553336 106.73646461 -0.0295735 126.30532489 -0.01166309 C143.42923708 0.00391227 160.55311896 0.009755 177.6770379 0.00599611 C178.81348337 0.0057593 179.94992885 0.0055225 181.12081206 0.00527853 C185.73414435 0.00430358 190.34747663 0.00328277 194.9608089 0.00219342 C238.22358226 -0.00788619 281.4863024 0.01036593 324.74906325 0.04191378 C363.17839318 0.06977752 401.60765983 0.07473593 440.03699655 0.05972039 C449.87906868 0.0558979 459.72114082 0.05210309 469.56321306 0.04855001 C470.77492153 0.04811219 471.98663001 0.04767438 473.23505693 0.0472233 C505.35634967 0.03598221 537.47763777 0.04333326 569.59892899 0.05643075 C573.05540127 0.05781931 576.51187354 0.05920002 579.96834582 0.06056917 C582.26122913 0.06147855 584.55411243 0.06240123 586.84699573 0.06333728 C603.9607723 0.07013109 621.0745306 0.06747466 638.18830652 0.06038987 C657.64732755 0.05242213 677.1062849 0.05899422 696.56529196 0.08456491 C707.45366209 0.09848324 718.34190399 0.10147662 729.23027617 0.08863021 C736.50547488 0.08116312 743.78056572 0.08827417 751.05574342 0.10718832 C755.19930314 0.11756086 759.34260501 0.12172542 763.48616155 0.10820978 C767.26223455 0.09602932 771.0378159 0.10252583 774.81384681 0.12336987 C776.79791569 0.12967001 778.78201799 0.11656776 780.76604677 0.10246697 C789.53516739 0.17716765 797.11347636 1.84722983 805.41053171 4.63613641 C806.31857575 4.93664117 807.22661979 5.23714592 808.16218032 5.54675689 C828.0669765 12.42452014 844.19039431 28.86417875 853.59803171 47.26113641 C867.6315825 76.17458601 871.14915203 110.9484708 866.41053171 142.63613641 C779.03703604 142.65199673 691.66354009 142.66739382 583.30224008 142.67847955 C581.89264199 142.678619 580.4830439 142.67875845 579.07344581 142.6788979 C549.48777872 142.68182038 519.90211163 142.68453712 490.3164445 142.68701609 C475.45532034 142.68826151 460.59419618 142.68954649 445.73307202 142.69086885 C443.49128091 142.6910681 441.2494898 142.69126622 439.00769869 142.69146429 C404.47366149 142.69452548 369.93962463 142.69843655 335.40558786 142.70480096 C334.29121158 142.70500631 334.29121158 142.70500631 333.15432264 142.70521581 C321.17574584 142.70742827 309.19716906 142.70971184 297.21859227 142.71200485 C262.73058008 142.71860566 228.24256817 142.72468354 193.75455541 142.7272762 C193.04583463 142.72732974 192.33711385 142.72738327 191.60691668 142.72743843 C176.0514571 142.728604 160.49599751 142.72949894 144.94053789 142.73013739 C138.68222383 142.73039903 132.42390977 142.73069965 126.16559572 142.73101365 C125.48063633 142.73104708 124.79567695 142.73108051 124.08996123 142.73111495 C101.99432812 142.73221267 79.89869703 142.73648805 57.80306473 142.74241862 C34.94068946 142.74854011 12.07831603 142.75115356 -10.78406023 142.74963779 C-23.97903374 142.7488741 -37.17399999 142.7509325 -50.3689722 142.75693395 C-59.16564675 142.76066351 -67.96231651 142.76081452 -76.75899139 142.75796822 C-81.78243549 142.75644786 -86.80586577 142.75656612 -91.82930844 142.76101959 C-96.38865493 142.76503124 -100.94797666 142.76454067 -105.50732273 142.76027639 C-107.1566682 142.75955525 -108.80601543 142.76055284 -110.45535865 142.76337165 C-112.67605719 142.76692979 -114.89666533 142.7644557 -117.11736082 142.76033491 C-118.35257139 142.76049089 -119.58778195 142.76064687 -120.86042314 142.76080757 C-123.58946829 142.63613641 -123.58946829 142.63613641 -124.58946829 141.63613641 C-125.06474656 133.73952538 -124.4025802 125.90168538 -123.40196829 118.07363641 C-123.26959769 117.03787469 -123.13722708 116.00211297 -123.00084525 114.93496453 C-118.08355077 78.9981285 -101.47082721 43.97321505 -72.63634329 21.08584344 C-64.48400354 14.98541284 -55.95608242 9.65907654 -46.58946829 5.63613641 C-45.1418359 4.97877003 -45.1418359 4.97877003 -43.66495841 4.30812353 C-29.66813559 -1.05287973 -14.75222648 -0.0674696 0 0 Z " fill="#ED3A32" transform="translate(623.5894682947546,-0.6361364098265767)"/>
<path d="M0 0 C52.51107134 -0.09165981 105.02213457 -0.16209162 157.53327025 -0.20426132 C163.74003512 -0.20926383 169.94679982 -0.21444115 176.15356445 -0.21972656 C177.38916106 -0.2207758 178.62475768 -0.22182505 179.89779661 -0.22290608 C199.87490084 -0.24028656 219.85195878 -0.27181122 239.8290356 -0.30861118 C260.34450925 -0.34608628 280.85995874 -0.36824972 301.37546521 -0.37635398 C314.02315458 -0.38182814 326.67071309 -0.39908509 339.31836215 -0.43166587 C348.00456728 -0.45289492 356.69070528 -0.45918114 365.37693443 -0.45400551 C370.38000894 -0.45145674 375.3828556 -0.45521872 380.38588905 -0.4768219 C441.90593222 -0.72940141 441.90593222 -0.72940141 464.9375 21.4375 C476.02057536 33.26219379 484.28104444 48.52393515 485 65 C485.0515625 65.87398438 485.103125 66.74796875 485.15625 67.6484375 C485.38869327 75.49339777 484.62927783 83.12738238 483.73046875 90.91015625 C483.53160316 92.66439407 483.53160316 92.66439407 483.32872009 94.45407104 C482.89046501 98.30326403 482.44615137 102.15171457 482 106 C481.92400322 106.65632038 481.84800644 107.31264076 481.76970673 107.98884964 C480.63194133 117.81159756 479.47760397 127.63236758 478.31866455 137.45263672 C478.06363856 139.61534463 477.80917337 141.77811773 477.55493164 143.94091797 C477.42963798 145.00671522 477.42963798 145.00671522 477.30181313 146.09404373 C477.13307653 147.52942368 476.96435375 148.96480525 476.79564476 150.40018845 C476.37499998 153.97570865 475.95237332 157.5509769 475.52578735 161.12579346 C475.35587102 162.55033068 475.18597967 163.97487088 475.01611328 165.39941406 C474.89006431 166.45614759 474.89006431 166.45614759 474.76146889 167.53422928 C474.24036363 171.92141488 473.73714333 176.31028418 473.24647999 180.70097542 C472.91591672 183.64663149 472.57698725 186.59129543 472.23693657 189.5358696 C472.00624151 191.5594258 471.78644573 193.58421561 471.56715393 195.60903931 C467.53990501 230.21425539 452.04862576 258.92093803 425 281 C409.76460717 292.7715406 391.65233909 301.32229741 373 306 C372.34557832 306.17179712 371.69115664 306.34359424 371.016904 306.52059734 C362.99326457 308.39539164 354.98796312 308.27307174 346.80172729 308.24050903 C345.16379992 308.2413822 343.52587282 308.24313524 341.8879472 308.24568737 C337.40688291 308.25014297 332.92591488 308.24218187 328.44486284 308.23213124 C323.60518437 308.22347321 318.76551107 308.22641857 313.92582703 308.22793579 C305.5473083 308.22898315 297.16882078 308.22272208 288.79030991 308.21146011 C276.67647761 308.19518793 264.56266038 308.18999535 252.44881834 308.18748413 C232.79366982 308.18310973 213.13853793 308.16980752 193.48339844 308.15087891 C174.39323001 308.13251352 155.3030661 308.11836024 136.21289062 308.10986328 C134.4470366 308.10907511 134.4470366 308.10907511 132.64550875 308.10827102 C126.73950698 308.10566089 120.83350517 308.10313349 114.92750335 308.10064721 C65.95165741 308.07992264 16.97582952 308.04470403 -32 308 C-31.68251505 305.12787751 -31.36459085 302.25580476 -31.04641724 299.38375854 C-30.95724942 298.57669055 -30.86808161 297.76962255 -30.77621174 296.93809795 C-30.08743053 290.72532178 -29.3461586 284.52088232 -28.5546875 278.3203125 C-28.42374695 277.28665054 -28.2928064 276.25298859 -28.15789795 275.18800354 C-27.73213077 271.83342849 -27.30386593 268.47918022 -26.875 265.125 C-26.72681824 263.96376617 -26.57863647 262.80253235 -26.42596436 261.60610962 C-24.04634779 242.97410055 -21.62436662 224.3476281 -19.15924072 205.72674561 C-18.80308364 203.03638416 -18.44846714 200.34582668 -18.09515381 197.65509033 C-17.60095819 193.89846922 -17.10199128 190.14251393 -16.6015625 186.38671875 C-16.4539447 185.25915665 -16.3063269 184.13159454 -16.15423584 182.96986389 C-16.01648743 181.94428879 -15.87873901 180.91871368 -15.73681641 179.86206055 C-15.61803131 178.96649948 -15.49924622 178.07093842 -15.37686157 177.14823914 C-15 175 -15 175 -14 173 C92.92 173 199.84 173 310 173 C310.33 168.38 310.66 163.76 311 159 C311.28374393 156.35092853 311.59045929 153.70402475 311.9375 151.0625 C312.02249756 150.40846191 312.10749512 149.75442383 312.19506836 149.08056641 C312.45960332 147.05319378 312.72978371 145.02662216 313 143 C313.1800351 141.62113909 313.35972379 140.24223291 313.5390625 138.86328125 C314.4995443 131.53133889 315.53571673 124.25045319 317 117 C315.14635299 117.00414807 315.14635299 117.00414807 313.25525856 117.00837994 C283.8531464 117.07349731 254.45105076 117.12289327 225.04888425 117.15319599 C221.42191229 117.15694765 217.79494048 117.16083066 214.16796875 117.16479492 C213.44597095 117.16558185 212.72397315 117.16636878 211.98009662 117.16717956 C200.32338602 117.18019712 188.66672027 117.2038306 177.01003619 117.23145839 C165.02956059 117.25961462 153.04910833 117.27619774 141.06860101 117.28226548 C134.34760434 117.28599542 127.62671523 117.29526783 120.90575027 117.31719017 C114.56762578 117.33769444 108.22964354 117.34380582 101.89148903 117.33932304 C99.57695935 117.34014204 97.26242445 117.34602393 94.94792366 117.35761642 C65.55061987 117.49751806 41.13328222 112.66790629 19 92 C9.52057245 81.76848564 -0.28983613 66.37247395 -0.22705078 51.99462891 C-0.22689972 50.83387848 -0.22674866 49.67312805 -0.22659302 48.47720337 C-0.21627045 47.23949188 -0.20594788 46.0017804 -0.1953125 44.7265625 C-0.1924826 43.44768158 -0.18965271 42.16880066 -0.18673706 40.85116577 C-0.1774602 37.46779901 -0.15952183 34.08470674 -0.1373291 30.70141602 C-0.11679041 27.24237426 -0.10771826 23.78330404 -0.09765625 20.32421875 C-0.075632 13.54940386 -0.04218118 6.77471776 0 0 Z " fill="#ED3A32" transform="translate(491,191)"/>
<path d="M0 0 C144.21 0 288.42 0 437 0 C437 5.50963662 436.83228781 10.18313603 436.08203125 15.546875 C435.88010658 17.02441128 435.67820332 18.50195048 435.47631836 19.97949219 C435.3683493 20.75466187 435.26038025 21.52983154 435.1491394 22.32849121 C433.13214203 36.83712212 431.35380513 51.36239719 429.74923706 65.92208862 C428.28448551 79.20952893 426.78447114 92.47332281 424.75 105.6875 C424.58685303 106.75000977 424.42370605 107.81251953 424.25561523 108.90722656 C423.13791216 115.86208784 423.13791216 115.86208784 422 117 C420.57171382 117.09660712 419.13866369 117.12371834 417.70711422 117.12304783 C416.30902772 117.1260344 416.30902772 117.1260344 414.88269705 117.12908131 C413.32874152 117.12471205 413.32874152 117.12471205 411.74339294 117.12025452 C410.65223004 117.12110894 409.56106713 117.12196337 408.43683869 117.12284368 C404.75011252 117.1245017 401.06343102 117.11897187 397.37670898 117.11352539 C394.74605307 117.11324356 392.11539708 117.11340117 389.48474121 117.1139679 C383.80547554 117.11449332 378.12622133 117.11134461 372.44695854 117.10573006 C364.23560688 117.09761753 356.02426079 117.09500009 347.81290556 117.09374207 C334.49188507 117.09155116 321.17087069 117.08489002 307.84985352 117.07543945 C294.90649445 117.06626634 281.96313705 117.05918501 269.01977539 117.05493164 C268.22251029 117.05466892 267.4252452 117.05440619 266.60382055 117.05413551 C262.60434417 117.05283051 258.60486778 117.05156679 254.60539138 117.05032361 C221.40358981 117.03994978 188.20179572 117.02233041 155 117 C155.00534225 118.26533916 155.01068449 119.53067831 155.01618862 120.83436108 C155.02933877 123.9490433 154.85751304 126.90822457 154.37329102 129.99145508 C154.23637344 130.88210159 154.09945587 131.77274811 153.95838928 132.69038391 C153.80840988 133.62400253 153.65843048 134.55762115 153.50390625 135.51953125 C153.35090561 136.49991867 153.19790497 137.48030609 153.04026794 138.49040222 C152.71778642 140.548985 152.3923857 142.60711239 152.06420898 144.66479492 C151.56144399 147.81912535 151.06807023 150.97481794 150.57617188 154.13085938 C150.26096256 156.13550258 149.94522591 158.14006295 149.62890625 160.14453125 C149.48095108 161.08827103 149.33299591 162.0320108 149.18055725 163.00434875 C149.04048752 163.87923447 148.90041779 164.75412018 148.75610352 165.65551758 C148.57290306 166.80846062 148.57290306 166.80846062 148.38600159 167.98469543 C148 170 148 170 147 173 C235.44 173 323.88 173 415 173 C415 180.22606554 414.82845982 186.51039915 413.6875 193.5 C412.47392845 201.44324747 411.47420182 209.38481016 410.625 217.375 C409.31031803 229.63850381 407.76164136 241.8646328 406.17056274 254.0947876 C404.66893543 265.64303339 403.23073178 277.19205217 401.98828125 288.77172852 C401.27100507 295.28493245 400.17914267 301.51471529 399 308 C255.78 308 112.56 308 -35 308 C-35 299.85111155 -34.90855531 292.34895925 -33.8984375 284.3671875 C-33.7817572 283.39379929 -33.6650769 282.42041107 -33.54486084 281.41752625 C-33.16192618 278.2357897 -32.76840182 275.05545772 -32.375 271.875 C-32.09928069 269.59767363 -31.82439527 267.32024617 -31.55029297 265.04272461 C-30.98272241 260.33228388 -30.41162038 255.62229202 -29.83789062 250.91259766 C-28.6920963 241.48668487 -27.58762362 232.0559898 -26.48376465 222.62509155 C-25.8662848 217.35397974 -25.24542888 212.08326537 -24.625 206.8125 C-24.36196364 204.57682474 -24.09894316 202.34114762 -23.8359375 200.10546875 C-23.25260417 195.14713542 -22.66927083 190.18880208 -22.0859375 185.23046875 C-22.0078548 184.56676301 -21.92977211 183.90305727 -21.84932327 183.21923923 C-21.44405043 179.77440879 -21.03877223 176.32957898 -20.63348389 172.88475037 C-19.87621214 166.44812387 -19.11897904 160.01149284 -18.36193466 153.57483959 C-17.9340242 149.93660874 -17.50608264 146.29838155 -17.078125 142.66015625 C-16.99277748 141.93458086 -16.90742996 141.20900547 -16.81949615 140.46144295 C-15.60801401 130.16264088 -14.3948391 119.86403934 -13.18058968 109.5655632 C-12.49604725 103.75913792 -11.811956 97.95265946 -11.1278801 92.1461792 C-10.87626953 90.01077442 -10.62455836 87.87538151 -10.37283325 85.73999023 C-8.62902241 70.94473039 -6.89605473 56.14838918 -5.19921875 41.34765625 C-4.98824554 39.50909561 -4.98824554 39.50909561 -4.77301025 37.63339233 C-4.11684398 31.91154717 -3.46322459 26.18942984 -2.81396484 20.46679688 C-2.58566425 18.46874403 -2.3573145 16.47069679 -2.12890625 14.47265625 C-1.97792732 13.12942039 -1.97792732 13.12942039 -1.82389832 11.75904846 C-1.72933853 10.93501022 -1.63477875 10.11097198 -1.53735352 9.26196289 C-1.45711441 8.55439346 -1.37687531 7.84682404 -1.29420471 7.11781311 C-0.96238701 4.72924538 -0.47293514 2.3646757 0 0 Z " fill="#ED3A32" transform="translate(35,191)"/>
<path d="M0 0 C157.08 0 314.16 0 476 0 C474.87418477 11.25815228 474.87418477 11.25815228 474.04785156 15.53466797 C473.86385803 16.49621796 473.6798645 17.45776794 473.49029541 18.44845581 C473.19345856 19.955103 473.19345856 19.955103 472.890625 21.4921875 C472.68193787 22.55938019 472.47325073 23.62657288 472.25823975 24.72610474 C471.81702394 26.97042465 471.37315574 29.2142246 470.92675781 31.45751953 C470.25374658 34.85608059 469.5993103 38.25789251 468.9453125 41.66015625 C464.8226096 62.6929516 464.8226096 62.6929516 460 72 C459.46117187 73.11375 458.92234375 74.2275 458.3671875 75.375 C447.16655734 95.07872636 429.63837553 107.64009062 408 114 C404.83507849 114.71069137 401.66376424 115.21757105 398.45198059 115.66621399 C397.5470168 115.79267691 396.64205301 115.91913983 395.70966607 116.04943496 C384.74342665 117.45101848 373.80538367 117.39734436 362.76831055 117.34057617 C360.42041535 117.33972757 358.07251937 117.34020958 355.72462463 117.34190369 C349.42021237 117.34275595 343.11597526 117.32525617 336.81160331 117.30418181 C330.86962622 117.28720609 324.9276549 117.28430064 318.98565684 117.2812262 C307.2341391 117.27469714 295.48268465 117.2548335 283.73120117 117.22631836 C272.33113924 117.19868511 260.93109463 117.17749721 249.53100586 117.16479492 C248.47292423 117.16361267 248.47292423 117.16361267 247.39346721 117.16240653 C243.85394168 117.15849077 240.31441603 117.1546998 236.7748903 117.15097082 C207.51655283 117.11998561 178.2582771 117.06702135 149 117 C149.00621626 117.58235007 149.01243252 118.16470015 149.01883715 118.76469719 C149.04593394 123.15263999 148.96408813 127.43863934 148.46418762 131.8041687 C148.34520111 132.86506714 148.2262146 133.92596558 148.10362244 135.01901245 C147.97121658 136.15339752 147.83881073 137.28778259 147.70239258 138.45654297 C147.56412048 139.67625793 147.42584839 140.8959729 147.28338623 142.15264893 C146.90449581 145.48591694 146.52112953 148.81861154 146.13572145 152.15112829 C145.7273817 155.69133268 145.32481097 159.23219339 144.92155457 162.77297974 C144.15245474 169.51825096 143.37813325 176.26291221 142.60197037 183.00737393 C141.73850929 190.51278618 140.88113804 198.01888974 140.02419686 205.52504873 C138.02681531 223.01793099 136.01655856 240.50931889 134 258 C133.7948238 259.78015251 133.7948238 259.78015251 133.58550262 261.5962677 C132.85686484 267.91654034 132.12691365 274.23665839 131.39447594 280.55649185 C131.18430228 282.37029124 130.97438494 284.18412035 130.76474953 285.99798203 C130.48304687 288.4338264 130.2001103 290.86952398 129.91674805 293.30517578 C129.8373744 293.99305805 129.75800076 294.68094032 129.67622185 295.38966751 C129.18366503 299.60692767 128.60085732 303.79399879 128 308 C74.21 308 20.42 308 -35 308 C-35 300.1328496 -34.81606361 293.09763415 -33.6875 285.4375 C-33.40659606 283.41046789 -33.12804438 281.38310875 -32.8515625 279.35546875 C-32.70879883 278.31052246 -32.56603516 277.26557617 -32.41894531 276.18896484 C-31.72208812 270.88456584 -31.14101689 265.56840648 -30.5625 260.25 C-30.30870622 257.92837312 -30.0547968 255.60675888 -29.80078125 253.28515625 C-29.67010254 252.09035645 -29.53942383 250.89555664 -29.40478516 249.66455078 C-28.70580909 243.33666735 -27.97672511 237.01224457 -27.25 230.6875 C-25.94155409 219.28920298 -24.64729976 207.88935702 -23.36328125 196.48828125 C-23.21803009 195.19862457 -23.07277893 193.9089679 -22.92312622 192.58023071 C-22.69847673 190.58553011 -22.47382727 188.59082951 -22.24918175 186.59612846 C-19.8425519 165.22813348 -17.4210957 143.86218282 -14.9230957 122.50463867 C-13.65991584 111.69986117 -12.41092912 100.89350744 -11.171875 90.0859375 C-11.09253723 89.39398096 -11.01319946 88.70202442 -10.93145752 87.9890995 C-10.1367052 81.05671434 -9.34276774 74.12423619 -8.54980087 67.19164658 C-8.32608211 65.23623874 -8.10216025 63.28085415 -7.87823486 61.32546997 C-7.60277312 58.92005416 -7.32764617 56.51459998 -7.05291748 54.10910034 C-6.54135484 49.64344816 -6.02951908 45.17840204 -5.46777344 40.71875 C-4.97201619 36.77753167 -4.51350779 32.83323761 -4.0625 28.88671875 C-3.88819584 27.37693291 -3.71371155 25.86716786 -3.5390625 24.35742188 C-3.26757394 22.00953945 -2.99704535 19.66156683 -2.72949219 17.31323242 C-2.46845388 15.02487574 -2.20335313 12.7370204 -1.9375 10.44921875 C-1.85830322 9.74609055 -1.77910645 9.04296234 -1.69750977 8.31852722 C-1.35464522 5.39511682 -0.9343084 2.80292519 0 0 Z " fill="#ED3A32" transform="translate(1008,191)"/>
<path d="M0 0 C52.39245738 -0.09157845 104.78490666 -0.16205039 157.17742835 -0.20426132 C163.36446083 -0.20926408 169.55149315 -0.21444137 175.73852539 -0.21972656 C176.97023926 -0.2207758 178.20195312 -0.22182505 179.47099165 -0.22290608 C199.40823468 -0.24030584 219.34543152 -0.2718412 239.28264716 -0.30861118 C259.74384158 -0.34603249 280.20501184 -0.36823838 300.66623908 -0.37635398 C313.28938398 -0.38183926 325.91239831 -0.39915701 338.53550301 -0.43166587 C347.19455176 -0.4528284 355.85353313 -0.45919608 364.51260587 -0.45400551 C369.50658801 -0.45144647 374.50034218 -0.45533764 379.49428368 -0.4768219 C384.07241411 -0.49637289 388.65016454 -0.49721482 393.22831295 -0.48359558 C394.8786083 -0.48191383 396.52892796 -0.48691534 398.17917594 -0.49953273 C417.39822496 -0.63785187 433.53649295 5.12395104 448 18 C448.63679688 18.56589844 449.27359375 19.13179687 449.9296875 19.71484375 C466.77201199 35.62148355 475.5834259 60.53619549 476.28955078 83.35191345 C476.36993896 87.31825025 476.38249654 91.2829585 476.375 95.25 C476.37611786 96.08205963 476.37723572 96.91411926 476.37838745 97.77139282 C476.3685818 112.62374891 475.73898299 127.78305103 471 142 C309.63 142 148.26 142 -18 142 C-14.52867115 113.0722596 -14.52867115 113.0722596 -13.4296875 104.26953125 C-13.23984787 102.74582161 -13.23984787 102.74582161 -13.0461731 101.19132996 C-12.78613913 99.10611144 -12.52579976 97.02093099 -12.26513672 94.93579102 C-11.86682734 91.74707271 -11.4705113 88.55811014 -11.07421875 85.36914062 C-10.81782802 83.31508922 -10.56132219 81.26105219 -10.3046875 79.20703125 C-10.18801727 78.26648392 -10.07134705 77.32593658 -9.95114136 76.35688782 C-9.39014845 71.88458314 -8.75535262 67.44431138 -8 63 C-7.71124709 60.83612729 -7.43470435 58.67060315 -7.16796875 56.50390625 C-7.00876953 55.21935547 -6.84957031 53.93480469 -6.68554688 52.61132812 C-6.51942034 51.2617324 -6.35340378 49.91212313 -6.1875 48.5625 C-4.80343078 37.33226743 -3.37354156 26.10830869 -1.9230957 14.88647461 C-1.73597826 13.43772341 -1.54887741 11.98897007 -1.36179352 10.54021454 C-0.90805343 7.02678499 -0.45408951 3.51338441 0 0 Z " fill="#ED3A32" transform="translate(1524,0)"/>
<path d="M0 0 C144.21 0 288.42 0 437 0 C435.85333872 16.05325786 435.85333872 16.05325786 434.80078125 23.33984375 C434.68537994 24.16846924 434.56997864 24.99709473 434.45108032 25.85083008 C434.2038033 27.62476586 433.95460111 29.39843424 433.70358276 31.17184448 C433.01811771 36.01930999 432.34904351 40.86903791 431.6796875 45.71875 C431.54044357 46.72606674 431.40119965 47.73338348 431.25773621 48.77122498 C429.49385735 61.59023857 427.87931072 74.42830164 426.26879883 87.26733398 C423.96618461 105.53010344 421.46554514 123.75496596 419 142 C275.78 142 132.56 142 -15 142 C-15 131.87588978 -15 131.87588978 -14.4050293 126.74707031 C-14.27456711 125.60006653 -14.14410492 124.45306274 -14.00968933 123.27130127 C-13.86598404 122.0525531 -13.72227875 120.83380493 -13.57421875 119.578125 C-13.34737045 117.59719533 -13.12052376 115.61626548 -12.89375782 113.63532639 C-12.57557339 110.86703669 -12.25273941 108.09929675 -11.92993164 105.33154297 C-11.29972842 99.92055335 -10.67768919 94.50861526 -10.05606842 89.09663391 C-9.90120527 87.74837815 -9.74617023 86.40014212 -9.59096527 85.05192566 C-8.0645386 71.77833318 -6.68063705 58.49138364 -5.3274231 45.19909668 C-4.61346444 38.22334326 -3.86989701 31.25073889 -3.11962891 24.27880859 C-2.95194202 22.7167433 -2.78532978 21.15456237 -2.61962891 19.59228516 C-2.3710252 17.24878093 -2.11946075 14.9056117 -1.8671875 12.5625 C-1.79426483 11.86995117 -1.72134216 11.17740234 -1.64620972 10.46386719 C-1.25962157 6.90834134 -0.70373237 3.51866187 0 0 Z " fill="#ED3A32" transform="translate(57,0)"/>
<path d="M0 0 C54.12 0 108.24 0 164 0 C164.81887289 4.09436443 165.06565764 6.08952945 164.56616211 10.0065918 C164.38488014 11.47572273 164.38488014 11.47572273 164.19993591 12.97453308 C164.0604805 14.03867935 163.92102509 15.10282562 163.77734375 16.19921875 C163.63478653 17.33873489 163.49222931 18.47825104 163.34535217 19.65229797 C162.88355108 23.33168845 162.41096584 27.00959412 161.9375 30.6875 C161.33974897 35.39939962 160.74622288 40.11182976 160.15234375 44.82421875 C159.98858246 46.11835693 159.82482117 47.41249512 159.65609741 48.74584961 C158.15963493 60.59935454 156.73446657 72.46111311 155.31640625 84.32421875 C151.55019607 115.82261841 147.72035964 147.31323199 143.89020926 178.80390745 C143.09876607 185.31156581 142.30822013 191.81933293 141.51786709 198.32712376 C140.73353875 204.7849519 139.94854808 211.24269934 139.16310215 217.70039165 C138.70320256 221.48162412 138.24350918 225.26288124 137.78451538 229.04422379 C134.58773837 255.37117924 131.2894826 281.68413921 128 308 C74.21 308 20.42 308 -35 308 C-36.64677142 304.70645716 -35.60050004 301.16512345 -35.1706543 297.60668945 C-35.01908056 296.29150723 -35.01908056 296.29150723 -34.86444473 294.94975567 C-34.52343769 292.00356629 -34.17377782 289.05846725 -33.82421875 286.11328125 C-33.58063765 284.02317533 -33.33761256 281.93300454 -33.09510803 279.84277344 C-32.57312524 275.35347565 -32.04737317 270.8646412 -31.51867676 266.37612915 C-30.68205237 259.27316034 -29.85347986 252.16926742 -29.02636719 245.06518555 C-28.17983464 237.79763643 -27.33274176 230.53015495 -26.48269653 223.26301575 C-24.72420677 208.22919592 -22.97894518 193.19394529 -21.25390625 178.15625 C-21.14767315 177.23021406 -21.04144005 176.30417812 -20.93198776 175.35008049 C-20.40884569 170.78875215 -19.88608285 166.22738046 -19.36352539 161.66598511 C-18.34999379 152.82004242 -17.33332335 143.97446028 -16.31640625 135.12890625 C-16.21879627 134.27977221 -16.12118629 133.43063816 -16.02061844 132.55577278 C-13.59514649 111.45864719 -11.15424819 90.36330571 -8.7019043 69.26928711 C-8.58312471 68.24754379 -8.58312471 68.24754379 -8.46194553 67.20515919 C-8.07522123 63.87861479 -7.68846629 60.55207398 -7.301651 57.22554016 C-6.46272932 50.0047526 -5.62959163 42.78333818 -4.80381775 35.56103516 C-4.33220915 31.43656131 -3.85851832 27.31232787 -3.38467407 23.18811035 C-3.17303818 21.3401804 -2.96253332 19.4921205 -2.75326538 17.6439209 C-2.47504055 15.1867615 -2.19305299 12.73006264 -1.91015625 10.2734375 C-1.83139252 9.5678067 -1.75262878 8.8621759 -1.67147827 8.13516235 C-1.33799699 5.26816032 -0.91662395 2.74987186 0 0 Z " fill="#EC3A32" transform="translate(1501,191)"/>
<path d="M0 0 C54.45 0 108.9 0 165 0 C165 10.12290884 165 10.12290884 164.54443359 13.51098633 C164.44343353 14.28553665 164.34243347 15.06008698 164.2383728 15.85810852 C164.07010483 17.08270027 164.07010483 17.08270027 163.8984375 18.33203125 C163.78166656 19.22033127 163.66489563 20.10863129 163.54458618 21.02384949 C163.29178313 22.94580883 163.03660913 24.86745751 162.77929688 26.78881836 C162.07563992 32.05137351 161.39262801 37.31659179 160.7109375 42.58203125 C160.56839539 43.68201447 160.42585327 44.78199768 160.2789917 45.91531372 C158.73339649 57.92995432 157.3631031 69.96354034 156 82 C154.01580863 99.48193586 151.8918962 116.93880412 149.625 134.38623047 C147.61153395 149.90931964 145.76670753 165.44699268 144 181 C142.01592279 198.46659642 139.90011944 215.90922059 137.6300354 233.34091187 C135.18852859 252.1132384 133.01375751 270.91290306 130.91601562 289.7265625 C130.79482864 290.8010112 130.67364166 291.8754599 130.54878235 292.98246765 C130.320916 295.00294763 130.0961449 297.02377982 129.87492371 299.04499817 C129.77399918 299.93611801 129.67307465 300.82723785 129.5690918 301.74536133 C129.48282028 302.52293289 129.39654877 303.30050446 129.30766296 304.10163879 C129 306 129 306 128 308 C74.21 308 20.42 308 -35 308 C-33.81265863 294.34557425 -32.61291061 280.73555465 -31.0625 267.125 C-30.88733009 265.570082 -30.71228357 264.01515009 -30.53735352 262.46020508 C-28.7699421 246.79940834 -26.96022074 231.14387687 -24.87768555 215.52148438 C-23.51215947 205.27518399 -22.33771827 195.02223577 -21.265625 184.74121094 C-20.11175799 173.79419205 -18.81295589 162.86640091 -17.5 151.9375 C-16.10505143 140.31682448 -14.71526493 128.69679166 -13.4375 117.0625 C-13.3226123 116.01642578 -13.20772461 114.97035156 -13.08935547 113.89257812 C-12.97350098 112.83748047 -12.85764648 111.78238281 -12.73828125 110.6953125 C-11.88634998 102.94052363 -11.00896624 95.18868926 -10.125 87.4375 C-10.0429129 86.7170752 -9.96082581 85.99665039 -9.87625122 85.25439453 C-8.84428683 76.21074791 -7.78651556 67.17044522 -6.703125 58.1328125 C-6.59277924 57.21135941 -6.48243347 56.28990631 -6.3687439 55.3405304 C-5.83232213 50.86459132 -5.29346094 46.38896744 -4.75048828 41.91381836 C-3.61716754 32.52037896 -2.57502009 23.1245886 -1.67807007 13.70533752 C-1.56599716 12.54106483 -1.56599716 12.54106483 -1.45166016 11.35327148 C-1.38822418 10.67973129 -1.32478821 10.0061911 -1.25942993 9.3122406 C-0.91017748 6.19943206 -0.44297978 3.10085847 0 0 Z " fill="#ED3A32" transform="translate(1824,191)"/>
</svg>
