<?xml version="1.0" encoding="UTF-8"?>
<svg version="1.1" xmlns="http://www.w3.org/2000/svg" width="2000" height="1646">
<path d="M0 0 C5.40853887 -0.53687702 10.42303669 -1.00391727 15.0625 2.1875 C20.09157619 6.53780517 23.90302618 12.08167907 27.82128906 17.41308594 C29.45325136 19.61021827 31.15757274 21.74424999 32.875 23.875 C33.51179688 24.66648437 34.14859375 25.45796875 34.8046875 26.2734375 C35.52914062 27.17320313 36.25359375 28.07296875 37 29 C39.00155064 31.49876011 41.00071871 33.99942399 43 36.5 C45.76492513 39.95734132 48.53011763 43.41444201 51.30078125 46.8671875 C54.31129869 50.62010438 57.3059721 54.38214979 60.25 58.1875 C63.8862697 62.88159361 67.60218891 67.51017871 71.31762695 72.14160156 C74.71864319 76.38563173 78.08809758 80.65266784 81.4375 84.9375 C86.03100648 90.81014716 90.72166366 96.59973682 95.43408203 102.37719727 C98.81597377 106.5280704 102.14557961 110.71206915 105.4140625 114.953125 C109.00168232 119.58345206 112.69366414 124.13255202 116.36474609 128.69677734 C121.6839161 135.3114829 126.98079767 141.93541541 132.125 148.6875 C136.08676148 153.88322695 140.22910096 158.9056013 144.43359375 163.90625 C150.43973607 171.09790637 156.13548753 178.55030055 161.81958008 185.99731445 C165.38626141 190.6681187 169.01911854 195.25912582 172.8125 199.75 C176.84513839 204.53480762 180.66348033 209.44680458 184.4375 214.4375 C188.81092521 220.21753753 193.31209038 225.82867576 198.04003906 231.32128906 C202.09836808 236.05650105 205.88574064 240.97505183 209.66015625 245.9375 C213.03279924 250.3517773 216.51442935 254.67478783 220 259 C221.33397119 260.66615618 222.66729915 262.33282754 224 264 C225.96295829 266.45465075 227.92665779 268.90866249 229.89453125 271.359375 C233.79193102 276.21723378 237.65626553 281.09966593 241.5 286 C245.96661195 291.6938284 250.46925441 297.35701361 255 303 C258.54574632 307.4191562 262.08693903 311.84188184 265.61962891 316.27148438 C266.85127874 317.81376963 268.08744159 319.35244836 269.32421875 320.890625 C269.95972656 321.68984375 270.59523438 322.4890625 271.25 323.3125 C271.79140625 323.98925781 272.3328125 324.66601562 272.890625 325.36328125 C274 327 274 327 274 329 C274.66 329 275.32 329 276 329 C277.34917385 330.73972417 278.68503511 332.49049968 279.9765625 334.2734375 C282.48208776 337.64960861 285.11109434 340.9151904 287.75 344.1875 C291.58576974 348.95304563 295.36272548 353.75323335 299.0625 358.625 C302.84716256 363.59862932 306.82054465 368.37522539 310.88818359 373.11889648 C314.99640434 377.93505559 318.84691896 382.9247784 322.6796875 387.9609375 C327.01571345 393.64010954 331.5159531 399.18491824 336.03515625 404.71875 C341.63082542 411.57493647 347.17588685 418.4540451 352.54467773 425.48974609 C355.60240521 429.49564961 358.73028657 433.43814092 361.890625 437.36328125 C363.88213613 439.85267016 365.85108328 442.35802013 367.81469727 444.86938477 C372.31801352 450.62847193 376.87816174 456.33553403 381.5 462 C387.88148105 469.82349098 394.12198983 477.75071904 400.33398438 485.70898438 C405.61304616 492.46772479 410.9434504 499.17547066 416.375 505.8125 C420.9086317 511.35293197 425.30587123 516.97847636 429.625 522.6875 C433.8670383 528.2928251 438.23960613 533.72269985 442.83203125 539.04321289 C447.19990931 544.1446096 451.24156352 549.47889171 455.29589844 554.83056641 C459.72815721 560.67357102 464.3096734 566.3611658 469 572 C474.72443998 578.91406605 480.29449913 585.91903751 485.73828125 593.0546875 C487.22003534 594.98429472 488.73755321 596.88707422 490.29296875 598.7578125 C492 601 492 601 492 603 C492.66 603 493.32 603 494 603 C495.3046875 604.44140625 495.3046875 604.44140625 496.875 606.5625 C500.11547225 610.85393623 503.43935921 615.06296609 506.8125 619.25 C510.56058116 623.91478192 514.25221175 628.61225696 517.875 633.375 C522.37006103 639.28022221 527.08757378 644.9892741 531.82543945 650.70043945 C536.16549985 655.94686732 540.33502416 661.29113699 544.45703125 666.7109375 C547.3103661 670.43326819 550.27948173 674.05849028 553.25 677.6875 C558.6351511 684.26997425 563.889439 690.94496269 569.08935547 697.67456055 C572.89688461 702.59969303 576.7663988 707.45909144 580.7421875 712.25 C582 714 582 714 582 716 C582.66 716 583.32 716 584 716 C585.56263238 717.84090938 587.00589823 719.68544614 588.4375 721.625 C589.34041303 722.8234691 590.24408526 724.02136653 591.1484375 725.21875 C591.61733398 725.84265625 592.08623047 726.4665625 592.56933594 727.109375 C594.86467438 730.14266867 597.21050499 733.13554066 599.5625 736.125 C600.02672363 736.71587402 600.49094727 737.30674805 600.96923828 737.91552734 C603.7104598 741.39428861 606.49242261 744.83457294 609.3125 748.25 C613.28642457 753.07141028 617.11639109 757.99505633 620.9375 762.9375 C625.6969562 769.09067918 630.5506728 775.1239093 635.56640625 781.0703125 C639.27202911 785.5313352 642.82939746 790.1053513 646.3984375 794.67578125 C648.66047814 797.57241779 650.94866036 800.4469323 653.25 803.3125 C655.60907298 806.25182884 657.94455923 809.20594439 660.25 812.1875 C663.88339764 816.87788604 667.59629896 821.50287876 671.30883789 826.13061523 C674.79618477 830.4823426 678.25139677 834.8577373 681.6875 839.25 C685.61973182 844.27397655 689.62845612 849.22669357 693.68359375 854.15234375 C696.83250687 858.02343593 699.90857399 861.94965496 702.984375 865.87890625 C705.63761657 869.26792069 708.30516098 872.64385079 711 876 C713.62696685 879.27171937 716.22765351 882.56222248 718.8125 885.8671875 C723.31742361 891.6263228 727.87750477 897.33472885 732.5 903 C738.42462876 910.26340472 744.23155417 917.61230474 750 925 C755.80370061 932.42687246 761.63795808 939.81698563 767.625 947.09765625 C774.58611218 955.60441012 781.41864853 964.2038904 788.07446289 972.95141602 C791.56167802 977.50040597 795.2090576 981.90700308 798.875 986.3125 C804.01093884 992.48673885 808.89826988 998.7937988 813.66699219 1005.25439453 C817.26491191 1010.09848752 821.06387438 1014.71474057 825.0012207 1019.28491211 C828.5189067 1023.38308269 831.82714838 1027.61378717 835.0925293 1031.91699219 C838.45361669 1036.33002297 841.92735814 1040.64235717 845.4375 1044.9375 C850.92124609 1051.65116284 856.30852019 1058.43283828 861.64404297 1065.26464844 C869.77326356 1075.66841148 877.92555199 1086.05206499 886.3125 1096.25 C890.26808211 1101.07171819 894.13252656 1105.95897852 897.97705078 1110.86914062 C901.94889821 1115.94172133 905.96515601 1120.97737262 910 1126 C914.53221403 1131.6417602 919.03371042 1137.30597737 923.5 1143 C928.40883846 1149.25755811 933.36229184 1155.47758645 938.34716797 1161.67480469 C943.65412088 1168.27436324 948.93783303 1174.88250371 954.0625 1181.625 C957.867246 1186.62670183 961.86823508 1191.4236602 965.96069336 1196.19140625 C969.79193849 1200.68391249 973.32414668 1205.36366763 976.83203125 1210.11328125 C979.63294073 1213.84278053 982.58506317 1217.43171848 985.5546875 1221.02734375 C992.67303479 1229.68079788 999.62330361 1238.46402325 1006.42382812 1247.36889648 C1009.7460519 1251.7049851 1013.19176722 1255.92778532 1016.66796875 1260.140625 C1019.23748533 1263.29118804 1021.74775281 1266.48349577 1024.25 1269.6875 C1028.27596002 1274.83956291 1032.3658034 1279.93441977 1036.5 1285 C1042.88158387 1292.82340477 1049.12199191 1300.75072169 1055.33398438 1308.70898438 C1060.6130471 1315.467726 1065.94349345 1322.17543427 1071.375 1328.8125 C1076.5632661 1335.15371412 1081.58443766 1341.60718213 1086.51123047 1348.15356445 C1089.41099982 1351.99143954 1092.40990458 1355.69129054 1095.56420898 1359.32250977 C1097.82002753 1361.95806991 1099.93780918 1364.69600255 1102.0625 1367.4375 C1106.2298678 1372.78067126 1110.46602583 1378.06241069 1114.75 1383.3125 C1118.59985905 1388.03257835 1122.41356187 1392.77048812 1126.12890625 1397.59765625 C1128.72011667 1400.92457568 1131.36174023 1404.21034296 1134 1407.5 C1135.53492597 1409.41812094 1137.06934055 1411.33664952 1138.60351562 1413.25537109 C1139.84277722 1414.80358147 1141.08522129 1416.34924324 1142.328125 1417.89453125 C1142.96234375 1418.69246094 1143.5965625 1419.49039062 1144.25 1420.3125 C1144.79140625 1420.98925781 1145.3328125 1421.66601562 1145.890625 1422.36328125 C1147 1424 1147 1424 1147 1426 C1147.66 1426 1148.32 1426 1149 1426 C1150.33984375 1427.4765625 1150.33984375 1427.4765625 1151.9375 1429.625 C1155.01886245 1433.70364988 1158.14382232 1437.7392187 1161.3125 1441.75 C1164.50015098 1445.79357915 1167.65997616 1449.85517463 1170.77612305 1453.95410156 C1174.98794978 1459.48921317 1179.36070843 1464.83887368 1183.88793945 1470.11865234 C1187.99089235 1474.92851089 1191.83692284 1479.91127691 1195.6640625 1484.94140625 C1200.34685152 1491.07288418 1205.21489502 1497.0500017 1210.125 1503 C1214.82903073 1508.73125407 1219.3682456 1514.58599677 1223.90991211 1520.44628906 C1227.57718421 1525.17690602 1231.27648293 1529.87742372 1235.03125 1534.5390625 C1236.97291442 1536.96614303 1238.89129631 1539.40998841 1240.8059082 1541.85839844 C1245.31251594 1547.6208677 1249.87519226 1553.33189467 1254.5 1559 C1260.87656214 1566.81746055 1267.12092271 1574.73258208 1273.31787109 1582.69287109 C1278.80059222 1589.73454439 1284.36842519 1596.69015546 1290.0625 1603.5625 C1310.73470999 1628.5364904 1310.73470999 1628.5364904 1310.49609375 1635.93359375 C1309.57136894 1639.78540026 1306.89231952 1642.41489576 1304 1645 C1301.67204689 1646.16397656 1300.33131063 1646.12675451 1297.73865664 1646.12995183 C1296.83705075 1646.13348025 1295.93544487 1646.13700867 1295.00651759 1646.14064401 C1294.00767285 1646.13944624 1293.00882811 1646.13824846 1291.97971535 1646.13701439 C1290.92070414 1646.13966622 1289.86169294 1646.14231804 1288.77059048 1646.14505023 C1285.18002889 1646.15278161 1281.58950127 1646.15330386 1277.99893188 1646.15390015 C1275.41538278 1646.15791226 1272.83183431 1646.16235006 1270.2482866 1646.1671797 C1263.86538076 1646.17827105 1257.48248042 1646.18390786 1251.09956664 1646.18788858 C1243.45779766 1646.19289163 1235.81603941 1646.20361833 1228.17427675 1646.21437032 C1209.69926522 1646.24002144 1191.22424951 1646.25504074 1172.74922528 1646.26788078 C1166.63010854 1646.27213408 1160.51099211 1646.27669978 1154.39187574 1646.2814641 C1121.86604867 1646.30672559 1089.3402211 1646.32877685 1056.81438637 1646.34119225 C1049.27550886 1646.34411365 1041.73663137 1646.34708115 1034.19775391 1646.35009766 C1033.26112758 1646.35046857 1032.32450125 1646.35083947 1031.3594923 1646.35122162 C1000.99757102 1646.36337485 970.63570774 1646.39431363 940.2738137 1646.43601918 C909.0673839 1646.47880666 877.86098474 1646.50543335 846.65452482 1646.51066696 C842.24666657 1646.51140741 837.83880836 1646.5123181 833.43095016 1646.51332474 C832.56343374 1646.51351535 831.69591731 1646.51370597 830.80211251 1646.51390236 C816.84032531 1646.51741605 802.8786107 1646.53771475 788.91685016 1646.56412137 C774.88066618 1646.59026826 760.84456609 1646.59799251 746.80836125 1646.58702008 C738.47018427 1646.58104407 730.13229184 1646.58895059 721.79415794 1646.61685092 C715.56594067 1646.63614805 709.33800881 1646.62927804 703.10979061 1646.61228175 C700.59147853 1646.60947404 698.07313982 1646.61512279 695.55487068 1646.63009469 C678.86469758 1646.72325338 667.23083725 1646.00565099 654 1635 C653.2678125 1634.48695312 652.535625 1633.97390625 651.78125 1633.4453125 C651.1934375 1632.96835938 650.605625 1632.49140625 650 1632 C650 1631.34 650 1630.68 650 1630 C649.40179443 1629.73840088 648.80358887 1629.47680176 648.18725586 1629.20727539 C645.86066496 1627.92309278 644.67121888 1626.73316695 643.00390625 1624.68359375 C642.45202637 1624.01054199 641.90014648 1623.33749023 641.33154297 1622.64404297 C640.74775879 1621.91588379 640.16397461 1621.18772461 639.5625 1620.4375 C638.64041748 1619.30272217 638.64041748 1619.30272217 637.69970703 1618.14501953 C632.95267199 1612.26987987 628.33897334 1606.29632671 623.78466797 1600.27099609 C619.51419676 1594.62745068 615.10843918 1589.10349661 610.60498047 1583.64404297 C607 1579.21590692 607 1579.21590692 607 1577 C606.34 1577 605.68 1577 605 1577 C603.25058305 1574.97419947 601.61717843 1572.94049793 600 1570.8125 C599.51160645 1570.18045654 599.02321289 1569.54841309 598.52001953 1568.8972168 C597.00690798 1566.9363278 595.50251432 1564.96901679 594 1563 C592.29283788 1560.76993449 590.5842319 1558.54097942 588.875 1556.3125 C588.2569751 1555.50558716 588.2569751 1555.50558716 587.62646484 1554.68237305 C584.30900575 1550.36548189 580.88188438 1546.14883328 577.41796875 1541.94921875 C573.01386729 1536.57749564 568.69558238 1531.13669625 564.36328125 1525.70703125 C562.5586376 1523.44734852 560.74765195 1521.19277129 558.9375 1518.9375 C551.27635328 1509.3571012 543.72852409 1499.69090784 536.2890625 1489.9375 C534.63745863 1487.81803564 532.96185566 1485.78268924 531.2109375 1483.75 C529 1481 529 1481 529 1479 C528.34 1479 527.68 1479 527 1479 C525.4373696 1477.15909295 523.99405386 1475.31458696 522.5625 1473.375 C521.66091905 1472.17781059 520.75854755 1470.98121619 519.85546875 1469.78515625 C519.3867334 1469.16141113 518.91799805 1468.53766602 518.43505859 1467.89501953 C516.11973116 1464.83758987 513.74905648 1461.82441837 511.375 1458.8125 C510.67697266 1457.92558472 510.67697266 1457.92558472 509.96484375 1457.02075195 C505.55978347 1451.42965408 501.1141321 1445.87150167 496.65283203 1440.32519531 C491.41120045 1433.8068683 486.19037906 1427.28164123 481.125 1420.625 C476.55094107 1414.6395594 471.78001405 1408.83206697 466.97460938 1403.03149414 C463.42652627 1398.74520288 459.93923439 1394.42595671 456.55078125 1390.01171875 C452.98471322 1385.3857111 449.2959037 1380.85447777 445.63525391 1376.30322266 C439.44733697 1368.60817841 433.32560147 1360.87396794 427.3359375 1353.0234375 C424.43046749 1349.26284588 421.42940074 1345.58569932 418.3984375 1341.92578125 C417 1340 417 1340 417 1338 C416.34 1338 415.68 1338 415 1338 C413.43734702 1336.15906635 411.99417365 1334.31453552 410.5625 1332.375 C409.65435051 1331.17004149 408.74547205 1329.96563212 407.8359375 1328.76171875 C407.36639648 1328.13700684 406.89685547 1327.51229492 406.41308594 1326.86865234 C404.20481902 1323.94845971 401.95042017 1321.06544276 399.6875 1318.1875 C399.23648926 1317.61314209 398.78547852 1317.03878418 398.32080078 1316.44702148 C394.19589518 1311.21278263 389.98179498 1306.05272808 385.76635742 1300.89135742 C381.60489604 1295.78138667 377.5863611 1290.58000993 373.58984375 1285.33984375 C370.65282632 1281.52206514 367.60922815 1277.79290593 364.5625 1274.0625 C357.74010755 1265.70738928 351.01061362 1257.28157399 344.48046875 1248.6953125 C339.84860822 1242.60832201 335.09129069 1236.68825986 330.11206055 1230.88134766 C326.00487168 1226.06652332 322.15516401 1221.07840335 318.32421875 1216.04296875 C314.51674913 1211.05806314 310.57061289 1206.18642197 306.63232422 1201.3046875 C301.46810198 1194.89839399 296.32502202 1188.49680402 291.4375 1181.875 C288.35465646 1177.71841921 285.12532633 1173.73271935 281.75 1169.8125 C276.82056317 1164.08480566 272.21200837 1158.14663123 267.65454102 1152.12011719 C263.9705331 1147.24967723 260.1989798 1142.48042314 256.29296875 1137.78515625 C255 1136 255 1136 255 1134 C254.34 1134 253.68 1134 253 1134 C251.43736762 1132.15909062 249.99410177 1130.31455386 248.5625 1128.375 C247.65958697 1127.1765309 246.75591474 1125.97863347 245.8515625 1124.78125 C245.38266602 1124.15734375 244.91376953 1123.5334375 244.43066406 1122.890625 C242.13532562 1119.85733133 239.78949501 1116.86445934 237.4375 1113.875 C236.97327637 1113.28412598 236.50905273 1112.69325195 236.03076172 1112.08447266 C233.2895402 1108.60571139 230.50757739 1105.16542706 227.6875 1101.75 C223.71357804 1096.92859289 219.88353503 1092.00499784 216.0625 1087.0625 C211.28326256 1080.8820669 206.40218588 1074.83018835 201.36328125 1068.859375 C198.37344346 1065.24191837 195.52769772 1061.52624284 192.68530273 1057.79272461 C189.24724083 1053.28784138 185.67599156 1048.9032929 182.0703125 1044.53125 C179.66141556 1041.5860326 177.33272616 1038.58579295 175.0078125 1035.57421875 C172.38730106 1032.21445798 169.72623056 1028.88804233 167.0625 1025.5625 C166.54171875 1024.9123291 166.0209375 1024.2621582 165.484375 1023.59228516 C163.22265789 1020.77011113 160.95928137 1017.94927425 158.6953125 1015.12890625 C155.00842059 1010.53105077 151.36319957 1005.90506969 147.75390625 1001.24609375 C146.00139102 999.00178137 144.22323337 996.7804491 142.4375 994.5625 C139.23078477 990.57122919 136.08509276 986.53614217 132.95239258 982.48681641 C127.54436296 975.49720004 122.06323532 968.61349406 116.36328125 961.859375 C113.37640312 958.24549931 110.52971285 954.53612673 107.69628906 950.80151367 C104.21032588 946.22152199 100.55001395 941.81573062 96.8125 937.4375 C95.01366053 935.01837105 93.97361733 932.8397172 93 930 C92.34 930 91.68 930 91 930 C89.27214849 927.99483899 87.65970975 925.98100392 86.0625 923.875 C85.06786166 922.58581919 84.07306552 921.29676011 83.078125 920.0078125 C82.56830078 919.34297852 82.05847656 918.67814453 81.53320312 917.99316406 C79.14925786 914.89403522 76.7311135 911.82209773 74.3125 908.75 C73.85101563 908.16259033 73.38953125 907.57518066 72.9140625 906.9699707 C68.97293941 901.95559535 64.99209289 896.97387342 61 892 C58.4736914 888.84412635 55.94916646 885.68682574 53.42431641 882.52978516 C51.23126712 879.78795387 49.03750627 877.04673023 46.83984375 874.30859375 C40.68850547 866.6415253 34.6287362 858.90313332 28.56347656 851.16796875 C21.74329578 842.47123703 21.74329578 842.47123703 14.875 833.8125 C14.2459375 833.02230469 13.616875 832.23210938 12.96875 831.41796875 C11.57884839 829.71092689 10.15905406 828.02801625 8.71875 826.36328125 C7.9453125 825.45964844 7.171875 824.55601562 6.375 823.625 C5.68148438 822.83351563 4.98796875 822.04203125 4.2734375 821.2265625 C-2.46668357 811.6606862 -4.88597364 803.7221118 -4.74946022 792.06470013 C-4.75512435 790.69018274 -4.76341671 789.31567416 -4.77407068 787.9411864 C-4.79566974 784.18039264 -4.78019059 780.42054717 -4.7584026 776.65978871 C-4.74132081 772.56237226 -4.75918812 768.46507969 -4.77253091 764.36766988 C-4.79109699 757.19194797 -4.78742647 750.01650642 -4.76906586 742.84078789 C-4.74183871 732.17050551 -4.7490059 721.50043803 -4.76298306 710.83013999 C-4.78682817 691.773687 -4.77667251 672.71736639 -4.75242651 653.66092072 C-4.73135669 636.98747628 -4.72227522 620.31407693 -4.72501755 603.64061928 C-4.72518561 602.53476895 -4.72535367 601.42891862 -4.72552682 600.28955768 C-4.72623131 595.80064123 -4.72699933 591.31172481 -4.72785798 586.82280839 C-4.73578768 544.71628751 -4.71035275 502.6098464 -4.66880485 460.50334834 C-4.63205333 423.08172058 -4.62044352 385.66016926 -4.63134766 348.23852539 C-4.63204052 345.83499109 -4.63273272 343.43145678 -4.63342424 341.02792247 C-4.63376623 339.83966786 -4.63410822 338.65141325 -4.63446057 337.42715092 C-4.63616762 331.44582223 -4.63781519 325.46449352 -4.63939857 319.48316479 C-4.63971274 318.30317659 -4.6400269 317.12318838 -4.64035058 315.90744296 C-4.64832658 284.64759357 -4.63738535 253.38775155 -4.62037599 222.12790662 C-4.61856189 218.7653398 -4.61675059 215.40277297 -4.61494553 212.04020615 C-4.61374331 209.80952364 -4.61252607 207.57884115 -4.61129371 205.34815866 C-4.60284495 189.7854727 -4.60169693 174.22280119 -4.6055047 158.66011367 C-4.61038584 138.61027223 -4.60228514 118.5605083 -4.57108469 98.51068809 C-4.55495897 87.90303485 -4.5497997 77.29551073 -4.56036941 66.68784973 C-4.56630907 59.60855652 -4.55776588 52.52937775 -4.53727225 45.45011192 C-4.52598496 41.41263476 -4.52106068 37.37542149 -4.53360541 33.33794203 C-4.54487645 29.66626117 -4.53781177 25.99509342 -4.51600786 22.32346418 C-4.50920351 20.3782279 -4.52202244 18.43295334 -4.53559655 16.48775253 C-4.47459376 9.77721986 -4.02667038 5.45914767 0 0 Z " fill="#FF4655" transform="translate(4,0)"/>
<path d="M0 0 C3.8822853 2.39660629 5.9392751 4.96993477 8 9 C8.37826751 11.68640625 8.37826751 11.68640625 8.3829515 14.64950752 C8.3919994 15.78489601 8.40104731 16.92028451 8.4103694 18.09007871 C8.40506098 19.33516505 8.39975257 20.5802514 8.39428329 21.86306763 C8.39923336 23.20642256 8.40549271 24.5497732 8.4129436 25.89311659 C8.42965887 29.59987095 8.42762364 33.30641759 8.42261083 37.0131976 C8.42041996 41.04034724 8.43548074 45.06743793 8.44833589 49.09456253 C8.47109469 57.08906661 8.47765602 65.08351061 8.47932305 73.0780437 C8.48206223 82.65155996 8.50206007 92.22502051 8.52236352 101.79851283 C8.57057546 124.94290405 8.58825866 148.0872894 8.60260977 171.23172181 C8.60961618 182.18236643 8.62042416 193.13300632 8.6316959 204.08364725 C8.6702103 241.57240151 8.7023632 279.06115314 8.7127037 316.54992676 C8.7133686 318.90398661 8.71403395 321.25804647 8.71469976 323.61210632 C8.71536168 325.97185771 8.71602313 328.33160909 8.7166841 330.69136047 C8.71801176 335.42542522 8.71935311 340.15948995 8.72070312 344.89355469 C8.7210313 346.06733036 8.72135947 347.24110603 8.72169759 348.45045066 C8.73258369 386.48975503 8.78031849 424.52888767 8.85027422 462.56812629 C8.92410593 502.78860186 8.9652241 543.00897932 8.96880746 583.22952461 C8.96932181 587.64729947 8.96996809 592.06507429 8.97071075 596.48284912 C8.97087806 597.57062331 8.97104537 598.65839751 8.97121774 599.77913456 C8.97466646 617.26774173 9.0077093 634.75617249 9.05137192 652.24472015 C9.09452821 669.83515332 9.1041436 687.42536095 9.08005199 705.01583254 C9.06671038 715.45855058 9.07815343 725.90053929 9.12576751 736.3431611 C9.15512324 743.33059765 9.15138294 750.31752603 9.12145882 757.30495847 C9.10535649 761.27895848 9.10290228 765.25156339 9.14098498 769.22544503 C9.29517706 786.35894472 8.29335344 800.70567543 -0.01365611 816.06560183 C-1.3155814 818.61891201 -2.15733106 821.26614303 -3 824 C-4.19824219 825.86425781 -4.19824219 825.86425781 -5.546875 827.453125 C-6.05516846 828.06333496 -6.56346191 828.67354492 -7.0871582 829.30224609 C-7.635896 829.94500488 -8.18463379 830.58776367 -8.75 831.25 C-9.92758016 832.66256478 -11.10329297 834.07668792 -12.27734375 835.4921875 C-12.88819824 836.22663086 -13.49905273 836.96107422 -14.12841797 837.71777344 C-17.26623878 841.54406472 -20.28808299 845.4588781 -23.3125 849.375 C-27.50907462 854.79654843 -31.7276237 860.19473963 -36.02734375 865.53515625 C-38.4558926 868.56964005 -40.85296728 871.62810165 -43.25 874.6875 C-47.13823723 879.64809776 -51.05650847 884.58322392 -55 889.5 C-58.87763845 894.33596642 -62.73557848 899.18628332 -66.5625 904.0625 C-67.01383301 904.63758301 -67.46516602 905.21266602 -67.93017578 905.80517578 C-70.18176335 908.67633313 -72.42989571 911.5501622 -74.67578125 914.42578125 C-80.11534787 921.38116324 -85.6391963 928.25947754 -91.22509766 935.09790039 C-94.63563986 939.28559893 -97.97573928 943.51753138 -101.25 947.8125 C-105.04181512 952.78426407 -108.94851787 957.64076339 -112.92578125 962.46484375 C-115.36004451 965.44005441 -117.72088969 968.46547236 -120.0703125 971.5078125 C-122.9192331 975.18718769 -125.79849422 978.84254668 -128.67578125 982.49975586 C-131.01993101 985.4795736 -133.36180051 988.4610602 -135.6953125 991.44921875 C-141.19784323 998.48803999 -146.78544547 1005.45062542 -152.43164062 1012.37475586 C-156.35927714 1017.19627234 -160.21294619 1022.06711965 -164 1027 C-166.3277841 1030.00433219 -168.66285029 1033.0029492 -171 1036 C-171.80179688 1037.02867188 -172.60359375 1038.05734375 -173.4296875 1039.1171875 C-178.49929708 1045.60464063 -183.62431339 1052.04440667 -188.8125 1058.4375 C-189.33924316 1059.08726807 -189.86598633 1059.73703613 -190.40869141 1060.40649414 C-196.16374458 1067.47644357 -201.40229643 1073.85715011 -209 1079 C-210.04027344 1079.74056641 -210.04027344 1079.74056641 -211.1015625 1080.49609375 C-227.29648461 1091.20922951 -244.17832619 1091.86728955 -262.97897339 1091.74171448 C-265.58203815 1091.74648647 -268.18509918 1091.7538849 -270.78814995 1091.76366371 C-276.42010113 1091.78060792 -282.05168786 1091.77557867 -287.68362427 1091.7556076 C-296.05805333 1091.72599402 -304.43221881 1091.73109243 -312.80667923 1091.74285849 C-326.89914875 1091.76162982 -340.99146719 1091.75223214 -355.08391953 1091.72607613 C-369.03007281 1091.7001973 -382.97615818 1091.68551651 -396.92233658 1091.68607903 C-397.79114454 1091.68610196 -398.65995251 1091.6861249 -399.55508799 1091.68614853 C-403.08200225 1091.68627126 -406.60891649 1091.6864681 -410.13583074 1091.68676597 C-443.18274901 1091.68948093 -476.22956389 1091.6596943 -509.27644629 1091.61347697 C-538.64313418 1091.57255819 -568.0097487 1091.55389539 -597.37646484 1091.5559082 C-599.26418463 1091.55602944 -601.15190441 1091.55615052 -603.0396242 1091.55627144 C-603.97287705 1091.55633249 -604.90612991 1091.55639355 -605.86766315 1091.55645645 C-610.56544098 1091.55675883 -615.2632188 1091.55703058 -619.96099663 1091.55726719 C-621.35117726 1091.5573424 -621.35117726 1091.5573424 -622.76944235 1091.55741913 C-647.31397259 1091.55851382 -671.85849364 1091.54490871 -696.40301621 1091.5262875 C-697.27564944 1091.52562668 -698.14828267 1091.52496587 -699.04735933 1091.52428503 C-702.55639065 1091.52162036 -706.06542197 1091.51895519 -709.57445324 1091.51621216 C-721.79029767 1091.50672732 -734.00613487 1091.50220377 -746.22198273 1091.50087769 C-761.95197096 1091.49908875 -777.68189863 1091.48714997 -793.41186093 1091.45758332 C-801.73394366 1091.44221157 -810.05593746 1091.43501915 -818.3780337 1091.43957187 C-824.57940815 1091.44202599 -830.78065466 1091.42886993 -836.98199703 1091.40942036 C-839.49967719 1091.40395726 -842.01737436 1091.40361179 -844.53505526 1091.40872223 C-847.94036307 1091.41487243 -851.34511994 1091.40280594 -854.75037956 1091.38590336 C-855.74225519 1091.39206931 -856.73413082 1091.39823527 -857.75606328 1091.40458807 C-858.6606264 1091.39630884 -859.56518953 1091.38802961 -860.49716365 1091.3794995 C-861.27615907 1091.378625 -862.05515449 1091.3777505 -862.85775583 1091.37684951 C-865.5805895 1090.89786651 -866.97412191 1089.84874536 -869 1088 C-871.04950931 1081.32934466 -870.84621248 1071.27451107 -868.08007812 1064.87011719 C-865.71363029 1061.03311955 -862.6881993 1057.8370817 -859.54345703 1054.62841797 C-857.01829347 1051.96425458 -854.84749578 1049.04159139 -852.625 1046.125 C-848.10526417 1040.34133229 -843.47708153 1034.64817006 -838.83642578 1028.96142578 C-834.88834926 1024.11547458 -831.01215189 1019.21847906 -827.16625977 1014.29125977 C-823.646249 1009.79336212 -820.05145802 1005.36012064 -816.4375 1000.9375 C-812.46617338 996.07594793 -808.55593191 991.1796964 -804.75 986.1875 C-801.04317491 981.32863426 -797.22766244 976.58176552 -793.33984375 971.8671875 C-788.80734202 966.31317035 -784.41469928 960.64777046 -780 955 C-774.17348238 947.54607574 -768.31371072 940.1333537 -762.30078125 932.828125 C-759.25878036 929.08889131 -756.28731711 925.29671572 -753.31884766 921.49902344 C-749.19288589 916.22623809 -745.0066979 911.00290716 -740.7956543 905.79785156 C-738.14589724 902.56703339 -738.14589724 902.56703339 -736 899 C-735.34 899 -734.68 899 -734 899 C-733.65195313 898.19949219 -733.65195313 898.19949219 -733.296875 897.3828125 C-731.60738023 894.27862031 -729.45595619 891.61961536 -727.25 888.875 C-726.25590506 887.62548137 -725.26244706 886.37545582 -724.26953125 885.125 C-723.47603271 884.12726563 -723.47603271 884.12726563 -722.66650391 883.109375 C-720.33236518 880.15494215 -718.03270982 877.17432456 -715.73071289 874.19482422 C-710.42145052 867.32639521 -705.0310655 860.56577059 -699.43359375 853.9296875 C-695.26036053 848.90573097 -691.26857811 843.73979998 -687.24902344 838.59277344 C-685.51549494 836.38215188 -683.75929735 834.19014567 -682 832 C-678.88976948 828.12485506 -675.81489531 824.22347909 -672.75 820.3125 C-668.36192411 814.71434191 -663.93042319 809.15256152 -659.47924805 803.60449219 C-656.145881 799.44517236 -652.84547871 795.26165882 -649.5625 791.0625 C-645.59800899 785.99484628 -641.56734931 780.98541669 -637.5 776 C-631.57541199 768.73656144 -625.76844655 761.38769617 -620 754 C-614.19629939 746.57312754 -608.36204192 739.18301437 -602.375 731.90234375 C-595.29954539 723.25585892 -588.35704952 714.51025037 -581.57617188 705.63110352 C-578.25619266 701.29794445 -574.81242 697.07822021 -571.33984375 692.8671875 C-566.80734202 687.31317035 -562.41469928 681.64777046 -558 676 C-552.17235643 668.5446353 -546.31210063 661.12994491 -540.296875 653.82421875 C-537.74227809 650.68310724 -535.24250391 647.502905 -532.75 644.3125 C-528.7239427 639.16051141 -524.63419846 634.0655825 -520.5 629 C-514.57529951 621.73670439 -508.76730111 614.38856291 -503 607 C-496.69608586 598.92397529 -490.32440148 590.91272487 -483.84741211 582.97460938 C-479.32469947 577.42269185 -474.89192243 571.80451354 -470.48046875 566.1640625 C-468.3392652 563.42730863 -466.17558341 560.70955012 -464 558 C-460.80625961 554.02091361 -457.64849384 550.01487952 -454.5 546 C-449.34869039 539.43241075 -444.15388091 532.90116239 -438.90625 526.41015625 C-435.86203506 522.6332851 -432.87026655 518.87616561 -430.125 514.875 C-429.42375 513.92625 -428.7225 512.9775 -428 512 C-427.34 512 -426.68 512 -426 512 C-425.64615234 511.19755859 -425.64615234 511.19755859 -425.28515625 510.37890625 C-423.63523853 507.32480324 -421.5689998 504.66305743 -419.4375 501.9375 C-418.99422363 501.36604248 -418.55094727 500.79458496 -418.09423828 500.20581055 C-414.51103764 495.6065831 -410.83590758 491.08591476 -407.12890625 486.5859375 C-401.95995969 480.30732719 -396.93415257 473.92215538 -391.95678711 467.49121094 C-386.54566928 460.50139967 -381.06458076 453.61508833 -375.36328125 446.859375 C-372.37344346 443.24191837 -369.52769772 439.52624284 -366.68530273 435.79272461 C-363.2483579 431.28930506 -359.67806502 426.90631359 -356.07421875 422.53515625 C-353.64293983 419.56359312 -351.28511725 416.5416795 -348.9375 413.50390625 C-342.50216388 405.18727227 -335.98378401 396.94743919 -329.30078125 388.828125 C-326.25581983 385.08525221 -323.28168599 381.28921309 -320.31005859 377.48803711 C-316.30231413 372.36687497 -312.23926251 367.29134959 -308.1472168 362.23730469 C-305.73773634 359.24439788 -303.44842105 356.22719634 -301.2734375 353.05859375 C-300.52320313 352.04925781 -299.77296875 351.03992188 -299 350 C-298.34 350 -297.68 350 -297 350 C-296.814375 349.34 -296.62875 348.68 -296.4375 348 C-294.79076184 344.56332906 -292.73313382 342.30159436 -290.1875 339.49609375 C-287.52683367 336.46008342 -285.04358276 333.30820361 -282.5625 330.125 C-282.08844727 329.51760986 -281.61439453 328.91021973 -281.12597656 328.28442383 C-280.18726653 327.08139959 -279.24878497 325.87819703 -278.31054688 324.67480469 C-274.61540969 319.95262863 -270.84542486 315.28892819 -267.08203125 310.62109375 C-263.34915506 305.97921378 -259.6802126 301.29458181 -256.0625 296.5625 C-251.49998229 290.60258686 -246.77474155 284.79144519 -242 279 C-235.06329305 270.54518139 -228.22442973 262.0411351 -221.59375 253.34375 C-218.10047873 248.80249735 -214.45225797 244.38682035 -210.82519531 239.95239258 C-207.39606006 235.74901814 -204.03797117 231.50207045 -200.75 227.1875 C-196.97636077 222.241468 -193.09720147 217.40202417 -189.140625 212.6015625 C-184.40306599 206.84387217 -179.7775807 200.99789792 -175.18286133 195.12597656 C-170.6599629 189.34685176 -166.08075783 183.62046604 -161.4375 177.9375 C-157.466207 173.0759186 -153.55593306 168.17969791 -149.75 163.1875 C-146.04317491 158.32863426 -142.22766244 153.58176552 -138.33984375 148.8671875 C-133.80734202 143.31317035 -129.41469928 137.64777046 -125 132 C-119.1786288 124.5526596 -113.32477052 117.14583038 -107.31640625 109.84765625 C-104.17175672 105.98180548 -101.09890495 102.06162206 -98.02880859 98.13647461 C-95.25397735 94.58987813 -92.45307305 91.06696716 -89.625 87.5625 C-87.34210284 84.73226889 -85.18300252 81.8722653 -83.125 78.875 C-82.42375 77.92625 -81.7225 76.9775 -81 76 C-80.34 76 -79.68 76 -79 76 C-78.72325439 75.4131543 -78.44650879 74.82630859 -78.16137695 74.22167969 C-77.057668 72.11031717 -75.86402463 70.3412822 -74.41796875 68.453125 C-73.90492188 67.78144287 -73.391875 67.10976074 -72.86328125 66.41772461 C-72.03376953 65.34470093 -72.03376953 65.34470093 -71.1875 64.25 C-70.32125 63.12380249 -70.32125 63.12380249 -69.4375 61.97485352 C-62.90915058 53.52676576 -56.14872827 45.27191839 -49.375 37.02050781 C-47.74775767 35.03632831 -46.12342454 33.04980397 -44.5 31.0625 C-43.96665039 30.41224854 -43.43330078 29.76199707 -42.88378906 29.09204102 C-39.43571067 24.85893693 -36.1553198 20.52955502 -32.92260742 16.13037109 C-23.66723827 3.65028057 -16.26318255 -2.66439374 0 0 Z " fill="#FF4655" transform="translate(1992,0)"/>
</svg>
